<?xml version="1.0" ?><!DOCTYPE svg  PUBLIC '-//W3C//DTD SVG 1.1//EN'  'http://www.w3.org/Graphics/SVG/1.1/DTD/svg11.dtd'><svg enable-background="new 0 0 91 91" height="91px" id="Layer_1" version="1.1" viewBox="0 0 91 91" width="91px" xml:space="preserve" xmlns="http://www.w3.org/2000/svg" xmlns:xlink="http://www.w3.org/1999/xlink"><g><path d="M88.825,45.366c-0.049-1.097-0.952-1.959-2.05-1.959H77.1c-3.211,0-5.207,2.646-5.9,4.249l-8.059,16.774   c-3.013,6.272-10.027,10.018-18.769,10.018h-0.001c-3.135,0-6.325-0.482-9.484-1.435C23.777,69.669,17.874,58.446,19.822,51   l0.875-3.875c0.386-0.881,1.239-1.689,0.396-2.979c-0.997-1.522-1.922-0.74-4.88-0.74H4.222c-1.097,0-2,0.862-2.049,1.959   c-0.03,0.663-0.05,1.328-0.05,1.999c0,23.918,19.458,43.376,43.377,43.376c23.916,0,43.376-19.458,43.376-43.376   C88.876,46.694,88.855,46.028,88.825,45.366z" fill="#FF889C"/><g><path d="M79.417,27.061c1.401-4.335,0.622-7.398-1.295-10.1c-1.938-2.673-5.282-4.82-8.896-6.127    c-3.343-1.225-6.894-1.729-9.479-1.524l-1.039,0.068l-0.753-0.721c-1.482-1.463-3.75-2.969-6.316-4.145l-4.582-1.601    c-2.804-0.677-5.654-0.825-8.091-0.221c-3.198,0.835-5.776,2.686-7.484,6.894c-0.125,0.337-0.253,0.654-0.36,0.94    c-2.148,6.048-1.562,8.723-0.993,12.376c0.645,3.618,1.231,8.164-1.4,15.229c-3.005,8.215-3.367,13.542-2.778,16.646    c0.607,3.12,0.982,3.69,2.667,4.302c1.775,0.648,3.039-0.917,3.46-1.838c1.606-3.353,2.995-9.01,6.822-14.178    c1.077-1.43,2.412-3.218,4.272-4.596c2.52-1.854,7.597-2.167,8.712,3.178c0.477,2.271,0.412,4.479,0.316,6.263    c-0.298,4.896-1.602,9.657-3.191,13.065c-2.212,4.749,0.667,5.785,0.763,5.818c1.524,0.556,2.338,0.417,4.802-1.587    c2.45-1.993,5.601-6.306,8.589-14.53c2.532-7.109,5.904-10.197,8.728-12.558c2.787-2.429,4.948-4.102,7.199-10.109    C79.195,27.709,79.302,27.391,79.417,27.061z" fill="#F4F2E8"/><path d="M79.783,15.756c-2.084-2.872-5.585-5.306-9.852-6.849c-2.938-1.076-6.224-1.693-9.013-1.693    c-0.464,0-0.909,0.017-1.305,0.048l-0.14,0.009l-0.077-0.074c-1.691-1.67-4.144-3.284-6.904-4.55    c-0.058-0.025-0.117-0.05-0.178-0.07l-4.581-1.602c-0.064-0.022-0.13-0.042-0.196-0.058c-3.28-0.791-6.411-0.876-9.09-0.21    c-4.256,1.11-7.074,3.687-8.888,8.16l-0.372,0.971c-2.216,6.236-1.731,9.297-1.171,12.841l0.092,0.582    c0.647,3.649,1.082,7.747-1.31,14.164c-3.391,9.273-3.43,14.762-2.864,17.744c0.641,3.287,1.212,4.833,3.976,5.836    c0.505,0.184,1.021,0.278,1.535,0.278c2.241,0,3.821-1.719,4.479-3.156c0.512-1.065,0.991-2.322,1.5-3.652    c1.154-3.018,2.59-6.773,5.151-10.23c1.04-1.38,2.216-2.944,3.811-4.125c0.689-0.509,1.667-0.823,2.555-0.823    c1.584,0,2.544,0.906,2.933,2.769c0.409,1.952,0.374,3.908,0.277,5.719c-0.258,4.238-1.381,8.845-3.003,12.323    c-1.113,2.392-1.322,4.45-0.621,6.119c0.583,1.384,1.705,2.2,2.539,2.493c0.519,0.189,1.216,0.406,2.01,0.406    c1.61,0,2.976-0.854,4.788-2.329c2.345-1.907,5.847-6.13,9.227-15.433c2.29-6.427,5.264-9.29,8.144-11.7l0.39-0.338    c2.714-2.354,5.057-4.388,7.391-10.617c0.072-0.199,0.145-0.405,0.218-0.618l0.137-0.397    C82.841,23.144,82.341,19.356,79.783,15.756z M77.479,26.383l-0.13,0.374c-0.065,0.189-0.127,0.373-0.186,0.53    c-1.96,5.234-3.75,6.788-6.229,8.938l-0.365,0.317c-3.139,2.626-6.708,6.047-9.339,13.431c-3.218,8.854-6.365,12.346-7.955,13.64    c-1.433,1.164-1.987,1.408-2.2,1.408c-0.115,0-0.317-0.053-0.556-0.138c-0.35-0.174-0.546-1.128,0.347-3.042    c1.857-3.979,3.089-9.011,3.381-13.823c0.114-2.102,0.149-4.379-0.357-6.792c-0.789-3.776-3.386-6.031-6.948-6.031    c-1.771,0-3.588,0.591-4.995,1.622c-2.078,1.539-3.505,3.436-4.701,5.024c-2.864,3.869-4.412,7.915-5.656,11.167    c-0.499,1.304-0.929,2.43-1.382,3.377c-0.187,0.409-0.59,0.793-0.765,0.793c-0.03,0-0.075-0.01-0.13-0.03    c-0.81-0.294-0.876-0.316-1.352-2.755c-0.382-2.017-0.542-6.722,2.687-15.548c2.746-7.372,2.213-12.28,1.505-16.259l-0.085-0.547    c-0.512-3.236-0.88-5.574,0.975-10.798l0.338-0.886c1.301-3.204,3.126-4.901,6.079-5.673c1.954-0.483,4.421-0.413,7.019,0.2    l4.391,1.534c2.27,1.049,4.322,2.395,5.667,3.721l0.723,0.693l4.857,5.39c0.405,0.449,0.963,0.678,1.524,0.678    c0.489,0,0.98-0.174,1.372-0.525c0.843-0.759,0.91-2.057,0.151-2.898l-1.781-1.977c1.688,0.226,3.479,0.655,5.145,1.264    c3.458,1.251,6.349,3.22,7.921,5.386C78.227,20.653,78.53,23.13,77.479,26.383z" fill="#3B6A75"/></g><g><path d="M44.275,76.114c-3.415,0-6.985-0.518-10.571-1.598c-13.564-4.084-19.178-16.673-16.6-25.995    c0.031-0.117,0.074-0.231,0.127-0.342l1.317-2.742c-0.247-0.125-0.896-0.354-2.336-0.354H4.222c-1.132,0-2.051-0.919-2.051-2.052    c0-1.134,0.919-2.053,2.051-2.053h11.991c2.958,0,4.88,0.741,5.877,2.265c0.845,1.29,0.693,2.774,0.309,3.656l-1.387,2.886    c-1.945,7.444,2.768,17.458,13.875,20.802c12.217,3.68,24.1,0.068,28.257-8.583l8.056-16.775c0.693-1.604,2.689-4.25,5.9-4.25    h9.676c1.133,0,2.052,0.918,2.052,2.053c0,1.133-0.919,2.052-2.052,2.052H77.1c-1.313,0-2.141,1.789-2.148,1.807l-8.109,16.892    C63.079,71.612,54.352,76.114,44.275,76.114z" fill="#F16B72"/></g><path d="M39.475,20.824c-1.007,0-1.823-0.816-1.823-1.824c0-4.2,1.688-7.53,4.633-9.138   c2.663-1.452,5.959-1.225,8.815,0.611c0.847,0.545,1.092,1.673,0.547,2.521s-1.672,1.093-2.521,0.548   c-1.741-1.121-3.6-1.294-5.095-0.479c-1.736,0.948-2.731,3.112-2.731,5.937C41.3,20.008,40.482,20.824,39.475,20.824z" fill="#FFFFFF"/></g></svg>