<?xml version="1.0" ?><!DOCTYPE svg  PUBLIC '-//W3C//DTD SVG 1.1//EN'  'http://www.w3.org/Graphics/SVG/1.1/DTD/svg11.dtd'><svg enable-background="new 0 0 91 91" height="91px" id="Layer_1" version="1.1" viewBox="0 0 91 91" width="91px" xml:space="preserve" xmlns="http://www.w3.org/2000/svg" xmlns:xlink="http://www.w3.org/1999/xlink"><g><g><path d="M42.364,58.604c-0.146-0.5-0.204-1.303,0.333-2.265c0.37-0.661,0.982-1.025,1.725-1.025    c0.844,0,1.615,0.488,1.877,0.672l5.154,2.777c0.027-2.886-0.318-10.021-4.104-14.114c-0.803-0.869-1.729-1.542-2.762-2.042    c-0.154-0.032-0.294-0.097-0.41-0.193c-1.284-0.544-2.727-0.824-4.325-0.824c-3.104,0-5.626,1.03-7.501,3.063    C27.546,49.859,28.29,59.931,28.3,60.03l0.002,4.458c0,2.197,1.784,3.984,3.978,3.984h15.15c1.389,0,2.643-0.713,3.361-1.86    l-7.166-6.373C43.334,60.054,42.63,59.524,42.364,58.604z" fill="#F4F2E8"/><path d="M53.246,54.983h10.096c1.935,0,3.509-1.574,3.509-3.511v-3.968c0.01-0.168,0.672-9.262-3.644-13.931    c-1.682-1.814-3.941-2.737-6.72-2.737c-5.732,0-9.142,3.489-10.133,10.376c-0.006,0.039-0.028,0.068-0.04,0.107    c0.902,0.541,1.731,1.202,2.475,2.006C51.805,46.594,52.884,51.354,53.246,54.983z" fill="#F4F2E8"/><path d="M39.853,39.637c1.305,0,2.524,0.165,3.659,0.479c-1.002-4.563-3.545-9.278-9.804-9.278    c-2.779,0-5.04,0.922-6.722,2.739c-4.315,4.669-3.654,13.761-3.647,13.853l0.004,4.044c0,1.802,1.368,3.272,3.118,3.472    c0.364-3.614,1.446-8.357,4.455-11.615C33.177,40.882,36.184,39.637,39.853,39.637z" fill="#F4F2E8"/><path d="M12.427,29.059c-4.129,0-4.243,8.662-4.243,8.75v9.12c0,1.621,1.317,2.937,2.938,2.937h7.286    c1.617,0,2.936-1.315,2.936-2.937v-0.786c-0.001-0.172-0.001-0.348,0-0.547V43.47C21.337,43.372,20.526,29.059,12.427,29.059z" fill="#F4F2E8"/><path d="M86.38,23.367c-0.026-0.113-3.953-17.395-40.991-17.395c-37.07,0-41.555,17.311-41.596,17.483    c-0.379,2.871-1.157,11.162-0.045,13.947c0.709,1.771,1.769,2.257,2.481,2.367v-1.963c0-0.438,0.071-10.704,6.197-10.704    c6.206,0,8.884,6.088,10.03,10.831c0.631-2.036,1.598-4.063,3.094-5.68c2.063-2.238,4.81-3.371,8.158-3.371    c5.591,0,9.51,3.249,11.295,9.223c1.66-6.049,5.587-9.223,11.483-9.223c3.349,0,6.093,1.132,8.156,3.371    c1.497,1.618,2.465,3.644,3.094,5.684c1.147-4.754,3.823-10.835,10.025-10.835c6.128,0,6.197,10.268,6.197,10.704v1.956    c0.717-0.114,1.777-0.602,2.48-2.362C87.554,34.619,86.774,26.328,86.38,23.367z" fill="#FF889C"/><path d="M77.763,29.059c-8.111,0-8.906,14.314-8.914,14.46l0.002,2.141c0,0.136,0,0.252,0,0.373v0.896    c0,1.621,1.317,2.937,2.933,2.937h7.288c1.619,0,2.938-1.315,2.938-2.937v-9.12C82.01,37.723,81.883,29.059,77.763,29.059z" fill="#F4F2E8"/><path d="M70.307,71.134L45.188,57.593c-0.184-0.136-0.558-0.328-0.768-0.328c-0.339,0.597-0.241,1.039,0.266,1.338    l0.167,0.12l19.852,17.65l3.754,12.407l6.057-1.126l-2.773-14.253C71.548,72.47,71.041,71.679,70.307,71.134z" fill="#9AE0FF"/></g><path d="M89.932,22.863c-0.005-0.041-0.013-0.084-0.021-0.125c-0.156-0.817-4.318-20.023-44.115-20.023   c-39.747,0-44.506,19.142-44.69,19.958c-0.015,0.063-0.026,0.128-0.036,0.19c-0.254,1.914-1.445,11.665,0.14,15.631   c1.011,2.53,2.676,3.695,4.207,4.147v4.204c0,3.369,2.741,6.108,6.112,6.108h7.286c0.659,0,1.292-0.108,1.887-0.302   c0.48,2.501,2.357,4.504,4.786,5.174c-0.017,1.164,0.028,1.993,0.048,2.278v4.299c0,3.95,3.208,7.161,7.15,7.161h14.193   l10.425,11.211v6.339h4.393v-7.205c0-0.554-0.209-1.089-0.588-1.494l-9.33-10.034c0.359-0.237,0.689-0.515,1.001-0.814l9.49,8.439   L65.13,89.64l4.265-1.051l-3.188-12.96L50.181,61.377l19.867,10.697c0.462,0.364,0.777,0.884,0.913,1.527l3.403,14.089l4.271-1.031   l-3.39-14.02c-0.352-1.699-1.32-3.193-2.73-4.205l-17.486-9.43c0.006-0.273,0.009-0.584,0.006-0.934h8.711   c3.252,0,5.965-2.337,6.557-5.42c0.595,0.194,1.229,0.302,1.887,0.302h7.288c3.369,0,6.108-2.74,6.109-6.107v-4.209   c1.53-0.451,3.194-1.613,4.207-4.145C91.377,34.527,90.187,24.778,89.932,22.863z M20.527,46.844c0,0.944-0.769,1.716-1.714,1.716   h-7.286c-0.949,0-1.72-0.771-1.72-1.716v-6.258c0-0.008,0-0.016,0-0.023v-2.837c0.008-2.36,0.779-7.533,3.025-7.533   c6.635,0,7.638,12.448,7.694,13.258V46.844z M24.972,51.388v-3.966c0-0.059-0.002-0.116-0.008-0.175   c-0.021-0.271-0.037-0.606-0.044-0.983v-0.866c0.056-3.116,0.716-8.203,3.369-11.075c1.459-1.581,3.365-2.351,5.826-2.351   c3.998,0,6.72,2.182,8.125,6.494c-0.642-0.079-1.298-0.134-1.981-0.134c-4.024,0-7.333,1.373-9.833,4.084   c-2.797,3.03-4.034,7.218-4.565,10.771C25.323,52.768,24.972,52.12,24.972,51.388z M47.345,54.861   c-0.531-0.367-1.796-1.082-3.196-0.784c-0.896,0.188-1.646,0.749-2.111,1.582c-0.744,1.33-0.65,2.473-0.44,3.196   c0.352,1.219,1.213,1.947,1.687,2.267l6.189,5.504c-0.464,0.345-1.03,0.546-1.636,0.546H32.685c-1.52,0-2.757-1.243-2.757-2.769   v-4.379c0-0.058-0.002-0.116-0.005-0.174c-0.214-2.666,0.041-10.457,3.73-14.455c1.658-1.796,3.82-2.67,6.605-2.67   c1.373,0,2.592,0.214,3.676,0.644c0.219,0.153,0.462,0.269,0.725,0.335c0.813,0.422,1.545,0.979,2.196,1.683   c2.807,3.033,3.561,7.977,3.735,11.225L47.345,54.861z M66.041,47.247c-0.006,0.059-0.008,0.116-0.008,0.175v3.966   c0,1.263-1.025,2.292-2.287,2.292h-9.018c-0.489-3.653-1.709-8.093-4.637-11.266c-0.619-0.67-1.288-1.257-2.004-1.763   c1.517-8.654,6.977-8.679,8.806-8.679c2.455,0,4.358,0.765,5.816,2.341C66.66,38.581,66.047,47.163,66.041,47.247z M81.193,46.845   c0,0.944-0.769,1.716-1.716,1.716h-7.288c-0.945,0-1.714-0.771-1.714-1.716v-3.392c0.058-0.828,1.062-13.261,7.692-13.26   c2.248,0,3.019,5.173,3.025,7.529V46.845z M85.716,36.862c-0.045,0.113-0.094,0.202-0.142,0.3c-0.126-4.47-1.789-11.36-7.406-11.36   c-5.55,0-8.562,4.193-10.19,8.475c-0.553-1.049-1.213-2.049-2.031-2.936c-2.305-2.497-5.352-3.763-9.053-3.763   c-5.333,0-9.27,2.464-11.496,7.042c-2.27-4.581-6.129-7.043-11.283-7.043c-3.702,0-6.749,1.266-9.055,3.763   c-0.819,0.888-1.48,1.889-2.033,2.939c-1.629-4.283-4.642-8.479-10.194-8.479c-5.613,0-7.276,6.882-7.404,11.353   c-0.047-0.097-0.095-0.179-0.14-0.29c-0.845-2.11-0.443-8.979,0.117-13.278c0.361-1.192,5.708-16.479,40.39-16.479   c35.031,0,39.578,15.595,39.793,16.429C86.151,27.833,86.56,34.746,85.716,36.862z" fill="#3B6A75"/><path d="M19.242,20.488c-0.683,0-1.356-0.315-1.785-0.912c-0.706-0.981-0.49-2.347,0.487-3.058   c0.391-0.281,9.699-6.873,26.024-4.438c1.2,0.181,2.027,1.3,1.85,2.5c-0.18,1.199-1.301,2.021-2.499,1.847   c-14.438-2.16-22.719,3.597-22.801,3.653C20.132,20.357,19.684,20.488,19.242,20.488z" fill="#FFFFFF"/><path d="M33.957,56.106c-1.136,0-2.095-0.873-2.188-2.021c-0.268-3.342,0.93-5.399,1.982-6.538   c2.45-2.656,6.1-2.73,6.508-2.73c1.213,0,2.196,0.982,2.196,2.195c0,1.209-0.976,2.189-2.183,2.197   c-0.077,0.002-2.155,0.064-3.309,1.334c-0.663,0.728-0.932,1.771-0.816,3.188c0.099,1.211-0.805,2.27-2.014,2.366   C34.075,56.104,34.015,56.106,33.957,56.106z" fill="#FFFFFF"/></g></svg>