<?xml version="1.0" ?><!DOCTYPE svg  PUBLIC '-//W3C//DTD SVG 1.1//EN'  'http://www.w3.org/Graphics/SVG/1.1/DTD/svg11.dtd'><svg enable-background="new 0 0 91 91" height="91px" id="Layer_1" version="1.1" viewBox="0 0 91 91" width="91px" xml:space="preserve" xmlns="http://www.w3.org/2000/svg" xmlns:xlink="http://www.w3.org/1999/xlink"><g><circle cx="46.024" cy="46.099" fill="#9AE0FF" r="31.055"/><g><path d="M65.095,33.157c-0.131-3.494-1.496-5.504-3.588-6.949c-2.105-1.419-5.08-2.087-8.033-2.08    c-2.736-0.007-5.424,0.569-7.246,1.387L45.5,25.842l-0.731-0.327c-1.455-0.661-3.49-1.148-5.652-1.326l-3.729,0.052    c-2.196,0.246-4.296,0.89-5.896,1.974c-2.094,1.438-3.46,3.453-3.588,6.939c-0.008,0.282-0.012,0.539-0.012,0.775    c0.039,4.927,1.17,6.706,2.541,9.191c1.415,2.445,3.033,5.572,2.987,11.358c0,6.718,1.137,10.662,2.375,12.746    c1.26,2.097,1.686,2.411,3.058,2.411c1.45,0,1.949-1.466,2.013-2.24c0.28-2.842-0.207-7.287,1.197-12.031    c0.405-1.313,0.896-2.951,1.88-4.438c1.325-2,4.909-3.563,7.122,0c0.938,1.514,1.473,3.123,1.875,4.438    c1.074,3.613,1.385,7.389,1.135,10.271c-0.354,4.011,1.998,4,2.076,4c1.25,0,1.795-0.314,3.051-2.411    c1.242-2.083,2.381-6.028,2.379-12.746c-0.043-5.799,1.58-8.914,2.994-11.361c1.371-2.482,2.492-4.262,2.535-9.188    C65.106,33.685,65.101,33.43,65.095,33.157z" fill="#F4F2E8"/><g><path d="M51.157,70.509c1.156,1.264,2.58,1.362,2.988,1.362h0.002c2.432,0,3.582-1.178,4.973-3.501     c1.23-2.063,2.695-6.149,2.693-13.906c-0.037-5.07,1.254-7.732,2.715-10.265l0.188-0.339c1.326-2.389,2.58-4.645,2.627-9.931     c0-0.244-0.006-0.498-0.016-0.854c-0.141-3.843-1.629-6.69-4.57-8.723c-2.355-1.586-5.633-2.461-9.232-2.461h-0.104     c-2.789,0-5.732,0.559-7.921,1.501c-1.697-0.735-3.89-1.244-6.201-1.433c-0.071-0.005-0.15-0.007-0.213-0.006l-3.729,0.051     c-0.074,0.001-0.147,0.005-0.22,0.013c-2.697,0.302-5.083,1.112-6.913,2.354c-2.925,2.01-4.414,4.856-4.557,8.715     c-0.009,0.306-0.013,0.586-0.013,0.86c0.041,5.244,1.291,7.496,2.613,9.883l0.228,0.41c1.439,2.487,2.729,5.141,2.688,10.239     c0,7.741,1.463,11.824,2.695,13.896c1.305,2.175,2.291,3.496,4.973,3.496c2.549,0,4.062-2.157,4.238-4.257     c0.092-0.932,0.107-1.982,0.125-3.094c0.043-2.565,0.087-5.475,0.98-8.497l0.032-0.102c0.373-1.211,0.796-2.582,1.576-3.76     c0.364-0.555,1.178-1.125,1.902-1.125c0.196,0,0.792,0,1.456,1.065c0.766,1.235,1.238,2.611,1.633,3.898     c0.904,3.046,1.299,6.576,1.051,9.438C49.651,67.641,50.095,69.346,51.157,70.509z M45.706,46.566     c-2.162,0-4.371,1.227-5.632,3.127c-1.135,1.715-1.704,3.562-2.12,4.91l-0.038,0.126c-1.074,3.633-1.129,7.008-1.173,9.719     c-0.015,1.062-0.032,1.979-0.106,2.761c-0.006,0.056-0.021,0.122-0.04,0.184c-0.001,0-0.002,0-0.003,0     c-0.123-0.133-0.375-0.472-0.877-1.312c-0.771-1.294-2.063-4.523-2.063-11.585c0.05-6.202-1.672-9.701-3.265-12.455l-0.21-0.381     c-1.218-2.192-2.021-3.643-2.053-7.731c0-0.215,0.003-0.45,0.011-0.693c0.09-2.461,0.849-3.962,2.607-5.172     c1.181-0.8,2.877-1.362,4.785-1.589l3.507-0.049c1.835,0.159,3.583,0.566,4.816,1.128l0.668,0.3l4.927,2.614     c0.334,0.177,0.691,0.261,1.045,0.261c0.801,0,1.576-0.431,1.979-1.188c0.576-1.092,0.162-2.444-0.93-3.023l-0.078-0.042     c0.651-0.072,1.31-0.114,1.955-0.114h0.104c2.68,0,5.133,0.619,6.715,1.684c1.295,0.896,2.512,2.145,2.623,5.208     c0.004,0.237,0.01,0.462,0.01,0.656c-0.035,4.128-0.84,5.579-2.063,7.777L60.634,42c-1.615,2.801-3.338,6.308-3.291,12.479     c0.002,7.078-1.293,10.306-2.061,11.597c-0.498,0.832-0.764,1.16-0.885,1.289c-0.074-0.196-0.176-0.649-0.1-1.536     c0.299-3.446-0.146-7.492-1.225-11.117c-0.486-1.591-1.078-3.293-2.113-4.964C49.687,47.695,47.819,46.566,45.706,46.566z" fill="#3B6A75"/><path d="M16.222,36.401H9.408C13.695,20.194,28.655,8.575,45.532,8.575c17.36,0,32.696,12.297,36.465,29.236     l4.365-0.972C82.14,17.873,64.97,4.104,45.532,4.104c-19.233,0-36.242,13.483-40.688,32.14V25.019H0.372v13.618     c0,1.234,1.001,2.235,2.236,2.235h13.614V36.401z" fill="#3B6A75"/><path d="M88.39,51.07H74.772v4.471h6.878c-4.285,16.203-19.243,27.816-36.117,27.816     c-17.363,0-32.703-12.294-36.473-29.229L4.697,55.1c4.223,18.964,21.396,32.729,40.837,32.729     c19.146,0,36.085-13.36,40.622-31.887v10.984h4.469V53.305C90.624,52.07,89.624,51.07,88.39,51.07z" fill="#3B6A75"/></g></g><path d="M33.988,36.797c-0.146,0-0.297-0.018-0.447-0.051c-1.068-0.246-1.736-1.313-1.49-2.383   c0.502-2.191,1.937-3.85,3.834-4.435c1.045-0.322,2.159,0.265,2.482,1.313c0.324,1.05-0.264,2.161-1.313,2.484   c-0.526,0.162-0.949,0.732-1.131,1.527C35.712,36.174,34.893,36.797,33.988,36.797z" fill="#FFFFFF"/></g></svg>