<?xml version="1.0" ?><!DOCTYPE svg  PUBLIC '-//W3C//DTD SVG 1.1//EN'  'http://www.w3.org/Graphics/SVG/1.1/DTD/svg11.dtd'><svg enable-background="new 0 0 91 91" height="91px" id="Layer_1" version="1.1" viewBox="0 0 91 91" width="91px" xml:space="preserve" xmlns="http://www.w3.org/2000/svg" xmlns:xlink="http://www.w3.org/1999/xlink"><g><g><path d="M34.478,24.658l-3.157,0.068c-3.081,0.351-6.027,1.249-8.271,2.768c-2.936,2.022-4.852,4.843-5.034,9.737    C18.005,37.623,18,37.984,18,38.314c0.054,6.915,1.641,9.408,3.563,12.896c1.982,3.429,4.253,7.815,4.189,15.934    c0,9.421,1.591,14.952,3.334,17.874c1.77,2.942,2.359,3.382,4.286,3.382c2.034,0,2.737-2.055,2.826-3.143    c0.39-3.985-0.292-10.22,1.675-16.874c0.57-1.844,1.262-4.14,2.636-6.223c1.862-2.806,6.887-4.999,9.989,0    c1.317,2.124,2.068,4.379,2.631,6.223c1.51,5.066,1.944,10.365,1.591,14.412c-0.488,5.621,2.806,5.604,2.912,5.604    c1.756,0,2.521-0.439,4.28-3.382c1.741-2.922,3.342-8.453,3.337-17.874c-0.056-8.137,2.217-12.505,4.198-15.937    c1.927-3.487,3.489-5.979,3.56-12.893c0-0.338-0.013-0.698-0.019-1.078c-0.187-4.904-2.101-7.72-5.031-9.75    c-2.953-1.99-7.128-2.926-11.269-2.917" fill="#F4F2E8"/><path d="M57.449,5.397c0,5.059-5.335,9.156-11.919,9.156c-6.58,0-11.917-4.099-11.917-9.156    c0-5.056,5.337-1.72,11.917-1.72C52.114,3.678,57.449,0.342,57.449,5.397z" fill="#F4F2E8"/><g><path d="M75.086,37.605l-0.009-0.448c-0.193-5.104-2.078-8.726-5.954-11.408     c-3.133-2.112-7.524-3.275-12.377-3.275c-0.021,0-0.044,0.002-0.065,0.002c-1.155,0.002-2.092,0.942-2.09,2.099     c0.001,0.576,0.236,1.099,0.616,1.477c-0.782,3.335-4.817,5.888-9.677,5.888c-4.789,0-8.784-2.479-9.646-5.746     c0.43-0.393,0.699-0.956,0.686-1.583c-0.026-1.141-0.957-2.047-2.093-2.047c-0.015,0-0.03,0-0.047,0l-3.156,0.069     c-0.063,0.002-0.127,0.006-0.189,0.013c-3.622,0.41-6.806,1.488-9.223,3.124c-3.862,2.662-5.749,6.278-5.94,11.41     c-0.009,0.408-0.016,0.788-0.016,1.15c0.055,7.093,1.668,10,3.532,13.365l0.312,0.563c2.009,3.472,3.966,7.482,3.909,14.884     c0,10.629,1.973,16.169,3.634,18.955c1.839,3.057,2.972,4.396,6.08,4.396c2.956,0,4.708-2.549,4.909-5.034     c0.124-1.259,0.147-2.707,0.17-4.237c0.057-3.489,0.125-7.83,1.422-12.223l0.037-0.118c0.547-1.771,1.165-3.779,2.343-5.563     c0.688-1.035,2.178-2.069,3.586-2.047c1.104,0.017,2.071,0.688,2.881,1.991c1.144,1.845,1.831,3.845,2.401,5.717     c1.311,4.393,1.877,9.488,1.514,13.634c-0.241,2.782,0.287,4.905,1.575,6.311c1.334,1.456,2.954,1.57,3.422,1.57     c2.946,0,4.256-1.358,6.075-4.407c1.658-2.783,3.638-8.331,3.632-18.96c-0.052-7.377,1.906-11.395,3.939-14.91l0.26-0.471     c1.871-3.371,3.488-6.284,3.557-13.435C75.095,38.086,75.091,37.851,75.086,37.605z M67.878,49.715l-0.244,0.443     c-2.197,3.806-4.539,8.571-4.479,16.984c0.003,10.172-1.905,14.893-3.04,16.797c-1.415,2.366-1.662,2.366-2.44,2.366     c-0.554-0.052-1.062-1.117-0.867-3.331c0.409-4.711-0.199-10.248-1.677-15.203c-0.655-2.156-1.457-4.466-2.854-6.719     c-1.565-2.52-3.828-3.931-6.373-3.969c-3.067-0.037-5.822,1.932-7.143,3.921c-1.511,2.289-2.255,4.704-2.854,6.643l-0.044,0.142     c-1.467,4.964-1.541,9.622-1.601,13.366c-0.022,1.506-0.045,2.806-0.151,3.93c-0.002,0.013-0.146,1.221-0.74,1.221     c-0.986,0-1.068,0-2.487-2.361c-1.135-1.903-3.04-6.618-3.04-16.786c0.067-8.437-2.271-13.196-4.448-16.959l-0.294-0.535     c-1.721-3.102-2.963-5.339-3.011-11.352c0-0.313,0.009-0.657,0.018-1.004c0.139-3.774,1.375-6.193,4.115-8.083     c1.824-1.233,4.326-2.066,7.239-2.41l0.278-0.006c1.146,5.284,6.885,9.317,13.79,9.317c6.907,0,12.646-4.036,13.791-9.322     c2.945,0.311,5.578,1.146,7.441,2.401c2.754,1.907,3.987,4.331,4.131,8.06l0.009,0.429c0.005,0.214,0.009,0.421,0.009,0.599     C70.851,44.36,69.603,46.605,67.878,49.715z" fill="#3B6A75"/><path d="M43.409,16.504v6.529l-2.497-2.497l-2.961,2.961l6.069,6.071c0.393,0.391,0.924,0.612,1.481,0.612     c0.554,0,1.087-0.221,1.481-0.612l6.067-6.071l-2.961-2.961l-2.495,2.497v-6.522c6.749-0.805,11.947-5.474,11.945-11.114     c0-3.108-1.727-4.893-4.739-4.893c-1.128,0-2.359,0.215-3.788,0.463c-1.66,0.289-3.542,0.617-5.483,0.617     s-3.822-0.327-5.481-0.617c-1.428-0.248-2.66-0.463-3.789-0.463c-3.011,0-4.74,1.784-4.74,4.893     C31.519,11.021,36.688,15.68,43.409,16.504z M35.771,4.73c0.087-0.018,0.241-0.038,0.49-0.038c0.766,0,1.835,0.186,3.07,0.401     c1.734,0.301,3.896,0.678,6.2,0.678c2.304,0,4.467-0.377,6.202-0.678c1.235-0.215,2.305-0.401,3.069-0.401     c0.249,0,0.401,0.021,0.486,0.038c0.029,0.104,0.065,0.311,0.065,0.667c0,3.895-4.406,7.064-9.824,7.064     c-5.416,0-9.824-3.17-9.824-7.064C35.706,5.041,35.746,4.835,35.771,4.73z" fill="#3B6A75"/></g></g><path d="M27.163,44.551c-0.885,0-1.705-0.563-1.992-1.449c-1.367-4.217,0.104-8.58,3.653-10.859   c0.976-0.623,2.269-0.341,2.893,0.631c0.625,0.974,0.343,2.27-0.631,2.894c-1.927,1.236-2.703,3.666-1.932,6.045   c0.356,1.101-0.246,2.28-1.348,2.638C27.593,44.519,27.375,44.551,27.163,44.551z" fill="#FFFFFF"/></g></svg>