<?xml version="1.0" ?><!DOCTYPE svg  PUBLIC '-//W3C//DTD SVG 1.1//EN'  'http://www.w3.org/Graphics/SVG/1.1/DTD/svg11.dtd'><svg enable-background="new 0 0 91 91" height="91px" id="Layer_1" version="1.1" viewBox="0 0 91 91" width="91px" xml:space="preserve" xmlns="http://www.w3.org/2000/svg" xmlns:xlink="http://www.w3.org/1999/xlink"><g><polygon fill="#9AE0FF" points="55.883,78.931 45.521,88.022 35.182,78.931 35.182,46.563 55.883,46.563  "/><g><rect fill="#FFFFFF" height="7.888" width="30.231" x="30.417" y="38.674"/><path d="M71.669,15.623c-0.173-4.655-1.997-7.343-4.791-9.27c-2.809-1.896-6.777-2.785-10.718-2.776    c-3.646-0.009-7.244,0.756-9.667,1.854l-0.973,0.436L44.549,5.43c-1.95-0.889-4.668-1.54-7.547-1.766l-4.979,0.062    c-2.938,0.336-5.736,1.188-7.867,2.628c-2.792,1.927-4.617,4.618-4.784,9.27c0,0.367-0.037,5.504,4.189,14.886    c2.102,4.664,3.175,8.165,3.175,8.165h37.565c0,0,1.414-4.344,3.143-8.088c2.247-4.877,3.932-9.458,4.245-13.928    C71.713,16.327,71.674,15.987,71.669,15.623z" fill="#F4F2E8"/><rect fill="#3B6A75" height="4.506" transform="matrix(-0.9761 -0.2175 0.2175 -0.9761 78.1018 118.4083)" width="30.974" x="30.08" y="52.653"/><g><polygon fill="#3B6A75" points="58.135,63.028 53.631,63.028 53.631,66.411 37.435,62.8 37.435,58.415 32.929,58.415      32.929,61.8 30.853,61.337 29.872,65.733 60.102,72.474 61.082,68.077 58.135,67.42    "/><path d="M53.631,76.677H37.435v-6.248h-4.506v10.752h1.403l9.717,8.533c0.425,0.375,0.955,0.561,1.486,0.561     c0.53,0,1.062-0.186,1.485-0.561l9.713-8.533h1.401V75.04h-4.504V76.677z M45.535,85.022l-4.374-3.84h8.745L45.535,85.022z" fill="#3B6A75"/><path d="M73.933,15.906c-0.005-0.101-0.011-0.203-0.013-0.368c-0.183-4.944-2.014-8.451-5.781-11.052     c-3.022-2.039-7.258-3.162-11.928-3.162h-0.105c-3.761,0-7.702,0.769-10.534,2.052l-0.051,0.021l-0.037-0.016     c-2.24-1.021-5.188-1.717-8.304-1.962l-0.104-0.009l-5.082,0.063l-0.228,0.015c-3.49,0.399-6.559,1.436-8.892,3.012     c-3.748,2.587-5.578,6.096-5.757,11.13c-0.001,1.42,0.313,6.757,4.39,15.805c2.011,4.462,3.063,7.865,3.074,7.9l0.489,1.591     h3.093v7.887h4.765v5.582l25.206,5.615h0.001V48.813H62.9v-7.887h1.4h1.636l0.507-1.555c0.014-0.043,1.396-4.268,3.046-7.845     c1.992-4.323,4.078-9.452,4.445-14.7C73.956,16.527,73.948,16.222,73.933,15.906z M53.631,54.392l-16.196-3.609v-1.969h16.196     V54.392z M58.396,44.31h-0.26H32.929H32.67h-0.001v-3.384h25.727V44.31z M65.398,29.641c-1.137,2.464-2.131,5.141-2.708,6.78     H28.358c-0.526-1.502-1.441-3.947-2.744-6.836c-3.882-8.618-3.991-13.431-3.992-13.882c0.126-3.495,1.267-5.736,3.794-7.481     c1.693-1.144,4.025-1.918,6.751-2.243l4.759-0.059c2.53,0.208,4.966,0.775,6.7,1.566l0.925,0.415l9.684,5.097     c0.335,0.177,0.692,0.26,1.047,0.26c0.81,0,1.593-0.438,1.995-1.204c0.58-1.101,0.158-2.463-0.944-3.042l-5.112-2.69     c1.565-0.314,3.254-0.493,4.885-0.493h0.105c3.727,0,7.155,0.872,9.388,2.38c2.547,1.756,3.688,3.999,3.817,7.438     c0.001,0.164,0.01,0.322,0.017,0.479c0.006,0.126,0.019,0.245,0.008,0.377C69.188,20.109,67.979,24.038,65.398,29.641z" fill="#3B6A75"/></g></g><path d="M30.508,23.749c-0.662,0-1.311-0.33-1.691-0.931c-1.264-1.989-1.355-4.731-0.244-7.335   c1.215-2.846,3.525-4.863,6.179-5.397c1.091-0.219,2.142,0.485,2.358,1.568c0.218,1.084-0.484,2.141-1.569,2.358   c-1.34,0.269-2.598,1.436-3.284,3.044c-0.584,1.366-0.605,2.752-0.058,3.616c0.593,0.934,0.316,2.17-0.617,2.764   C31.247,23.647,30.876,23.749,30.508,23.749z" fill="#FFFFFF"/></g></svg>