<?xml version="1.0" ?><!DOCTYPE svg  PUBLIC '-//W3C//DTD SVG 1.1//EN'  'http://www.w3.org/Graphics/SVG/1.1/DTD/svg11.dtd'><svg enable-background="new 0 0 91 91" height="91px" id="Layer_1" version="1.1" viewBox="0 0 91 91" width="91px" xml:space="preserve" xmlns="http://www.w3.org/2000/svg" xmlns:xlink="http://www.w3.org/1999/xlink"><g><g><path d="M86.383,38.708l-2.733-11.715c-0.175-0.378-1.068-2.055-3.172-1.527c-0.719,0.18-1.214,0.497-1.476,0.944    c-0.393,0.673-0.192,1.492-0.19,1.501l0.027,0.159l1.695,16.634l-2.79,8.579l-2.14,7.838l-1.856-0.504l2.146-7.875l0.005-0.01    l1.331-4.885c0.025-0.326,0.099-2.107-1.502-2.973c-1.477-0.796-2.99,0.362-3.4,0.72l-7.24,14.359v26.584h14.094v-8.609    l7.24-18.994C86.426,58.908,89.035,50.086,86.383,38.708z" fill="#F6DABB"/><path d="M19.562,45.593c-0.409-0.354-1.927-1.516-3.404-0.72c-1.592,0.864-1.53,2.63-1.503,2.972l3.482,12.77    l-1.858,0.504l-2.137-7.83l-2.792-8.585l1.724-16.793c0,0,0.205-0.835-0.199-1.514c-0.263-0.44-0.756-0.754-1.466-0.932    c-2.118-0.525-3.015,1.18-3.171,1.527L5.504,38.708C2.851,50.086,5.462,58.908,5.488,58.994l7.215,18.934v8.609H26.8V59.953    L19.562,45.593z" fill="#F6DABB"/></g><path d="M64.498,15.386c-0.124-3.39-1.45-5.336-3.478-6.737c-2.042-1.378-4.926-2.024-7.789-2.02   c-2.653-0.005-5.262,0.552-7.022,1.349L45.494,8.29l-0.703-0.312c-1.413-0.646-3.383-1.117-5.479-1.287l-3.614,0.048   c-2.133,0.24-4.169,0.861-5.715,1.913c-2.034,1.397-3.356,3.35-3.483,6.73c-0.006,0.273-0.01,0.521-0.01,0.75   c0.038,4.779,1.133,6.502,2.462,8.916c1.373,2.367,2.94,5.399,2.9,11.012c-0.005,6.511,1.098,10.336,2.302,12.354   c1.221,2.035,1.631,2.338,2.962,2.338c1.405,0,1.892-1.42,1.954-2.17c0.27-2.754-0.201-7.064,1.158-11.665   c0.391-1.273,0.868-2.862,1.821-4.304c1.287-1.938,4.759-3.455,6.906,0c0.908,1.47,1.427,3.03,1.815,4.304   c1.043,3.503,1.344,7.163,1.102,9.961c-0.341,3.889,1.938,3.873,2.01,3.873c1.217,0,1.745-0.303,2.962-2.338   c1.204-2.018,2.309-5.843,2.308-12.354c-0.043-5.623,1.529-8.645,2.899-11.018c1.33-2.41,2.415-4.13,2.46-8.91   C64.511,15.899,64.503,15.651,64.498,15.386z" fill="#F4F2E8"/><g><path d="M88.988,38l-2.752-11.8l-0.099-0.314c-0.65-1.627-2.921-4.44-6.862-3.455    c-1.952,0.487-2.938,1.575-3.42,2.404c-0.344,0.589-0.522,1.183-0.606,1.728c-0.629-0.057-1.276-0.015-1.919,0.169    c-2.783,0.794-4.406,3.71-3.616,6.505l2.459,8.601c-1.105,0.401-2.022,1.055-2.596,1.622l-0.253,0.249l-7.813,15.5v27.33h4.331    V60.238l6.995-13.869c0.392-0.295,1.206-0.793,1.87-0.436c0.851,0.459,0.896,1.381,0.885,1.708l-3.448,12.66l4.183,1.139    l2.122-7.79l2.868-8.814l-1.722-16.889l-0.065-0.356c-0.002-0.001-0.047-0.372,0.069-0.572c0.086-0.15,0.354-0.29,0.727-0.384    c0.979-0.245,1.486,0.269,1.739,0.757l2.7,11.592c2.465,10.558,0.269,18.845,0.057,19.603l-7.289,19.119v8.832h4.334h0.001v-8.031    l7.036-18.457l0.048-0.137C89.069,59.52,91.839,50.221,88.988,38z M74.521,30.899c0.428-0.128,0.866,0.089,1.065,0.475    l1.05,10.308l-2.753-9.631C73.744,31.555,74.031,31.039,74.521,30.899z" fill="#3B6A75"/><path d="M21.671,43.708l-0.254-0.251c-0.574-0.565-1.491-1.217-2.595-1.618l2.459-8.606    c0.795-2.791-0.829-5.708-3.615-6.502c-0.642-0.184-1.289-0.226-1.918-0.169c-0.084-0.545-0.262-1.14-0.606-1.73    c-0.483-0.827-1.469-1.914-3.416-2.402c-3.945-0.987-6.215,1.828-6.864,3.455L2.011,37.999C-0.839,50.219,1.93,59.52,2.05,59.91    l7.078,18.594v8.033h4.335v-8.832L6.179,58.584c-0.217-0.775-2.405-9.059,0.055-19.603l2.706-11.605    c0.174-0.35,0.659-1.011,1.732-0.743c0.521,0.129,0.939,0.295,0.796,0.958l-0.275,2.661c-0.01,0.032-0.027,0.059-0.036,0.091    l0.026,0.007L9.685,44.834l2.885,8.873l0.005-0.002l2.097,7.732l4.184-1.139l-2.163-7.932h0.001l-0.005-0.016l-1.282-4.701    c-0.013-0.361,0.047-1.264,0.881-1.717c0.667-0.357,1.489,0.147,1.873,0.434l6.994,13.871v26.299h4.333v-27.33L21.671,43.708z     M16.476,30.899c0.491,0.14,0.777,0.654,0.638,1.146l-2.75,9.619l1.047-10.295C15.611,30.988,16.042,30.777,16.476,30.899z" fill="#3B6A75"/><path d="M64.139,25.748c1.28-2.312,2.493-4.496,2.541-9.615c0-0.214-0.007-0.438-0.013-0.674l-0.003-0.151    c-0.137-3.723-1.579-6.485-4.433-8.455c-2.282-1.54-5.466-2.389-9.039-2.389c-2.727,0-5.594,0.546-7.692,1.459    c-1.647-0.719-3.772-1.21-6.017-1.393c-0.066-0.004-0.135-0.005-0.203-0.005l-3.613,0.048c-0.069,0-0.143,0.005-0.215,0.013    c-2.622,0.295-4.935,1.082-6.698,2.28c-2.835,1.948-4.28,4.707-4.423,8.47c-0.006,0.29-0.01,0.552-0.01,0.814    c0.041,5.083,1.25,7.266,2.53,9.58l0.225,0.403c1.339,2.31,2.644,4.978,2.608,9.924c-0.004,7.51,1.416,11.468,2.611,13.472    c1.263,2.107,2.22,3.391,4.819,3.391c2.474,0,3.942-2.092,4.111-4.125c0.088-0.904,0.102-1.918,0.12-2.992    c0.039-2.488,0.084-5.313,0.971-8.306c0.361-1.185,0.772-2.528,1.536-3.684c0.358-0.537,1.146-1.094,1.849-1.094    c0.19,0,0.768,0,1.409,1.032c0.746,1.206,1.202,2.538,1.582,3.786c0.878,2.949,1.261,6.372,1.021,9.153    c-0.188,2.133,0.24,3.783,1.272,4.91c1.122,1.223,2.498,1.318,2.894,1.318h0.002c2.361,0,3.475-1.143,4.824-3.393    c1.192-2.002,2.614-5.961,2.612-13.485c-0.036-4.921,1.214-7.497,2.632-9.953L64.139,25.748z M53.88,50.752v-2.166    c0.002,0,0.002,0,0.002,0L53.88,50.752z M60.349,23.648l-0.173,0.311c-1.566,2.715-3.236,6.112-3.19,12.104    c0.002,6.859-1.253,9.989-2.001,11.241c-0.482,0.809-0.737,1.127-0.857,1.25c-0.069-0.191-0.17-0.629-0.094-1.486    c0.29-3.345-0.144-7.271-1.188-10.778c-0.469-1.54-1.041-3.188-2.048-4.818c-1.237-1.988-3.045-3.084-5.095-3.084    c-2.092,0-4.236,1.188-5.462,3.032c-1.112,1.684-1.664,3.491-2.091,4.884c-1.043,3.527-1.096,6.802-1.139,9.434    c-0.015,1.026-0.029,1.911-0.103,2.67c-0.004,0.051-0.019,0.113-0.039,0.174c0,0-0.002,0-0.004,0    c-0.118-0.131-0.362-0.461-0.852-1.277c-0.745-1.254-1.999-4.379-1.995-11.228c0.043-6.023-1.625-9.412-3.169-12.073l-0.206-0.371    c-1.177-2.127-1.955-3.534-1.986-7.499c0-0.213,0.004-0.443,0.008-0.668c0.09-2.389,0.827-3.845,2.536-5.019    c1.137-0.773,2.78-1.318,4.635-1.54l3.399-0.044c1.778,0.152,3.472,0.549,4.678,1.099l0.64,0.284l4.775,2.537    c0.324,0.171,0.67,0.253,1.014,0.253c0.775,0,1.527-0.417,1.917-1.15c0.562-1.059,0.159-2.369-0.896-2.931l-0.075-0.04    c0.653-0.072,1.32-0.114,1.981-0.114c2.604,0,4.988,0.601,6.521,1.634c1.256,0.868,2.434,2.079,2.541,5.009l0.003,0.127    c0.006,0.197,0.012,0.386,0.012,0.545C62.308,20.112,61.528,21.516,60.349,23.648z" fill="#3B6A75"/></g><path d="M34.688,23.251c-0.914,0-1.765-0.582-2.063-1.498c-1.418-4.367,0.102-8.886,3.778-11.244   c1.007-0.646,2.35-0.353,2.995,0.655s0.353,2.349-0.655,2.993c-1.994,1.278-2.796,3.793-1.996,6.256   c0.369,1.138-0.253,2.36-1.393,2.731C35.135,23.218,34.91,23.251,34.688,23.251z" fill="#FFFFFF"/></g></svg>