<?xml version="1.0" ?><!DOCTYPE svg  PUBLIC '-//W3C//DTD SVG 1.1//EN'  'http://www.w3.org/Graphics/SVG/1.1/DTD/svg11.dtd'><svg enable-background="new 0 0 91 91" height="91px" id="Layer_1" version="1.1" viewBox="0 0 91 91" width="91px" xml:space="preserve" xmlns="http://www.w3.org/2000/svg" xmlns:xlink="http://www.w3.org/1999/xlink"><g><path d="M8.179,88.304c-2.313-0.537-3.747-2.849-3.207-5.16l8.806-35.208c0.204-0.882,0.684-1.674,1.368-2.271   l10.019-8.688l6.388-27.333c0.534-2.309,2.849-3.747,5.155-3.203c2.317,0.536,3.748,2.85,3.211,5.158l-6.705,28.687   c-0.204,0.883-0.682,1.674-1.369,2.27L21.83,51.242l-8.489,33.855C12.798,87.41,10.488,88.846,8.179,88.304z" fill="#F4F2E8"/><path d="M77.144,75.65v7.094c0,3.145-2.577,5.714-5.716,5.714H52.887V75.65H77.144z" fill="#68C1E0"/><g><path d="M5.887,3.811c4.783,1.112,3.901,5.554,3.901,5.554S7.754,18.089,6.07,25.261    c-1.674,7.174,3.812,6.957,3.812,6.957c4.387-0.549,4.982-5.138,4.981-5.138l4.261-18.209C17.23-1.261,5.887,3.811,5.887,3.811z" fill="#9AE0FF"/><polygon fill="#9AE0FF" points="44.167,2.965 52.889,75.65 77.144,75.65 85.864,2.965   "/></g><ellipse cx="65.015" cy="38.424" fill="#FFFFFF" rx="10.347" ry="10.353"/><g><path d="M37.214,4.298c-0.49-0.116-0.99-0.175-1.491-0.175c-1.779,0-3.395,0.724-4.576,1.907l-8.19-1.912    l-1.001,4.288l7.228,1.687L28.972,11l-7.167-1.678l-1.005,4.29l7.169,1.679l-0.202,0.864l-7.166-1.674L19.6,18.769l7.166,1.674    l-0.212,0.91l-7.214-1.688l-1.004,4.29l7.215,1.688l-0.194,0.833l-7.194-1.683l-1.003,4.289l7.195,1.683l-0.227,0.972    l-7.197-1.678l-1,4.289l7.019,1.636l-9.25,8.021c-1.04,0.907-1.753,2.094-2.057,3.396L2.828,82.643    c-0.397,1.692-0.107,3.437,0.81,4.912c0.915,1.476,2.353,2.501,4.036,2.894c0.49,0.114,0.991,0.172,1.488,0.172    c3.029,0,5.629-2.063,6.313-4.984l8.32-33.184l9.488-8.229c1.048-0.905,1.765-2.096,2.073-3.435l6.703-28.688    c0.396-1.695,0.107-3.439-0.813-4.915C40.332,5.714,38.896,4.688,37.214,4.298z M37.773,11.098l-6.707,28.693    c-0.1,0.43-0.328,0.81-0.666,1.102L20.387,49.58c-0.342,0.295-0.584,0.689-0.695,1.128l-8.496,33.888    c-0.262,1.112-1.361,1.835-2.521,1.563c-0.542-0.125-1.004-0.455-1.298-0.93c-0.298-0.476-0.39-1.038-0.27-1.55l8.814-35.242    c0.099-0.432,0.332-0.816,0.666-1.107l10.018-8.688c0.352-0.305,0.595-0.711,0.702-1.163l6.39-27.337    c0.215-0.936,1.067-1.612,2.024-1.612c0.161,0,0.322,0.021,0.489,0.058c0.543,0.126,1.005,0.456,1.3,0.93    C37.807,9.991,37.898,10.554,37.773,11.098z" fill="#3B6A75"/><path d="M3.926,24.762c-0.731,3.134-0.394,5.615,1.004,7.376c1.684,2.119,4.177,2.284,4.902,2.284    c0.029,0,0.108,0,0.137-0.003c0.063-0.002,0.126-0.007,0.188-0.015c4.72-0.59,6.542-4.713,6.875-6.918L21.27,9.374    c0.069-0.299,0.075-0.605,0.02-0.905c-0.979-5.242-4.349-8.128-9.487-8.128c-3.505,0-6.68,1.4-6.813,1.461    c-0.862,0.385-1.385,1.28-1.294,2.222c0.091,0.94,0.773,1.719,1.694,1.933C7.652,6.484,7.771,8.03,7.628,8.931    C7.44,9.737,5.525,17.948,3.926,24.762z M8.216,25.765c1.683-7.172,3.717-15.899,3.733-15.971    c0.283-1.429,0.101-3.361-0.936-5.017c0.261-0.021,0.523-0.034,0.789-0.033c2.84,0,4.418,1.27,5.066,4.101L12.72,26.579    c-0.019,0.072-0.03,0.146-0.04,0.218c-0.004,0.028-0.393,2.804-2.932,3.219c-0.243-0.018-0.967-0.111-1.367-0.616    C7.877,28.764,7.817,27.473,8.216,25.765z" fill="#3B6A75"/><path d="M88.346,0.764H41.685l9.001,75.006V90.66h20.742c4.365,0,7.919-3.552,7.919-7.917v-6.958L88.346,0.764z     M83.381,5.167l-8.189,68.281H54.843L47.594,13.04h29.549V8.637H47.065l-0.416-3.47H83.381z M74.943,82.744    c0,1.938-1.578,3.513-3.516,3.513H55.09v-8.403h19.854V82.744z" fill="#3B6A75"/></g></g></svg>