<?xml version="1.0" ?><!DOCTYPE svg  PUBLIC '-//W3C//DTD SVG 1.1//EN'  'http://www.w3.org/Graphics/SVG/1.1/DTD/svg11.dtd'><svg enable-background="new 0 0 91 91" height="91px" id="Layer_1" version="1.1" viewBox="0 0 91 91" width="91px" xml:space="preserve" xmlns="http://www.w3.org/2000/svg" xmlns:xlink="http://www.w3.org/1999/xlink"><g><g><g><path d="M21.542,44.484c2.205-0.679,2.781-1.805,5.104-0.943c2.051,0.76,1.793,3.831,4.738,3.676     c3.214-0.168,1.786-2.507,3.404-3.797c2.55-2.033,1.402-0.988,4.056-0.816c4.064,0.263,7.064,2.069,8.747-3.87     c2.227,3.467,2.567,7.333,8.35,6.665c0.566,3.006,1.686,5.543,4.806,5.612h1.066c1.438-2.678,2.511-5.284,2.562-10.885     c0-0.331-0.01-0.673-0.017-1.046c-0.178-4.758-2.031-7.485-4.878-9.45c-2.859-1.932-6.909-2.84-10.923-2.83     c-3.718-0.01-7.383,0.771-9.854,1.888l-0.995,0.44l-0.989-0.44c-1.976-0.902-4.745-1.566-7.689-1.806l-5.065,0.072     c-2.993,0.336-5.846,1.209-8.017,2.68c-2.85,1.961-4.704,4.699-4.881,9.441c-0.014,0.383-0.016,0.729-0.016,1.052     c0.008,0.774,0.035,1.484,0.079,2.152l0.365,0.207C14.219,46.989,17.585,45.703,21.542,44.484z" fill="#F6DABB"/><path d="M62.066,51.436h-1.321c-3.479-0.078-4.604-2.942-5.147-5.576c-0.313,0.025-0.612,0.04-0.898,0.04     c-3.809,0-4.996-2.313-6.257-4.763c-0.232-0.453-0.47-0.916-0.73-1.375c-0.926,2.635-2.271,3.729-4.491,3.729     c-0.724,0-1.494-0.108-2.311-0.224c-0.671-0.095-1.364-0.191-2.093-0.238c-0.934-0.062-1.434-0.227-1.765-0.335     c-0.148-0.05-0.257-0.085-0.33-0.085c-0.211,0-0.693,0.366-1.669,1.145c-0.519,0.413-0.663,0.974-0.812,1.566     c-0.262,1.033-0.563,2.203-2.837,2.322c-1.962,0.098-2.705-1.079-3.355-2.113c-0.427-0.68-0.83-1.321-1.552-1.59     c-1.341-0.495-2.086-0.235-3.124,0.259c-0.474,0.225-1.009,0.479-1.707,0.693l-0.509,0.157c-1.683,0.521-3.271,1.016-4.777,1.016     l0,0c-2.167-0.001-3.819-1.039-5.195-3.265l-0.469-0.266L10.7,42.305c-0.045-0.718-0.072-1.43-0.078-2.177     c0-0.33,0.001-0.681,0.016-1.069c0.163-4.403,1.772-7.51,5.064-9.776c2.123-1.437,4.961-2.388,8.212-2.751l5.106-0.076     c2.977,0.241,5.831,0.913,7.872,1.844l0.813,0.363l0.822-0.365c2.668-1.203,6.391-1.923,9.957-1.923h0.135     c4.321,0,8.364,1.058,11.096,2.903c3.337,2.303,4.899,5.319,5.065,9.785l0.006,0.324c0.006,0.256,0.01,0.5,0.01,0.738     c-0.052,5.849-1.214,8.481-2.611,11.086L62.066,51.436z M56.283,44.93l0.074,0.39c0.688,3.638,2.003,5.213,4.396,5.267h0.802     c1.29-2.434,2.343-4.979,2.392-10.464c0-0.228-0.005-0.466-0.01-0.716l-0.008-0.319c-0.153-4.162-1.602-6.974-4.692-9.105     c-2.591-1.75-6.461-2.755-10.616-2.755h-0.135c-3.451,0-7.045,0.69-9.609,1.848l-1.17,0.521l-1.164-0.52     c-1.957-0.894-4.708-1.538-7.549-1.77l-5.026,0.073c-3.073,0.348-5.778,1.249-7.785,2.607c-3.089,2.128-4.539,4.937-4.692,9.104     c-0.014,0.377-0.016,0.717-0.016,1.036c0.006,0.647,0.026,1.271,0.063,1.896L11.8,42.17l0.058,0.095     c1.232,2.039,2.629,2.949,4.524,2.949l0,0c1.376,0,2.905-0.474,4.524-0.977l0.512-0.158c0.638-0.196,1.145-0.438,1.591-0.649     c0.704-0.335,1.314-0.625,2.134-0.625c0.497,0,1.037,0.11,1.65,0.337c0.993,0.368,1.516,1.2,1.979,1.935     c0.605,0.967,1.126,1.791,2.591,1.717c1.648-0.086,1.811-0.721,2.056-1.683c0.171-0.67,0.364-1.432,1.106-2.021     c1.268-1.01,1.691-1.33,2.198-1.33c0.211,0,0.389,0.06,0.598,0.127c0.307,0.103,0.728,0.24,1.552,0.293     c0.76,0.051,1.471,0.149,2.158,0.247c2.782,0.394,4.837,0.842,6.151-3.808l0.258-0.908l0.509,0.794     c0.482,0.751,0.872,1.51,1.251,2.245c1.234,2.402,2.212,4.3,5.5,4.3c0.37,0,0.771-0.024,1.191-0.072L56.283,44.93z" fill="#3B6A75"/></g><path d="M60.745,51.011c-3.12-0.069-4.238-2.605-4.806-5.612c-5.781,0.668-6.123-3.197-8.35-6.665    c-1.683,5.939-4.683,4.133-8.747,3.87c-2.652-0.172-1.506-1.217-4.056,0.816c-1.618,1.29-0.19,3.629-3.404,3.797    c-2.945,0.155-2.688-2.917-4.738-3.676c-2.322-0.861-2.897,0.266-5.104,0.943c-3.957,1.218-7.323,2.504-10.049-2l-0.365-0.207    c0.334,5.113,1.725,7.355,3.375,10.348c1.921,3.327,4.12,7.578,4.063,15.447c0,9.138,1.543,14.499,3.229,17.33    c1.717,2.853,2.292,3.279,4.157,3.279c1.974,0,2.655-1.994,2.742-3.045c0.375-3.865-0.287-9.911,1.62-16.359    c0.55-1.79,1.223-4.018,2.56-6.035c1.8-2.716,6.677-4.847,9.683,0c1.276,2.061,2.01,4.246,2.549,6.035    c1.466,4.911,1.887,10.048,1.547,13.97c-0.479,5.451,2.718,5.435,2.821,5.435c1.703,0,2.444-0.427,4.147-3.279    c1.688-2.832,3.236-8.192,3.236-17.33c-0.056-7.886,2.15-12.12,4.07-15.452c0.309-0.555,0.604-1.084,0.885-1.609H60.745    L60.745,51.011z" fill="#F4F2E8"/></g><g><path d="M42.189,13.78V7.404c0-2.812-2.274-5.085-5.083-5.085c-2.811,0-5.087,2.273-5.087,5.085v6.376H42.189z" fill="#9AE0FF"/><polygon fill="#68C1E0" points="64.838,9.766 42.189,7.57 42.189,11.533 64.838,19.072   "/><rect fill="#9AE0FF" height="9.31" width="15.114" x="64.836" y="9.764"/><g><path d="M66.271,39.007c-0.184-4.914-1.995-8.395-5.72-10.963c-3.015-2.037-7.25-3.159-11.929-3.159h-0.135     c-3.769,0-7.719,0.77-10.563,2.053l-0.216,0.096l-0.197-0.088c-2.224-1.016-5.183-1.716-8.329-1.973     c-0.06-0.004-0.121-0.006-0.183-0.005l-5.065,0.072c-0.062,0.001-0.123,0.005-0.186,0.011c-3.489,0.393-6.558,1.429-8.89,3.006     c-3.711,2.557-5.524,6.034-5.708,10.952c-0.014,0.406-0.016,0.773-0.016,1.131c0.053,6.85,1.61,9.655,3.411,12.904l0.297,0.537     c1.955,3.387,3.859,7.294,3.808,14.491c0,10.275,1.901,15.628,3.503,18.315c1.759,2.926,2.838,4.206,5.796,4.206     c2.791,0,4.45-2.414,4.646-4.771c0.119-1.216,0.142-2.614,0.163-4.094c0.053-3.392,0.117-7.611,1.402-11.951     c0.533-1.742,1.137-3.714,2.306-5.479c0.669-1.011,2.098-2.034,3.528-2.034c1.128,0,2.117,0.669,2.932,1.984     c1.131,1.826,1.795,3.761,2.344,5.575c1.271,4.26,1.822,9.218,1.474,13.256c-0.234,2.663,0.269,4.691,1.493,6.029     c1.263,1.378,2.794,1.484,3.234,1.484c2.802,0,4.051-1.299,5.793-4.212c1.601-2.683,3.508-8.038,3.507-18.323     c-0.056-7.763,2.272-11.808,3.833-14.513l0.255-0.461c1.804-3.253,3.364-6.063,3.43-12.959c0-0.249-0.006-0.503-0.012-0.77     L66.271,39.007z M12.977,39.145c0.139-3.7,1.35-6.074,4.041-7.928c1.787-1.21,4.229-2.022,7.067-2.352l4.874-0.069     c2.645,0.222,5.177,0.817,6.977,1.637l0.925,0.413l6.749,3.577c0.286,0.151,0.592,0.224,0.896,0.224     c0.684,0,1.347-0.369,1.692-1.018c0.493-0.934,0.139-2.092-0.795-2.587l-2.999-1.59c1.895-0.469,4.037-0.74,6.081-0.74h0.135     c3.866,0,7.432,0.912,9.771,2.492c2.702,1.865,3.914,4.241,4.053,7.908l0.007,0.322c0.004,0.239,0.009,0.469,0.009,0.673     c-0.042,4.461-0.745,6.801-1.811,8.983c-1.075-0.055-2.16-0.509-2.829-4.05c-0.188-0.986-1.103-1.655-2.101-1.545     c-3.242,0.371-3.854-0.818-5.197-3.43c-0.393-0.767-0.801-1.558-1.32-2.368c-0.409-0.634-1.148-0.968-1.893-0.859     c-0.744,0.111-1.356,0.647-1.562,1.372c-0.918,3.246-1.61,3.15-4.512,2.739c-0.682-0.095-1.453-0.204-2.27-0.257     c-0.636-0.041-0.926-0.138-1.182-0.222c-1.677-0.556-2.464,0.076-4.189,1.451c-1.134,0.903-1.427,2.055-1.621,2.818     c-0.041,0.159-0.095,0.366-0.137,0.482c-0.082,0.026-0.251,0.065-0.556,0.082c-0.523,0.027-0.616-0.009-1.252-1.021     c-0.53-0.841-1.253-1.994-2.722-2.537c-2.376-0.883-3.737-0.234-4.939,0.338c-0.44,0.209-0.856,0.406-1.392,0.57l-0.513,0.159     c-3.914,1.218-5.574,1.593-7.336-1.32c-0.04-0.066-0.09-0.122-0.137-0.182c-0.015-0.38-0.025-0.772-0.028-1.188     C12.963,39.822,12.965,39.499,12.977,39.145z M54.943,68.071c0.001,9.896-1.859,14.492-2.965,16.349     c-1.39,2.325-1.654,2.346-2.481,2.347c-0.062-0.008-0.272-0.047-0.464-0.275c-0.204-0.241-0.658-1.023-0.477-3.081     c0.394-4.563-0.196-9.914-1.623-14.688c-0.593-1.97-1.386-4.282-2.752-6.491c-1.519-2.447-3.717-3.795-6.187-3.795     c-2.926,0-5.482,1.882-6.718,3.747c-1.476,2.227-2.195,4.58-2.799,6.549c-1.422,4.801-1.489,9.312-1.545,12.936     c-0.022,1.461-0.043,2.722-0.146,3.81c-0.002,0.013-0.15,1.289-0.836,1.289c-0.998,0-1.104,0-2.513-2.345     c-1.105-1.855-2.96-6.449-2.96-16.337c0.06-8.142-2.198-12.743-4.3-16.384l-0.283-0.514c-0.767-1.381-1.433-2.589-1.938-4.051     c2.545,0.909,5.277,0.067,7.641-0.667l0.505-0.155c0.802-0.246,1.414-0.538,1.908-0.772c0.935-0.445,1.103-0.525,1.969-0.207     c0.231,0.085,0.46,0.429,0.809,0.985c0.694,1.106,1.869,2.966,4.694,2.808c3.37-0.175,3.93-2.381,4.2-3.44     c0.127-0.503,0.188-0.685,0.297-0.771c0.228-0.182,0.625-0.498,0.914-0.711c0.391,0.117,0.965,0.253,1.826,0.309     c0.672,0.043,1.338,0.138,1.979,0.229c2.298,0.324,5.015,0.706,7.005-1.813c1.196,2.163,2.879,4.352,6.723,4.454     c0.521,1.849,1.651,4.334,4.315,5.215C56.791,56.136,54.891,60.63,54.943,68.071z" fill="#3B6A75"/><path d="M79.95,7.851H64.902L43.915,5.815c-0.723-3.096-3.5-5.41-6.809-5.41c-3.86,0-7.001,3.139-7.001,6.998     v8.29h5.087v3.278h-4.113v3.826h12.049v-3.826h-4.11v-3.278h5.086v-1.508l20.131,6.701c0.012,0.004,0.025,0.002,0.037,0.006     c0.18,0.056,0.366,0.095,0.564,0.095H79.95c1.057,0,1.912-0.857,1.912-1.914v-9.31C81.862,8.707,81.007,7.851,79.95,7.851z      M33.934,11.867L33.934,11.867l-0.001-4.463c0-1.748,1.425-3.171,3.175-3.171c1.748,0,3.171,1.422,3.171,3.171v0.157     c0,0.003-0.001,0.006-0.001,0.009v3.963c0,0.002,0.001,0.004,0.001,0.006v0.328H33.934z M44.104,9.677l18.82,1.825v4.916     l-18.82-6.264V9.677z M78.036,17.16H66.751v-5.483h11.285V17.16z" fill="#3B6A75"/><path d="M20.803,34.639c0.053,0,0.104-0.002,0.156-0.007c1.053-0.083,1.839-1.005,1.756-2.058     c-0.083-1.054-1.018-1.839-2.058-1.756l-0.083,0.006c-1.053,0.083-1.798,1.002-1.715,2.055     C18.939,33.881,19.813,34.639,20.803,34.639z" fill="#3B6A75"/><path d="M25.609,34.196c0.062,0,0.122-0.003,0.183-0.009l0.137-0.014c1.053-0.1,1.825-1.034,1.725-2.086     c-0.101-1.053-1.034-1.823-2.087-1.724l-0.138,0.013c-1.051,0.102-1.821,1.035-1.723,2.087     C23.801,33.454,24.634,34.196,25.609,34.196z" fill="#3B6A75"/><path d="M30.63,33.733c0.054,0,0.107-0.003,0.159-0.007c1.053-0.086,1.837-1.009,1.752-2.062     s-1.029-1.837-2.061-1.753l-0.082,0.007c-1.054,0.085-1.797,1.005-1.711,2.058C28.768,32.977,29.641,33.733,30.63,33.733z" fill="#3B6A75"/><path d="M16.483,39.469h0.085c1.056,0,1.913-0.856,1.914-1.914c0-1.056-0.858-1.913-1.914-1.913h-0.085     c-1.058,0-1.912,0.857-1.912,1.913C14.571,38.612,15.426,39.469,16.483,39.469z" fill="#3B6A75"/><path d="M21.546,37.555c0,1.058,0.857,1.914,1.914,1.914h0.196c1.056,0,1.914-0.856,1.914-1.914     c0-1.056-0.858-1.913-1.914-1.913H23.46C22.403,35.642,21.546,36.499,21.546,37.555z" fill="#3B6A75"/><path d="M30.634,39.469c1.057,0,1.913-0.856,1.913-1.914c0-1.056-0.856-1.913-1.913-1.913h-0.08     c-1.057,0-1.873,0.857-1.873,1.913C28.681,38.612,29.577,39.469,30.634,39.469z" fill="#3B6A75"/><path d="M35.445,35.188c0.259,0.119,0.529,0.177,0.8,0.177c0.725,0,1.415-0.412,1.737-1.112     c0.442-0.959,0.024-2.096-0.935-2.539l-0.075-0.034c-0.959-0.443-2.059-0.008-2.502,0.952     C34.029,33.591,34.484,34.746,35.445,35.188z" fill="#3B6A75"/><path d="M40.669,37.646c0.265,0.128,0.547,0.188,0.822,0.188c0.715,0,1.399-0.401,1.729-1.088     c0.457-0.953,0.054-2.095-0.898-2.552l-0.075-0.036c-0.957-0.455-2.061-0.035-2.518,0.918     C39.274,36.029,39.715,37.188,40.669,37.646z" fill="#3B6A75"/><path d="M54.707,35.074l0.159,0.039c0.151,0.038,0.305,0.056,0.457,0.056c0.86,0,1.644-0.585,1.856-1.46     c0.25-1.025-0.378-2.063-1.404-2.313l-0.159-0.039c-1.023-0.254-2.062,0.376-2.313,1.402     C53.052,33.786,53.68,34.823,54.707,35.074z" fill="#3B6A75"/><path d="M48.971,33.677l0.158,0.039c0.152,0.038,0.307,0.057,0.457,0.057c0.86,0,1.644-0.585,1.856-1.46     c0.252-1.025-0.376-2.062-1.403-2.313l-0.159-0.039c-1.023-0.254-2.062,0.376-2.313,1.403     C47.316,32.39,47.944,33.426,48.971,33.677z" fill="#3B6A75"/><path d="M54.917,37.684c-0.466,0.949-0.075,2.096,0.873,2.563l0.147,0.073c0.272,0.132,0.559,0.195,0.843,0.195     c0.708,0,1.386-0.393,1.72-1.068c0.466-0.949,0.074-2.095-0.874-2.563l-0.146-0.072C56.531,36.347,55.386,36.736,54.917,37.684z" fill="#3B6A75"/><path d="M49.62,35.075c-0.467,0.949-0.075,2.095,0.874,2.562l0.146,0.072c0.272,0.134,0.56,0.197,0.843,0.197     c0.708,0,1.386-0.394,1.719-1.07c0.467-0.949,0.076-2.095-0.873-2.562l-0.146-0.072C51.234,33.739,50.088,34.126,49.62,35.075z" fill="#3B6A75"/><rect fill="#3B6A75" height="3.827" transform="matrix(0.592 0.8059 -0.8059 0.592 25.8488 -11.7804)" width="3.739" x="22.69" y="17.727"/><rect fill="#3B6A75" height="3.827" transform="matrix(0.4269 0.9043 -0.9043 0.4269 18.6009 -12.2925)" width="5.374" x="16.312" y="6.615"/><rect fill="#3B6A75" height="3.827" transform="matrix(0.9208 0.3901 -0.3901 0.9208 7.626 -5.1475)" width="5.903" x="13.535" y="14.288"/></g></g></g></svg>