<?xml version="1.0" ?><!DOCTYPE svg  PUBLIC '-//W3C//DTD SVG 1.1//EN'  'http://www.w3.org/Graphics/SVG/1.1/DTD/svg11.dtd'><svg enable-background="new 0 0 91 91" height="91px" id="Layer_1" version="1.1" viewBox="0 0 91 91" width="91px" xml:space="preserve" xmlns="http://www.w3.org/2000/svg" xmlns:xlink="http://www.w3.org/1999/xlink"><g><g><circle cx="43.031" cy="40.224" fill="#9AE0FF" r="38.655"/><g><path d="M72.782,34.678l-0.005-0.393c-0.188-5.035-2.041-8.599-5.841-11.222     c-3.12-2.106-7.522-3.266-12.398-3.266h-0.129c-3.945,0-8.074,0.801-11.034,2.138l-0.477,0.213l-0.467-0.207     c-2.294-1.044-5.46-1.789-8.684-2.047c-0.045-0.003-0.092-0.005-0.134-0.004l-5.409,0.069c-0.048,0.001-0.095,0.003-0.143,0.009     c-3.634,0.413-6.815,1.484-9.213,3.105c-3.793,2.616-5.646,6.18-5.829,11.246l-0.007,0.47c-0.006,0.232-0.011,0.458-0.011,0.681     c0.06,7.156,1.685,10.089,3.565,13.486l0.313,0.561c2.131,3.678,4.208,7.923,4.152,15.769     c-0.011,10.808,1.974,16.423,3.646,19.236c1.953,3.247,2.932,4.19,5.668,4.19c2.627,0,4.179-2.301,4.351-4.545     c0.126-1.28,0.151-2.77,0.176-4.345c0.059-3.649,0.134-8.191,1.511-12.832l0.034-0.115c0.546-1.792,1.226-4.021,2.511-5.956     c0.782-1.176,2.448-2.442,4.271-2.442c1.43,0,2.654,0.811,3.646,2.406c1.226,1.977,1.96,4.103,2.567,6.097     c1.379,4.636,1.974,10.007,1.592,14.367c-0.231,2.667,0.253,4.678,1.441,5.977c0.939,1.024,2.167,1.39,3.004,1.39h0.002     c2.672,0,3.806-1.099,5.662-4.195c1.669-2.804,3.658-8.416,3.648-19.24c-0.052-7.834,2.023-12.082,4.172-15.789l0.288-0.521     c1.881-3.396,3.504-6.33,3.567-13.509C72.792,35.207,72.788,34.948,72.782,34.678z" fill="#F4F2E8"/><path d="M73.499,34.608l-0.007-0.352c-0.196-5.28-2.146-9.022-6.155-11.79c-3.237-2.185-7.782-3.388-12.796-3.388     h-0.138c-4.041,0-8.278,0.824-11.325,2.2l-0.183,0.082l-0.168-0.075c-2.404-1.093-5.573-1.84-8.924-2.107     c-0.066-0.005-0.135-0.007-0.199-0.006l-5.408,0.069c-0.072,0.001-0.144,0.006-0.216,0.014c-3.746,0.425-7.039,1.537-9.539,3.227     c-3.997,2.759-5.948,6.5-6.141,11.831l-0.009,0.463c-0.004,0.238-0.008,0.467-0.008,0.7c0.061,7.339,1.728,10.347,3.655,13.828     l0.319,0.575c2.082,3.591,4.11,7.737,4.057,15.406c-0.01,10.971,2.031,16.713,3.75,19.606c1.896,3.156,3.063,4.539,6.283,4.539     c3.065,0,4.871-2.636,5.063-5.19c0.13-1.312,0.155-2.815,0.181-4.408c0.06-3.605,0.133-8.091,1.477-12.631l0.035-0.113     c0.562-1.837,1.197-3.92,2.425-5.771c0.699-1.054,2.187-2.12,3.672-2.12c1.163,0,2.185,0.694,3.035,2.063     c1.176,1.899,1.894,3.978,2.489,5.924c1.353,4.553,1.938,9.822,1.563,14.101c-0.249,2.876,0.299,5.07,1.629,6.522     c1.381,1.506,3.055,1.623,3.534,1.623h0.002c3.041,0,4.394-1.4,6.278-4.547c1.716-2.881,3.76-8.621,3.75-19.613     c-0.05-7.653,1.979-11.803,4.082-15.437l0.288-0.521c1.928-3.481,3.591-6.488,3.658-13.854     C73.51,35.185,73.505,34.902,73.499,34.608z M66.081,47.226l-0.269,0.489c-2.276,3.928-4.698,8.851-4.64,17.574     c0.007,10.525-1.967,15.414-3.142,17.386c-1.447,2.415-1.717,2.446-2.546,2.446c-0.576-0.07-1.1-1.177-0.902-3.46     c0.427-4.86-0.203-10.584-1.729-15.719c-0.686-2.241-1.518-4.636-2.954-6.952c-1.642-2.646-4.021-4.104-6.698-4.104     c-3.163,0-5.928,2.033-7.265,4.049c-1.574,2.373-2.34,4.88-2.955,6.895l-0.04,0.131c-1.517,5.122-1.596,9.935-1.659,13.802     c-0.024,1.567-0.047,2.92-0.164,4.104c-0.001,0.012-0.145,1.256-0.77,1.256c-1.033,0-1.117,0-2.582-2.438     c-1.177-1.98-3.149-6.874-3.141-17.38c0.063-8.74-2.361-13.659-4.613-17.544l-0.3-0.543c-1.779-3.21-3.065-5.53-3.116-11.756     c0-0.19,0.004-0.39,0.008-0.599l0.007-0.444c0.143-3.906,1.422-6.414,4.262-8.374c1.889-1.276,4.476-2.137,7.489-2.492     l5.198-0.065c2.788,0.231,5.475,0.858,7.4,1.734l0.987,0.438l7.191,3.817c0.322,0.171,0.669,0.252,1.009,0.252     c0.772,0,1.521-0.416,1.906-1.145c0.557-1.052,0.157-2.356-0.894-2.915l-2.936-1.559c1.94-0.456,4.106-0.717,6.181-0.717h0.138     c4.103,0,7.888,0.967,10.365,2.638c2.853,1.97,4.131,4.479,4.276,8.345l0.006,0.315c0.005,0.267,0.01,0.521,0.01,0.751     C69.145,41.693,67.859,44.014,66.081,47.226z" fill="#3B6A75"/><g><path d="M86.267,14.553c-6.361,0-6.479-8.489-6.482-8.845c0-0.003,0-0.007,0-0.011c0-0.001,0-0.003,0-0.004      c0-0.004,0-0.009,0-0.014c-0.001-0.002-0.001-0.003,0-0.003c-0.001-0.002-0.001-0.003,0-0.003c0-0.001,0-0.002,0-0.003      c-0.019-1.173-0.976-2.117-2.154-2.117c-1.188,0-2.152,0.962-2.155,2.15c-0.002,0.368-0.123,8.85-6.483,8.85      c-0.003,0-0.005,0-0.008,0c-0.001,0-0.003,0-0.005,0h-0.001c-0.001,0-0.002,0-0.004,0c-1.184,0.01-2.139,0.972-2.139,2.156      c0,1.184,0.956,2.146,2.14,2.155c0.681,0.013,6.5,0.381,6.5,8.846c0,1.189,0.966,2.155,2.155,2.155s2.154-0.966,2.154-2.156      c0-8.479,5.836-8.833,6.482-8.847c1.189,0,2.154-0.965,2.154-2.154C88.421,15.518,87.456,14.553,86.267,14.553z M77.628,19.377      c-0.698-1.074-1.521-1.934-2.396-2.61c0.98-0.801,1.77-1.777,2.396-2.841c0.629,1.063,1.418,2.04,2.397,2.841      C79.15,17.443,78.327,18.303,77.628,19.377z" fill="#99B3B7"/><path d="M42.075,39.234c-6.18,0-6.297-8.264-6.299-8.611c0-1.188-0.961-2.149-2.149-2.151      c-0.002,0-0.004,0-0.005,0c-1.185,0-2.148,0.96-2.154,2.146c-0.002,0.352-0.119,8.616-6.301,8.616      c-1.189,0-2.154,0.965-2.154,2.154c0,1.191,0.965,2.156,2.154,2.156c0.258,0,6.301,0.098,6.301,8.608      c0,1.19,0.965,2.155,2.154,2.155s2.154-0.965,2.154-2.155c0-8.247,5.673-8.596,6.299-8.608c1.19,0,2.155-0.965,2.155-2.156      C44.23,40.199,43.266,39.234,42.075,39.234z M33.621,43.914c-0.667-1.009-1.445-1.823-2.272-2.471      c0.922-0.764,1.672-1.688,2.272-2.692c0.601,1.004,1.35,1.929,2.272,2.692C35.066,42.091,34.287,42.905,33.621,43.914z" fill="#99B3B7"/><path d="M16.692,14.381c-3.676,0-3.821-4.908-3.825-5.459c0-0.003,0-0.005,0-0.007s0-0.005,0-0.007      c-0.007-1.185-0.969-2.143-2.155-2.143c-1.188,0-2.151,0.961-2.154,2.148c-0.005,0.563-0.151,5.467-3.823,5.467      c-1.19,0-2.155,0.965-2.155,2.156c0,1.19,0.965,2.156,2.155,2.156c0.391,0,3.823,0.152,3.823,5.456      c0,1.191,0.965,2.156,2.154,2.156c1.19,0,2.155-0.965,2.155-2.155c0-5.089,3.21-5.439,3.825-5.457      c1.19,0,2.155-0.966,2.155-2.156C18.848,15.346,17.883,14.381,16.692,14.381z M10.712,17.248      c-0.205-0.247-0.421-0.477-0.644-0.687c0.231-0.236,0.446-0.486,0.644-0.749c0.199,0.263,0.414,0.513,0.646,0.749      C11.135,16.771,10.919,17.001,10.712,17.248z" fill="#99B3B7"/></g></g><path d="M62.55,39.989c-0.04,0-0.08,0-0.121-0.003c-1.057-0.065-1.859-0.975-1.794-2.031    c0.109-1.781-0.036-5.071-2.253-7.086c-0.781-0.711-0.84-1.924-0.127-2.707c0.713-0.782,1.924-0.84,2.707-0.128    c2.52,2.291,3.762,5.897,3.497,10.158C64.396,39.208,63.553,39.989,62.55,39.989z" fill="#FFFFFF"/></g></g></svg>