<?xml version="1.0" ?><!DOCTYPE svg  PUBLIC '-//W3C//DTD SVG 1.1//EN'  'http://www.w3.org/Graphics/SVG/1.1/DTD/svg11.dtd'><svg enable-background="new 0 0 91 91" height="91px" id="Layer_1" version="1.1" viewBox="0 0 91 91" width="91px" xml:space="preserve" xmlns="http://www.w3.org/2000/svg" xmlns:xlink="http://www.w3.org/1999/xlink"><g><path d="M79.568,68.642c-2.674,14.872-22.432,21.899-37.196,21.899c-23.229,0-38.083-9.807-38.083-21.899   c0-3.578-1.39-9.727,3.349-9.934c6.273-0.275,19.58-0.275,34.734-0.275c15.299,0,28.864,0,34.918,0.478   C81.893,59.27,80.189,65.201,79.568,68.642z" fill="#FF889C"/><g><path d="M14.635,61.297c-0.112,0-0.228-0.009-0.341-0.027c-3.666-0.6-7.433-0.005-7.471,0    c-1.142,0.181-2.216-0.592-2.401-1.732c-0.185-1.141,0.589-2.216,1.729-2.402c0.18-0.029,4.459-0.714,8.819,0    c1.141,0.187,1.915,1.263,1.729,2.406C16.532,60.566,15.643,61.297,14.635,61.297z" fill="#F16B72"/><path d="M78.553,63.281c-0.121,0-0.24-0.012-0.361-0.03c-16.832-2.921-32.238-1.97-32.393-1.958    c-1.154,0.063-2.15-0.801-2.226-1.956c-0.073-1.155,0.8-2.15,1.955-2.226c0.646-0.041,16.061-0.995,33.379,2.012    c1.141,0.197,1.904,1.281,1.705,2.422C80.436,62.563,79.551,63.281,78.553,63.281z" fill="#F16B72"/><path d="M79.93,28.479L69.076,46.821c-1.807,3.053-5.74,4.062-8.787,2.254c-3.053-1.805-4.063-5.744-2.258-8.787    l10.855-18.341L79.93,28.479z" fill="#9AE0FF"/><path d="M50.941,41.66c-0.139-3.724-1.592-5.86-3.814-7.4c-2.248-1.511-5.417-2.224-8.558-2.214    c-2.918-0.009-5.782,0.606-7.72,1.478l-0.774,0.349l-0.777-0.349c-1.554-0.707-3.722-1.224-6.021-1.411l-3.969,0.054    c-2.343,0.264-4.581,0.945-6.285,2.1c-2.225,1.535-3.679,3.678-3.819,7.393c-0.007,0.298-0.011,0.57-0.011,0.823    c0.038,5.248,1.244,7.143,2.706,9.792c1.506,2.604,3.227,5.937,3.178,12.096c0,7.155,1.213,11.356,2.532,13.574    c1.34,2.228,1.792,2.566,3.255,2.566c1.54,0,2.077-1.562,2.144-2.384c0.3-3.028-0.219-7.764,1.277-12.814    c0.431-1.398,0.951-3.146,1.997-4.725c1.414-2.129,5.228-3.798,7.586,0c0.994,1.615,1.566,3.326,1.998,4.725    c1.144,3.848,1.477,7.87,1.208,10.942c-0.376,4.271,2.128,4.256,2.21,4.256c1.331,0,1.909-0.339,3.246-2.566    c1.327-2.218,2.542-6.419,2.536-13.574c-0.043-6.174,1.688-9.492,3.188-12.1c1.465-2.647,2.65-4.54,2.697-9.788    C50.949,42.221,50.947,41.949,50.941,41.66z" fill="#F4F2E8"/><g><path d="M50.277,52.93c1.457-2.623,2.715-4.888,2.766-10.452c0-0.276-0.002-0.565-0.012-0.897     c-0.148-4.047-1.648-6.922-4.738-9.062c-2.465-1.657-5.898-2.571-9.668-2.571h-0.119c-2.983,0-6.125,0.607-8.435,1.626     c-1.792-0.8-4.14-1.349-6.628-1.553c-0.066-0.005-0.134-0.007-0.198-0.005l-3.968,0.054c-0.07,0-0.138,0.005-0.207,0.013     c-2.836,0.319-5.334,1.166-7.238,2.458c-3.07,2.115-4.571,4.987-4.723,9.064c-0.008,0.316-0.013,0.607-0.013,0.892     c0.041,5.511,1.353,7.879,2.743,10.386l0.244,0.438c1.488,2.575,2.939,5.546,2.898,11.046c0,8.176,1.535,12.476,2.83,14.656     c1.342,2.228,2.35,3.58,5.05,3.58c2.549,0,4.06-2.168,4.229-4.271c0.098-0.983,0.115-2.096,0.136-3.274     c0.041-2.616,0.095-5.871,1.06-9.131l0.034-0.112c0.401-1.307,0.856-2.788,1.706-4.07c0.428-0.645,1.369-1.328,2.269-1.328     c0.247,0,1,0,1.789,1.267c0.83,1.352,1.346,2.839,1.773,4.225c0.975,3.287,1.398,7.088,1.13,10.162     c-0.199,2.262,0.246,4.004,1.322,5.18c1.153,1.258,2.567,1.355,2.972,1.355h0.002c2.459,0,3.585-1.154,5.042-3.588     c1.297-2.166,2.838-6.467,2.832-14.665c-0.037-5.464,1.355-8.339,2.926-11.071L50.277,52.93z M39.281,80.509v-2.093h0.002     L39.281,80.509z M46.617,50.897l-0.18,0.327c-1.701,2.954-3.512,6.651-3.467,13.146c0.007,7.606-1.399,11.096-2.236,12.495     c-0.755,1.258-1.038,1.494-1.083,1.525c-0.007,0.002-0.068,0.019-0.257,0.023c-0.1-0.107-0.35-0.644-0.232-1.979     c0.316-3.628-0.152-7.897-1.295-11.739c-0.515-1.671-1.139-3.459-2.22-5.215c-1.303-2.099-3.203-3.255-5.353-3.255     c-2.207,0-4.467,1.256-5.759,3.203c-1.187,1.79-1.782,3.735-2.22,5.154l-0.041,0.134c-1.134,3.829-1.191,7.401-1.239,10.273     c-0.018,1.137-0.034,2.119-0.118,2.966c-0.012,0.152-0.077,0.349-0.141,0.458c-0.159-0.002-0.248-0.009-0.284-0.009     c-0.012,0-0.019,0.001-0.016,0.004c-0.123-0.096-0.408-0.443-1.067-1.535c-0.835-1.407-2.238-4.902-2.238-12.49     c0.052-6.537-1.759-10.22-3.438-13.121l-0.229-0.411c-1.315-2.375-2.185-3.941-2.219-8.371c0-0.237,0.005-0.494,0.01-0.746     c0.127-3.38,1.547-4.801,2.902-5.735c1.313-0.89,3.123-1.49,5.243-1.742l3.762-0.05c1.993,0.171,3.895,0.616,5.239,1.226     l0.693,0.312l5.278,2.797c0.313,0.166,0.649,0.244,0.979,0.244c0.751,0,1.478-0.404,1.852-1.114     c0.542-1.022,0.153-2.29-0.869-2.832L35.51,34.38c0.984-0.154,2.006-0.241,2.998-0.241h0.119c2.903,0,5.575,0.676,7.307,1.842     c1.969,1.363,2.814,3.032,2.914,5.73c0.008,0.271,0.01,0.523,0.01,0.751C48.816,46.939,47.941,48.516,46.617,50.897z" fill="#3B6A75"/><path d="M84.432,24.116l2.135-3.605l-13.803-8.172l-2.135,3.604l2.729,1.615l-2.018,3.409L68.15,19.08     l-0.007,0.011l-0.581-0.344l-2.133,3.605l0.581,0.344L56.232,39.22c-1.158,1.952-1.488,4.24-0.924,6.442     c0.385,1.511,1.167,2.849,2.246,3.918L48.1,65.56c-0.588,0.996-0.258,2.279,0.738,2.868c0.334,0.197,0.699,0.292,1.063,0.292     c0.715,0,1.412-0.367,1.805-1.028l9.454-15.978c0.774,0.229,1.578,0.354,2.392,0.354c2.996,0,5.805-1.604,7.328-4.179     l9.78-16.527l0.651,0.386l2.133-3.605l-0.651-0.385l0.007-0.011l-3.189-1.887l2.016-3.405L84.432,24.116z M76.135,30.781     l-2.373-1.403l-2.133,3.606l2.372,1.402l-1.157,1.955l-2.309-1.37l-2.137,3.603l2.312,1.372l-1.306,2.207l-2.299-1.362     l-2.135,3.603l2.301,1.364c-0.773,1.31-2.199,2.124-3.721,2.124c-0.768,0-1.527-0.21-2.195-0.606     c-0.994-0.589-1.701-1.528-1.988-2.649c-0.285-1.118-0.119-2.278,0.469-3.269l9.779-16.526l7.438,4.4L76.135,30.781z      M78.01,20.337l-2.006,3.389L74.947,23.1l2.006-3.389L78.01,20.337z" fill="#3B6A75"/><path d="M25.739,17.432l8.431,6.085c0.37,0.269,0.8,0.396,1.225,0.396c0.65,0,1.292-0.302,1.7-0.869     c0.676-0.938,0.465-2.246-0.474-2.923l-8.43-6.085c-0.939-0.677-2.249-0.469-2.925,0.471     C24.59,15.445,24.801,16.756,25.739,17.432z" fill="#3B6A75"/><path d="M43.015,19.837c0.199,0.997,1.075,1.685,2.053,1.685c0.135,0,0.273-0.012,0.412-0.041     c1.135-0.226,1.871-1.328,1.645-2.464L43.753,2.145c-0.228-1.136-1.338-1.873-2.465-1.644c-1.134,0.226-1.871,1.331-1.645,2.464     L43.015,19.837z" fill="#3B6A75"/><path d="M53.781,20.451c0.305,0.153,0.629,0.227,0.947,0.227c0.764,0,1.5-0.419,1.869-1.145l6.857-13.506     c0.523-1.03,0.113-2.293-0.918-2.815c-1.033-0.525-2.293-0.111-2.814,0.919l-6.859,13.505     C52.34,18.667,52.75,19.927,53.781,20.451z" fill="#3B6A75"/></g></g><path d="M17.75,48.652c-0.844,0-1.64-0.514-1.958-1.351c-0.917-2.416-0.803-4.841,0.321-6.828   c1-1.765,2.732-2.984,4.757-3.349c1.133-0.209,2.228,0.553,2.432,1.69c0.205,1.14-0.553,2.228-1.69,2.432   c-0.805,0.146-1.463,0.603-1.853,1.29c-0.5,0.883-0.518,2.047-0.051,3.277c0.411,1.081-0.134,2.289-1.215,2.702   C18.25,48.611,17.999,48.652,17.75,48.652z" fill="#FFFFFF"/></g></svg>