<?xml version="1.0" ?><!DOCTYPE svg  PUBLIC '-//W3C//DTD SVG 1.1//EN'  'http://www.w3.org/Graphics/SVG/1.1/DTD/svg11.dtd'><svg enable-background="new 0 0 91 91" height="91px" id="Layer_1" version="1.1" viewBox="0 0 91 91" width="91px" xml:space="preserve" xmlns="http://www.w3.org/2000/svg" xmlns:xlink="http://www.w3.org/1999/xlink"><g><g><path d="M2.688,14.503v61.992h80.087c3.056,0,5.543-2.498,5.543-5.55V14.504L2.688,14.503L2.688,14.503z" fill="#9AE0FF"/><path d="M48.901,57.281c0.883,2.963,1.139,6.064,0.933,8.431c-0.288,3.291,1.646,3.276,1.711,3.276    c1.029,0,1.477-0.253,2.512-1.97c1.019-1.715,1.957-4.946,1.953-10.461c-0.033-4.76,1.301-7.318,2.467-9.325    c1.125-2.042,2.052-3.502,2.088-7.543c0-0.204-0.012-0.414-0.014-0.635c-0.104-2.863-1.23-4.518-2.953-5.702    c-1.729-1.165-4.181-1.715-6.605-1.708c-2.251-0.007-4.469,0.465-5.963,1.139l-0.598,0.27l-0.601-0.27    c-1.206-0.543-2.88-0.943-4.653-1.082l-3.066,0.039c-1.815,0.204-3.536,0.727-4.856,1.613c-1.719,1.185-2.846,2.84-2.95,5.702    c0,0.223-0.01,0.438-0.01,0.635c0.03,4.041,0.959,5.503,2.088,7.543c1.163,2.006,2.5,4.569,2.466,9.325    c-0.008,5.514,0.928,8.746,1.95,10.461c1.032,1.717,1.383,1.97,2.512,1.97c1.196,0,1.61-1.202,1.654-1.831    c0.238-2.337-0.167-5.982,0.991-9.875c0,0,0.812-3.162,4.476-2.996C47.95,54.445,48.901,57.281,48.901,57.281z" fill="#68C1E0"/><g><path d="M0.466,12.285v66.43h82.309c4.279,0,7.761-3.485,7.76-7.77v-58.66H0.466z M86.098,70.945     c0,1.836-1.49,3.332-3.323,3.332H4.905V16.724h81.192V70.945z" fill="#3B6A75"/><path d="M8.525,34.156c0.83,0.174,1.562,0.398,2.131,0.655l0.539,0.239l4.035,2.138     c0.331,0.177,0.686,0.26,1.037,0.26c0.796,0,1.564-0.431,1.964-1.182c0.418-0.791,0.306-1.718-0.204-2.385     c0.216-0.01,0.433-0.018,0.656-0.018c0.03,0,0.062,0,0.092,0c2.122,0,4.057,0.484,5.297,1.318     c0.981,0.672,1.902,1.618,1.987,3.897c0.001,0.125,0.006,0.245,0.012,0.362c0.003,0.063,0.004,0.118,0.005,0.171l-0.001,0.095     c0,0.009,0,0.017,0,0.026c-0.041,3.22-0.677,4.379-1.641,6.117l-0.146,0.268c-1.356,2.334-2.801,5.259-2.768,10.438     c0,5.722-1.028,8.297-1.636,9.315c-0.044,0.069-0.083,0.136-0.121,0.196c0.005-0.054,0.009-0.107,0.014-0.167     c0.248-2.888-0.123-6.262-1.04-9.326c-0.534-1.589-2.497-4.326-6.478-4.507c-1.837-0.091-3.491,0.452-4.749,1.557     c-0.923,0.808-1.016,2.209-0.207,3.132s2.211,1.016,3.133,0.206c0.39-0.342,0.929-0.489,1.623-0.459     c1.75,0.079,2.34,1.187,2.47,1.494c0.715,2.424,1.022,5.229,0.825,7.519c-0.169,1.916,0.226,3.411,1.176,4.448     c1.057,1.153,2.366,1.244,2.744,1.244c0,0,0,0,0.002,0c2.164,0,3.219-1.07,4.414-3.052c1.485-2.485,2.269-6.495,2.269-11.613     c-0.026-4.08,1.01-6.206,2.192-8.239l0.143-0.257l0.166,0.299c1.158,1.997,2.194,4.128,2.166,8.209     c-0.007,5.096,0.776,9.109,2.268,11.607c1.106,1.839,2.013,3.046,4.414,3.046c2.363,0,3.734-1.961,3.861-3.828     c0.081-0.792,0.096-1.673,0.111-2.605c0.037-2.074,0.076-4.423,0.81-6.896c0.127-0.416,0.583-1.379,2.063-1.379l0.177,0.004     c1.747,0.077,2.337,1.186,2.468,1.492c0.715,2.438,1.022,5.242,0.824,7.522c-0.168,1.914,0.229,3.409,1.178,4.446     c1.058,1.155,2.366,1.244,2.742,1.244h0.002c2.165,0,3.221-1.07,4.42-3.057c1.485-2.5,2.269-6.511,2.264-11.608     c-0.028-4.072,1.01-6.199,2.191-8.238l0.143-0.26l0.17,0.304c1.158,1.992,2.194,4.115,2.167,8.206     c-0.007,5.086,0.775,9.098,2.266,11.605c1.104,1.841,2.008,3.048,4.415,3.048c2.355,0,3.73-1.959,3.863-3.833     c0.078-0.784,0.09-1.655,0.105-2.576c0.033-2.08,0.071-4.438,0.809-6.921c0.134-0.439,0.605-1.453,2.239-1.375     c1.749,0.079,2.337,1.188,2.466,1.492c0.721,2.445,1.029,5.249,0.828,7.519c-0.109,1.222,0.792,2.299,2.014,2.407     c1.219,0.102,2.298-0.792,2.407-2.014c0.256-2.867-0.115-6.245-1.042-9.331c-0.532-1.59-2.494-4.328-6.474-4.508     c-4.295-0.175-6.288,2.961-6.704,4.579c-0.901,3.034-0.944,5.834-0.98,8.081c-0.007,0.482-0.013,0.929-0.028,1.333     c-0.034-0.057-0.069-0.114-0.106-0.178c-0.618-1.037-1.648-3.624-1.641-9.312c0.037-5.194-1.408-8.122-2.744-10.414l-0.178-0.319     c-0.967-1.743-1.604-2.896-1.631-6.117c0-0.011,0.001-0.021,0.001-0.033c0-0.016-0.001-0.034-0.001-0.05l0.004-0.183     c0.004-0.13,0.006-0.266,0.006-0.327c0.082-2.326,1.005-3.272,1.978-3.938c0.909-0.615,2.236-1.052,3.748-1.235l2.85-0.036     c1.435,0.121,2.853,0.45,3.822,0.889l0.542,0.243l4.039,2.139c0.332,0.175,0.687,0.258,1.037,0.258     c0.795,0,1.563-0.431,1.963-1.183c0.426-0.805,0.305-1.754-0.229-2.424c1.049-0.24,1.799-1.206,1.72-2.313     c-0.087-1.221-1.114-2.14-2.371-2.059c-1.897,0.134-3.73,0.543-5.192,1.154c-1.422-0.589-3.209-0.992-5.077-1.139     c-0.068-0.006-0.135-0.008-0.202-0.006l-3.071,0.04c-0.074,0-0.147,0.006-0.222,0.014c-2.287,0.258-4.306,0.941-5.853,1.989     c-0.656,0.45-1.224,0.951-1.714,1.501c-0.491-0.552-1.063-1.057-1.724-1.511c-1.995-1.346-4.766-2.088-7.797-2.088h-0.102     c-2.287,0-4.691,0.446-6.511,1.201c-1.426-0.59-3.213-0.992-5.077-1.139c-0.067-0.006-0.135-0.008-0.201-0.006l-3.067,0.04     c-0.074,0-0.148,0.006-0.22,0.014c-2.282,0.257-4.305,0.939-5.868,1.99c-0.652,0.449-1.217,0.948-1.704,1.496     c-0.492-0.552-1.063-1.057-1.723-1.511c-2.001-1.344-4.766-2.086-7.776-2.086c-0.039,0-0.079,0-0.117,0     c-2.287,0-4.688,0.445-6.515,1.201c-0.788-0.327-1.704-0.603-2.726-0.815c-1.2-0.251-2.376,0.521-2.627,1.719     C6.554,32.729,7.324,33.904,8.525,34.156z M32.489,35.194c0.933-0.626,2.231-1.052,3.762-1.237l2.848-0.036     c1.451,0.123,2.839,0.444,3.826,0.889l0.54,0.242l4.039,2.139c0.331,0.175,0.687,0.258,1.036,0.258     c0.796,0,1.565-0.431,1.965-1.183c0.418-0.79,0.306-1.716-0.204-2.384c0.21-0.009,0.421-0.018,0.637-0.018h0.103     c2.126,0,4.065,0.483,5.299,1.317c0.985,0.674,1.908,1.622,1.991,3.899l0.016,0.588c-0.031,3.271-0.672,4.429-1.642,6.18     l-0.149,0.27c-1.356,2.339-2.801,5.269-2.765,10.44c0.004,5.701-1.028,8.29-1.634,9.313c-0.044,0.071-0.086,0.137-0.123,0.2     c0.004-0.054,0.008-0.109,0.013-0.169c0.25-2.876-0.121-6.25-1.04-9.328c-0.534-1.589-2.496-4.326-6.475-4.507     c-0.127-0.005-0.254-0.009-0.377-0.009c-4.073,0-5.936,3.055-6.328,4.591c-0.898,3.02-0.945,5.809-0.983,8.05     c-0.008,0.494-0.014,0.948-0.032,1.359c-0.033-0.057-0.069-0.114-0.106-0.178c-0.616-1.031-1.646-3.61-1.638-9.308     c0.036-5.182-1.407-8.114-2.742-10.416l-0.167-0.301c-0.97-1.742-1.611-2.899-1.643-6.118c0-0.018,0.001-0.033,0.001-0.051     c0-0.024-0.001-0.049-0.002-0.074l0.007-0.48C30.605,36.805,31.527,35.857,32.489,35.194z" fill="#3B6A75"/><rect fill="#3B6A75" height="4.438" width="19.608" x="13.837" y="20.061"/></g></g><path d="M35.965,46.047c-1.026,0-1.95-0.717-2.17-1.761c-0.34-1.609-1.373-6.501,3.979-8.028   c1.178-0.333,2.405,0.348,2.741,1.528c0.336,1.178-0.349,2.404-1.525,2.741c-0.969,0.276-1.369,0.391-0.852,2.842   c0.254,1.198-0.515,2.377-1.714,2.63C36.27,46.031,36.115,46.047,35.965,46.047z" fill="#9AE0FF"/></g></svg>