<?xml version="1.0" ?><!DOCTYPE svg  PUBLIC '-//W3C//DTD SVG 1.1//EN'  'http://www.w3.org/Graphics/SVG/1.1/DTD/svg11.dtd'><svg enable-background="new 0 0 91 91" height="91px" id="Layer_1" version="1.1" viewBox="0 0 91 91" width="91px" xml:space="preserve" xmlns="http://www.w3.org/2000/svg" xmlns:xlink="http://www.w3.org/1999/xlink"><g><g><rect fill="#F4F2E8" height="7.145" width="18.159" x="36.877" y="19.658"/><polygon fill="#F4F2E8" points="59.822,3.375 32.087,3.375 32.087,9.619 52.479,9.619 52.479,11.574 32.087,11.574 32.087,17.702     59.822,17.702   "/><path d="M53.139,66.55h11.953V54.907c-1.289-1.496-8.383-8.812-18.568-1.478c-4.155,2.995-7.9,3.998-11.052,3.998    c-3.918,0-6.917-1.549-8.65-2.748v13.823h-5.51v11.944c0,3.955,3.217,7.171,7.169,7.171h34.953c3.949,0,7.165-3.216,7.165-7.171    V68.503H53.14L53.139,66.55L53.139,66.55z" fill="#9AE0FF"/><path d="M63.431,28.755h-6.441H34.926h-6.444c-3.953,0-7.172,3.218-7.172,7.171v9.771h13.156v1.952h-7.645v4.58    c1.454,1.334,8.493,6.872,18.561-0.381c9.321-6.709,16.545-2.394,19.711,0.349v-6.499h5.506v-9.771    C70.598,31.973,67.382,28.755,63.431,28.755z" fill="#F4F2E8"/></g><g><path d="M68.264,67.527H63.87v-23.05h5.508v-8.552c0-3.279-2.668-5.948-5.947-5.948H28.48    c-3.281,0-5.95,2.669-5.95,5.948v8.552h11.935v4.394H18.137V35.926c0-5.703,4.641-10.342,10.344-10.342h34.95    c5.702,0,10.341,4.639,10.341,10.342v12.945h-5.508V67.527z" fill="#3B6A75"/><path d="M63.433,90.794H28.48c-5.703,0-10.344-4.64-10.344-10.345V65.332h5.512V46.673h4.393v23.051H22.53v10.725    c0,3.28,2.669,5.952,5.95,5.952h34.952c3.277,0,5.945-2.672,5.945-5.952V69.724H53.139v-4.393h20.633v15.117    C73.771,86.154,69.135,90.794,63.433,90.794z" fill="#3B6A75"/><path d="M58.208,29.978H33.705V16.486h24.503V29.978z M38.098,25.584h15.719v-4.706H38.098V25.584z" fill="#3B6A75"/><path d="M60.8,20.877H31.112c-1.213,0-2.198-0.985-2.198-2.197V2.401c0-1.214,0.985-2.195,2.198-2.195H60.8    c1.212,0,2.197,0.981,2.197,2.195V18.68C62.997,19.892,62.012,20.877,60.8,20.877z M33.308,16.483h25.296V4.597H33.308V16.483z" fill="#3B6A75"/><path d="M35.492,58.657c-6.872,0-11.183-4.442-11.246-4.51l3.195-3.017l-1.599,1.509l1.589-1.518    c0.283,0.292,7.047,7.075,17.237-0.264c10.834-7.8,19.872-1.87,23.137,2.356l-3.478,2.687c-0.703-0.894-7.203-8.594-17.092-1.478    C42.839,57.59,38.857,58.657,35.492,58.657z" fill="#3B6A75"/><rect fill="#3B6A75" height="4.393" width="22.887" x="29.592" y="8.401"/></g><path d="M66.592,82.328c-1.213,0-2.197-0.984-2.197-2.197v-5.404h-7.437c-1.213,0-2.195-0.983-2.195-2.197   s0.982-2.196,2.195-2.196h11.829v9.797C68.787,81.343,67.806,82.328,66.592,82.328z" fill="#FFFFFF"/></g></svg>