<?xml version="1.0" ?><!DOCTYPE svg  PUBLIC '-//W3C//DTD SVG 1.1//EN'  'http://www.w3.org/Graphics/SVG/1.1/DTD/svg11.dtd'><svg enable-background="new 0 0 512 512" height="512px" id="Dentist" version="1.1" viewBox="0 0 512 512" width="512px" xml:space="preserve" xmlns="http://www.w3.org/2000/svg" xmlns:xlink="http://www.w3.org/1999/xlink"><g><path d="M423.24,462.03c0-0.001,0-0.001,0-0.003v-16.338c0-1.049-0.01-2.1-0.04-3.149c-0.021-0.91-0.05-1.82-0.091-2.72   c-0.029-0.69-0.06-1.381-0.109-2.07c-0.01-0.43-0.04-0.859-0.08-1.28c-0.05-0.81-0.11-1.61-0.18-2.42   c-0.07-0.819-0.15-1.64-0.23-2.46c-2.43-23.77-11.02-46.27-25-65.54c-0.45-0.62-0.91-1.239-1.37-1.86   c-0.5-0.659-0.989-1.31-1.5-1.959c-0.54-0.7-1.1-1.4-1.659-2.09c-0.051-0.061-0.101-0.131-0.15-0.19   c-0.11-0.13-0.21-0.261-0.32-0.39c-0.479-0.591-0.97-1.17-1.47-1.75c-0.55-0.67-1.12-1.33-1.7-1.98c-0.32-0.37-0.64-0.73-0.98-1.09   c-1.01-1.141-2.06-2.26-3.129-3.37c-0.121-0.13-0.24-0.25-0.36-0.38c-0.54-0.561-1.09-1.11-1.65-1.66   c-0.67-0.67-1.35-1.34-2.04-1.99c-0.57-0.54-1.14-1.08-1.71-1.609c-0.59-0.541-1.18-1.08-1.78-1.61   c-0.52-0.47-1.05-0.92-1.569-1.38c-16.561-14.37-36.13-24.381-57.22-29.391c-7.28-1.75-14.75-2.89-22.34-3.399v-33.96   c23.56-9.78,42.85-27.84,54.229-50.51c0.37-0.73,0.729-1.471,1.08-2.211c0.729-1.51,1.41-3.05,2.05-4.6   c0.32-0.779,0.64-1.561,0.939-2.34c0.301-0.78,0.601-1.57,0.891-2.36c0.21-0.59,0.42-1.18,0.62-1.78   c0.149-0.409,0.29-0.83,0.42-1.25c0.16-0.489,0.319-0.979,0.47-1.47c0.13-0.42,0.26-0.829,0.38-1.25   c0.44-1.46,0.841-2.939,1.21-4.42c0.12-0.45,0.23-0.899,0.33-1.36c0.12-0.479,0.23-0.959,0.33-1.439   c0.061-0.24,0.11-0.48,0.16-0.73c0.12-0.569,0.24-1.129,0.35-1.699c0.771-3.86,1.32-7.78,1.65-11.75c0.03-0.26,0.05-0.53,0.07-0.79   c11.51-2.37,20.229-13.341,20.229-26.46c0-13.021-8.569-23.91-19.93-26.41v-11.75h10.03c1.41,0,2.75-0.59,3.699-1.63   c0.94-1.04,1.41-2.431,1.28-3.841l-7.29-77.409C368.49,25.12,357.38,15,343.91,15H168.09c-13.47,0-24.58,10.12-25.85,23.53   l-7.29,77.409c-0.13,1.41,0.34,2.801,1.28,3.841c0.949,1.04,2.289,1.63,3.699,1.63h10.03v11.75c-11.36,2.5-19.93,13.39-19.93,26.41   c0,13.119,8.72,24.09,20.229,26.46c0.021,0.26,0.04,0.53,0.07,0.79c0.33,3.97,0.88,7.89,1.65,11.75   c0.109,0.57,0.229,1.13,0.35,1.699c0.05,0.25,0.1,0.49,0.16,0.73c0.1,0.48,0.21,0.96,0.33,1.439c0.1,0.461,0.21,0.91,0.33,1.36   c0.369,1.48,0.77,2.96,1.209,4.42c0.121,0.421,0.25,0.83,0.381,1.25c0.149,0.49,0.31,0.98,0.47,1.47   c0.13,0.42,0.271,0.841,0.42,1.25c0.2,0.601,0.41,1.19,0.62,1.78c0.29,0.79,0.59,1.58,0.89,2.36c0.3,0.779,0.62,1.561,0.94,2.34   c0.64,1.55,1.32,3.09,2.05,4.6c0.351,0.74,0.71,1.48,1.08,2.211c11.38,22.67,30.67,40.729,54.229,50.51v33.96   c-7.59,0.51-15.06,1.649-22.34,3.399c-21.09,5.01-40.66,15.021-57.22,29.391c-0.521,0.46-1.05,0.91-1.569,1.38   c-0.601,0.53-1.19,1.069-1.78,1.61c-0.57,0.529-1.141,1.069-1.71,1.609c-0.69,0.65-1.37,1.32-2.04,1.99   c-0.561,0.55-1.11,1.1-1.65,1.66c-0.12,0.13-0.24,0.25-0.36,0.38c-1.069,1.11-2.119,2.229-3.13,3.37   c-0.34,0.359-0.659,0.72-0.979,1.09c-0.58,0.65-1.15,1.311-1.7,1.98c-0.5,0.58-0.99,1.159-1.47,1.75   c-0.11,0.129-0.21,0.26-0.32,0.39c-0.05,0.06-0.1,0.13-0.15,0.19c-0.56,0.689-1.119,1.39-1.66,2.09c-0.51,0.649-1,1.3-1.5,1.959   c-0.459,0.621-0.92,1.24-1.369,1.86c-13.98,19.271-22.57,41.771-25,65.54c-0.08,0.82-0.16,1.641-0.23,2.46   c-0.07,0.81-0.13,1.61-0.18,2.42c-0.04,0.421-0.07,0.851-0.08,1.28c-0.05,0.689-0.08,1.38-0.11,2.07   c-0.04,0.899-0.069,1.81-0.09,2.72c-0.03,1.05-0.04,2.101-0.04,3.149v16.338c0,0.002,0,0.002,0,0.003s0,0.001,0,0.003V492   c0,2.76,2.24,5,5,5h61.2h202.08h61.2c2.76,0,5-2.24,5-5v-29.967C423.24,462.031,423.24,462.031,423.24,462.03z M377.02,357.28   c0.36,0.35,0.7,0.7,1.04,1.06c0.37,0.38,0.74,0.76,1.08,1.15c0.36,0.359,0.69,0.72,1.021,1.09c1.13,1.23,2.229,2.48,3.31,3.75   c0.48,0.57,0.96,1.15,1.44,1.73c0.05,0.069,0.109,0.129,0.16,0.199c0.039,0.051,0.09,0.11,0.13,0.16   c0.489,0.59,0.96,1.18,1.42,1.78c0.06,0.09,0.13,0.17,0.2,0.26c0.96,1.24,1.899,2.49,2.81,3.76c0,0.011,0.01,0.011,0.01,0.011   c0.41,0.58,0.82,1.16,1.23,1.739c12.46,18.03,20.04,39.15,21.91,61.021c0.069,0.79,0.13,1.57,0.18,2.359   c0.021,0.311,0.04,0.61,0.06,0.92c0.04,0.61,0.07,1.211,0.09,1.82c0.041,0.88,0.07,1.76,0.091,2.65   c0.03,0.979,0.04,1.96,0.04,2.949v11.341h-51.2V410.27c0-2.762-2.238-5-5-5s-5,2.238-5,5v51.761V487H261V365.561   c12.52-4.601,50.87-20.271,58.39-41.771c18.191,4.801,35.124,13.734,49.456,25.915c0.609,0.52,1.224,1.031,1.824,1.564   c0.35,0.291,0.689,0.59,1.02,0.9c0.49,0.439,0.971,0.88,1.45,1.33c0.3,0.27,0.601,0.55,0.9,0.85c0.43,0.391,0.86,0.811,1.29,1.23   C375.9,356.15,376.47,356.71,377.02,357.28z M371.97,159.57c0,7.359-4.149,13.64-9.93,15.979v-31.97   C367.82,145.92,371.97,152.21,371.97,159.57z M140.03,159.57c0-7.36,4.149-13.65,9.93-15.99v31.97   C144.18,173.21,140.03,166.93,140.03,159.57z M160.53,188.41c-0.07-0.52-0.12-1.061-0.16-1.58c-0.011-0.1-0.021-0.21-0.03-0.311   h137.7c2.76,0,5-2.229,5-5c0-2.76-2.24-5-5-5H159.96v-38.91V121.41h16.37c2.76,0,5-2.24,5-5s-2.24-5-5-5h-16.37h-10h-4.54   l6.78-71.94c0.78-8.25,7.61-14.47,15.89-14.47h175.82c8.279,0,15.109,6.22,15.89,14.47l6.78,71.94h-4.54h-10H198.68   c-2.76,0-5,2.24-5,5s2.24,5,5,5h153.36v16.199v38.91H327c-2.76,0-5,2.24-5,5c0,2.771,2.24,5,5,5h24.66   c-0.01,0.101-0.021,0.211-0.03,0.311c-0.04,0.52-0.09,1.061-0.16,1.58c-0.08,0.8-0.18,1.59-0.29,2.38   c-0.38,2.84-0.88,5.649-1.51,8.42c-0.16,0.69-0.32,1.38-0.49,2.07c-0.16,0.689-0.34,1.38-0.54,2.06   c-0.2,0.721-0.399,1.43-0.62,2.141c-0.149,0.529-0.31,1.05-0.489,1.569c-0.05,0.181-0.11,0.36-0.171,0.54   c-0.149,0.5-0.31,0.99-0.489,1.48c-0.101,0.289-0.2,0.58-0.311,0.869c-0.159,0.5-0.34,0.99-0.529,1.48   c-0.5,1.33-1.021,2.641-1.57,3.939c-0.26,0.66-0.55,1.301-0.851,1.951c-4.959,10.959-12,21.01-20.899,29.629   c-7.79,7.541-16.62,13.621-26.149,18.091c-3.25,1.54-6.591,2.88-10,4.02c-1.801,0.61-3.61,1.17-5.451,1.67   c-2.209,0.601-4.439,1.12-6.699,1.561c-2.25,0.439-4.53,0.8-6.82,1.079c-0.65,0.08-1.32,0.16-1.97,0.211   c-0.24,0.029-0.49,0.06-0.74,0.08c-0.51,0.05-1.021,0.09-1.53,0.13c-0.8,0.06-1.6,0.11-2.41,0.149   c-0.26,0.021-0.52,0.03-0.789,0.04c-0.351,0.021-0.711,0.03-1.061,0.03c-0.46,0.02-0.92,0.03-1.38,0.04   c-0.57,0.01-1.14,0.021-1.71,0.021s-1.141-0.011-1.71-0.021c-0.46-0.01-0.92-0.021-1.38-0.04c-0.35,0-0.71-0.01-1.061-0.03   c-0.27-0.01-0.529-0.02-0.789-0.04c-0.811-0.039-1.61-0.09-2.41-0.149c-0.511-0.04-1.021-0.08-1.53-0.13   c-0.25-0.021-0.5-0.051-0.74-0.08c-0.649-0.051-1.319-0.131-1.97-0.211c-2.29-0.279-4.57-0.64-6.82-1.079   c-2.26-0.44-4.49-0.96-6.7-1.561c-1.84-0.5-3.649-1.06-5.45-1.67c-3.409-1.14-6.75-2.479-10-4.02   c-9.529-4.47-18.359-10.55-26.149-18.091c-8.9-8.619-15.94-18.67-20.9-29.629c-0.3-0.65-0.59-1.291-0.85-1.951   c-0.55-1.299-1.07-2.609-1.57-3.939c-0.189-0.49-0.37-0.98-0.53-1.48c-0.109-0.289-0.209-0.58-0.31-0.869   c-0.18-0.49-0.34-0.98-0.49-1.48c-0.06-0.18-0.12-0.359-0.17-0.54c-0.18-0.52-0.34-1.04-0.489-1.569   c-0.221-0.711-0.42-1.42-0.621-2.141c-0.199-0.68-0.379-1.37-0.539-2.06c-0.17-0.69-0.33-1.38-0.49-2.07   c-0.63-2.771-1.13-5.58-1.51-8.42C160.71,190,160.609,189.21,160.53,188.41z M220.609,319.7c2.69-0.091,4.83-2.3,4.83-5v-35.13   c0.131,0.039,0.261,0.08,0.391,0.109c0.81,0.24,1.62,0.471,2.43,0.69c1.62,0.45,3.25,0.85,4.9,1.21c1.07,0.23,2.15,0.45,3.229,0.65   c0.591,0.119,1.181,0.22,1.771,0.319c0.84,0.15,1.67,0.28,2.51,0.4c1.54,0.229,3.08,0.42,4.641,0.569   c0.56,0.061,1.109,0.11,1.67,0.15c1.18,0.11,2.369,0.189,3.569,0.25c0.29,0.02,0.58,0.03,0.87,0.04   c1.52,0.07,3.05,0.101,4.58,0.101s3.061-0.03,4.58-0.101c0.29-0.01,0.58-0.021,0.87-0.04c1.2-0.061,2.39-0.14,3.569-0.25   c0.561-0.04,1.11-0.09,1.67-0.15c1.561-0.149,3.101-0.34,4.641-0.569c0.84-0.12,1.67-0.25,2.51-0.4c0.59-0.1,1.18-0.2,1.77-0.319   c1.08-0.2,2.16-0.42,3.23-0.65c1.65-0.36,3.28-0.76,4.9-1.21c0.81-0.22,1.619-0.45,2.43-0.69c0.13-0.029,0.26-0.07,0.391-0.109   v35.13c0,2.7,2.14,4.909,4.829,5c6.13,0.2,12.19,0.84,18.141,1.899c-6.03,13.971-34.33,28.36-53.511,35.141   c-4.09-1.49-15.449-5.83-26.8-12.03c-14.38-7.86-23.649-15.899-26.75-23.11C208.42,320.54,214.48,319.9,220.609,319.7z    M122.359,372.23c0,0,0.011,0,0.011-0.011c0.91-1.27,1.85-2.52,2.81-3.76c0.07-0.09,0.141-0.17,0.2-0.26   c0.46-0.601,0.931-1.19,1.42-1.78c0.04-0.05,0.09-0.109,0.13-0.16c0.051-0.07,0.11-0.13,0.16-0.199c0.48-0.58,0.96-1.16,1.44-1.73   c1.079-1.27,2.18-2.52,3.31-3.75c0.33-0.37,0.66-0.73,1.02-1.09c0.341-0.391,0.711-0.771,1.08-1.15   c0.341-0.359,0.681-0.71,1.041-1.06c0.55-0.57,1.119-1.13,1.689-1.7c0.43-0.42,0.86-0.84,1.29-1.23c0.3-0.3,0.601-0.58,0.899-0.85   c0.48-0.45,0.961-0.891,1.451-1.33c0.329-0.311,0.67-0.609,1.02-0.9c0.601-0.533,1.215-1.045,1.824-1.564   c14.332-12.181,31.265-21.114,49.455-25.915c7.521,21.5,45.871,37.17,58.391,41.771V487h-91.04v-24.97V410.27c0-2.762-2.238-5-5-5   s-5,2.238-5,5v46.761h-51.2v-11.341c0-0.989,0.01-1.97,0.04-2.949c0.021-0.891,0.05-1.771,0.09-2.65   c0.021-0.609,0.05-1.21,0.101-1.82c0.01-0.31,0.029-0.609,0.05-0.92c0.05-0.789,0.11-1.569,0.18-2.359   c1.87-21.87,9.45-42.99,21.91-61.021C121.54,373.391,121.95,372.811,122.359,372.23z M98.76,467.03h51.2V487h-51.2V467.03z    M362.04,487v-19.97h51.2V487H362.04z"/><path d="M331.59,435.63h-49.97c-2.762,0-5,2.238-5,5s2.238,5,5,5h49.97c2.762,0,5-2.238,5-5S334.352,435.63,331.59,435.63z"/><path d="M205.397,211.333h101.205c2.762,0,5-2.238,5-5s-2.238-5-5-5H205.397c-2.762,0-5,2.238-5,5S202.636,211.333,205.397,211.333   z"/><path d="M295.688,219.921h-79.375c-2.762,0-5,2.238-5,5s2.238,5,5,5h79.375c2.762,0,5-2.238,5-5S298.449,219.921,295.688,219.921z"/><path d="M277.23,238.51H234.77c-2.76,0-5,2.24-5,5s2.24,5,5,5h42.461c2.76,0,5-2.24,5-5S279.99,238.51,277.23,238.51z"/><circle cx="205.397" cy="151" r="8.564"/><circle cx="306.605" cy="151" r="8.565"/></g></svg>