<?xml version="1.0" ?><!DOCTYPE svg  PUBLIC '-//W3C//DTD SVG 1.1//EN'  'http://www.w3.org/Graphics/SVG/1.1/DTD/svg11.dtd'><svg enable-background="new 0 0 91 91" height="91px" id="Layer_1" version="1.1" viewBox="0 0 91 91" width="91px" xml:space="preserve" xmlns="http://www.w3.org/2000/svg" xmlns:xlink="http://www.w3.org/1999/xlink"><g><g><g><path d="M82.484,88.594c0-10.693-8.65-19.344-19.342-19.344H28.574c-10.692,0-19.344,8.649-19.344,19.344H82.484z     " fill="#9AE0FF"/><path d="M82.484,90.008H9.231c-0.78,0-1.412-0.633-1.412-1.413c0-11.444,9.311-20.755,20.756-20.755h34.567     c11.443,0,20.756,9.311,20.756,20.755C83.897,89.374,83.264,90.008,82.484,90.008z M10.698,87.183h70.319     c-0.724-9.23-8.465-16.52-17.875-16.52H28.574C19.162,70.664,11.42,77.952,10.698,87.183z" fill="#9AE0FF"/></g></g><g><g><path d="M45.859,16.499c-4.486,0-8.139,3.648-8.139,8.134c0,4.486,3.651,8.137,8.139,8.137     c3.744,0,6.896-2.546,7.84-5.997c0-0.011,0-0.02,0.004-0.028c0.006-0.019,0.013-0.034,0.018-0.054     c0.173-0.657,0.272-1.346,0.272-2.059C53.993,20.147,50.346,16.499,45.859,16.499z" fill="#99B3B7"/><path d="M22.607,24.911c0.626,0.465,0.758,1.35,0.293,1.976c-1.702,2.296-3.024,4.788-3.969,7.441     c4.721-3.862,10.192-6.673,16.075-8.235c-0.064-0.479-0.109-0.964-0.109-1.46c0-6.041,4.918-10.959,10.962-10.959     c6.043,0,10.959,4.918,10.959,10.959c0,0.475-0.041,0.938-0.101,1.395c5.86,1.527,11.3,4.285,15.992,8.101     c-0.834-2.285-1.95-4.458-3.348-6.479c-0.445-0.643-0.285-1.52,0.354-1.965c0.641-0.445,1.521-0.283,1.965,0.359     c0.699,1.007,1.325,2.05,1.896,3.122V9.183c-1.743-1.287-9.231-5.846-27.722-5.846c-18.5,0-26.631,4.566-28.599,5.891v21.69     c0.913-2.005,2.039-3.915,3.372-5.712C21.097,24.579,21.981,24.446,22.607,24.911z" fill="#9AE0FF"/><path d="M82.921,40.693c-0.284-1.695-0.88-2.75-1.782-3.135c-1.44-0.617-3.681,0.364-4.842,1.028     c-0.066,0.168-0.171,0.325-0.307,0.461c-0.275,0.275-0.639,0.415-0.998,0.415c-0.36,0-0.723-0.14-1-0.415     c-4.996-4.996-11.197-8.521-17.986-10.29c-1.633,4.005-5.562,6.836-10.146,6.836c-4.563,0-8.479-2.803-10.127-6.775     c-6.783,1.804-12.996,5.364-18.011,10.375c-0.275,0.276-0.637,0.414-0.998,0.414c-0.145,0-0.284-0.038-0.422-0.083     c-0.145,0.053-0.295,0.083-0.457,0.083c-0.654,0-1.199-0.447-1.358-1.052c-1.175-0.661-3.366-1.603-4.788-0.998     c-0.899,0.384-1.498,1.438-1.781,3.135c-0.313,1.877-0.01,3.411,0.923,4.688c1.884,2.583,5.788,3.222,5.827,3.228     c0.037,0.006,0.072,0.019,0.108,0.027c-0.144-0.971-0.243-1.955-0.296-2.953c-0.041-0.78,0.558-1.443,1.336-1.484     c0.778-0.038,1.443,0.558,1.484,1.335c0.204,3.89,1.18,7.56,2.765,10.874l9.342-9.544c0.266-0.272,0.63-0.427,1.009-0.427h31.525     c0.397,0,0.774,0.166,1.043,0.457l8.69,9.459c1.574-3.305,2.536-6.961,2.739-10.832c0.04-0.779,0.719-1.36,1.484-1.336     c0.777,0.04,1.375,0.704,1.336,1.483c-0.047,0.933-0.146,1.854-0.271,2.764c1.245-0.323,3.669-1.168,5.041-3.062     C82.934,44.094,83.233,42.564,82.921,40.693z" fill="#F6DABB"/><path d="M31.012,49.264l-9.532,9.737c5.042,8.231,14.097,13.682,24.378,13.682     c10.293,0,19.355-5.461,24.394-13.705l-8.927-9.713L31.012,49.264L31.012,49.264z" fill="#FFFFFF"/></g></g><g><path d="M45.938,19.357c-3.174,0-5.756,2.58-5.756,5.755s2.582,5.758,5.756,5.758c3.175,0,5.755-2.583,5.755-5.758    C51.692,21.938,49.112,19.357,45.938,19.357z M45.938,26.634c-0.838,0-1.521-0.682-1.521-1.521c0-0.837,0.684-1.52,1.521-1.52    c0.837,0,1.52,0.683,1.52,1.52C47.457,25.952,46.774,26.634,45.938,26.634z" fill="#3B6A75"/><path d="M31.47,42.651c1.681,0,3.046-1.366,3.047-3.045c0-1.68-1.365-3.048-3.047-3.048    c-1.68,0-3.047,1.368-3.047,3.048C28.423,41.285,29.79,42.651,31.47,42.651z" fill="#3B6A75"/><path d="M61.668,42.651c1.682,0,3.048-1.366,3.048-3.045c0-1.68-1.366-3.048-3.048-3.048    c-1.679,0-3.045,1.368-3.045,3.048C58.623,41.285,59.989,42.651,61.668,42.651z" fill="#3B6A75"/><path d="M77.053,52.532c1.155-0.222,5.439-1.243,7.879-4.59c1.5-2.056,2.021-4.529,1.551-7.349    c-0.615-3.693-2.451-5.196-3.883-5.804c-1.815-0.776-3.791-0.49-5.409,0.048V8.994c0-0.563-0.228-1.104-0.627-1.503    c-0.296-0.295-7.521-7.203-30.625-7.203c-23.029,0-31.076,6.822-31.408,7.113c-0.459,0.403-0.722,0.982-0.722,1.593v25.847    c-1.617-0.539-3.591-0.825-5.408-0.052c-1.433,0.609-3.27,2.11-3.885,5.806c-0.47,2.82,0.053,5.293,1.553,7.352    c2.777,3.808,7.947,4.605,8.167,4.638c0.104,0.014,0.207,0.021,0.31,0.021c0.098,0,0.194-0.013,0.289-0.026    c1.52,5.902,4.659,11.131,8.906,15.196c-9.368,2.304-16.346,10.75-16.346,20.818c0,1.17,0.948,2.119,2.118,2.119    s2.118-0.949,2.117-2.118c0-9.304,7.423-16.891,16.656-17.195c5.075,3.348,11.145,5.294,17.652,5.294    c6.521,0,12.601-1.954,17.682-5.314c9.406,0.107,17.03,7.784,17.03,17.215c0,1.17,0.946,2.119,2.116,2.119s2.119-0.949,2.119-2.12    c0-10.184-7.137-18.714-16.667-20.9C72.433,63.627,75.547,58.415,77.053,52.532z M45.938,4.522c17.461,0,24.95,4.088,27.016,5.501    v17.023c-0.2-0.311-0.4-0.622-0.611-0.927c-0.667-0.963-1.986-1.202-2.946-0.536c-0.963,0.666-1.203,1.985-0.536,2.947    c0.86,1.242,1.595,2.55,2.237,3.898c-4.096-2.924-8.668-5.108-13.538-6.451c0.021-0.287,0.044-0.574,0.044-0.867    c0-6.431-5.234-11.662-11.666-11.662c-6.434,0-11.666,5.232-11.666,11.662c0,0.317,0.022,0.629,0.048,0.939    c-4.913,1.38-9.534,3.614-13.668,6.601c0.792-1.703,1.755-3.33,2.894-4.863c0.696-0.94,0.5-2.268-0.439-2.963    c-0.941-0.699-2.267-0.5-2.963,0.438c-0.77,1.038-1.464,2.115-2.098,3.222V10.089C20.371,8.626,28.455,4.522,45.938,4.522z     M53.128,26.953c-0.011,0.039-0.029,0.074-0.038,0.114c-0.005,0.022-0.004,0.043-0.008,0.065    c-0.883,3.119-3.748,5.412-7.145,5.412c-4.098,0-7.432-3.333-7.432-7.433c0-4.095,3.334-7.427,7.432-7.427    c4.097,0,7.431,3.332,7.431,7.427C53.368,25.749,53.279,26.363,53.128,26.953z M15.858,43.973    c-1.169,0.062-2.066,1.061-2.004,2.228c0.036,0.675,0.099,1.342,0.175,2.005c-1.175-0.316-3.327-1.094-4.538-2.756    c-0.816-1.117-1.077-2.479-0.797-4.158c0.165-0.992,0.536-2.247,1.36-2.602c1.034-0.442,2.776,0.216,3.932,0.833    c0.327,0.748,1.071,1.272,1.939,1.272c0.152,0,0.299-0.018,0.442-0.048c0.144,0.03,0.289,0.048,0.435,0.048    c0.542,0,1.084-0.208,1.497-0.621c4.786-4.783,10.685-8.218,17.125-10.036c1.882,3.922,5.88,6.642,10.513,6.642    c4.656,0,8.674-2.75,10.543-6.707c6.445,1.785,12.328,5.189,17.092,9.955c0.413,0.412,0.956,0.62,1.498,0.62    c0.543,0,1.085-0.208,1.497-0.621c0.136-0.135,0.24-0.287,0.331-0.445c1.153-0.633,2.978-1.351,4.045-0.894    c0.824,0.354,1.193,1.609,1.359,2.603c0.278,1.671,0.022,3.026-0.782,4.142c-0.94,1.3-2.456,2.06-3.639,2.484    c0.061-0.573,0.109-1.149,0.14-1.73c0.061-1.169-0.835-2.165-2.003-2.227c-1.182-0.044-2.166,0.836-2.228,2.005    c-0.179,3.405-0.965,6.638-2.241,9.604l-7.968-8.672c-0.402-0.437-0.966-0.684-1.56-0.684H30.495c-0.57,0-1.115,0.229-1.514,0.635    l-8.62,8.809c-1.297-2.985-2.097-6.244-2.277-9.679C18.024,44.809,17.021,43.911,15.858,43.973z M22.449,59.58l8.937-9.131h29.707    l8.354,9.092c-4.967,7.789-13.662,12.917-23.51,12.917C36.105,72.458,27.419,67.348,22.449,59.58z" fill="#3B6A75"/></g></g></svg>