<?xml version="1.0" ?><!DOCTYPE svg  PUBLIC '-//W3C//DTD SVG 1.1//EN'  'http://www.w3.org/Graphics/SVG/1.1/DTD/svg11.dtd'><svg enable-background="new 0 0 91 91" height="91px" id="Layer_1" version="1.1" viewBox="0 0 91 91" width="91px" xml:space="preserve" xmlns="http://www.w3.org/2000/svg" xmlns:xlink="http://www.w3.org/1999/xlink"><g><g><g><path d="M16.818,40.979c1.729,0,3.459,0.429,5,1.242c0.222,0.114,0.443,0.241,0.665,0.381     c1.083-1.287,2.518-2.221,4.107-2.72c-0.239-0.5-0.548-0.969-0.924-1.383c-0.418-0.459-0.896-0.843-1.425-1.143     c-0.385-0.22-0.645-0.605-0.702-1.044c-0.056-0.44,0.097-0.88,0.416-1.188c1.102-1.066,1.706-2.492,1.706-4.016     c0-3.085-2.51-5.597-5.595-5.597c-3.016,0-5.467,2.36-5.582,5.378c-0.018,0.415-0.216,0.801-0.542,1.056     c-0.33,0.255-0.756,0.349-1.158,0.265c-0.521-0.112-1.055-0.169-1.583-0.169c-4.114,0-7.459,3.344-7.459,7.458     c0,2.787,1.552,5.309,3.956,6.585C9.65,42.928,13.068,40.979,16.818,40.979z" fill="#9AE0FF"/><path d="M30.331,62.253c1.027-1.946,0.927-4.313-0.264-6.179c-0.238-0.372-0.287-0.833-0.132-1.247     c0.154-0.417,0.497-0.733,0.922-0.857c1.563-0.458,2.843-1.502,3.6-2.94c1.533-2.907,0.412-6.524-2.493-8.055     c-0.867-0.457-1.799-0.688-2.768-0.688c-0.067,0-0.132,0.01-0.198,0.012c-0.091,0.041-0.191,0.074-0.293,0.095     c-0.184,0.033-0.365,0.029-0.539-0.004c-1.72,0.304-3.251,1.346-4.14,2.886c-0.208,0.358-0.563,0.608-0.974,0.681     c-0.411,0.07-0.83-0.039-1.147-0.305c-0.446-0.374-0.916-0.691-1.395-0.939c-1.16-0.61-2.398-0.92-3.693-0.92     c-2.955,0-5.645,1.623-7.02,4.233c-2.035,3.866-0.548,8.671,3.321,10.705c1.324,0.698,2.803,0.996,4.286,0.882     c0.038-0.003,0.07-0.003,0.107-0.003c0.655,0,1.229,0.453,1.374,1.099c0.394,1.777,1.536,3.281,3.138,4.122     c0.894,0.471,1.855,0.709,2.857,0.709c0,0,0,0,0.001,0C27.178,65.537,29.263,64.279,30.331,62.253z" fill="#9AE0FF"/><path d="M83.537,43.416c-0.383-0.219-0.643-0.604-0.699-1.043c-0.054-0.441,0.1-0.879,0.419-1.187     c1.398-1.356,2.169-3.173,2.169-5.115c0-3.935-3.197-7.131-7.127-7.131c-2.201,0-4.164,0.992-5.469,2.562     c-0.039,0.063-0.084,0.118-0.133,0.171c-0.701,0.898-1.189,1.968-1.398,3.146c3.314,1.486,4.243,4.136,4.284,4.258     c0.245,0.737-0.153,1.533-0.887,1.779c-0.151,0.05-0.3,0.071-0.448,0.071c-0.583,0-1.127-0.364-1.328-0.944     c-0.04-0.109-0.78-1.994-3.495-2.878c-0.641-0.137-1.288-0.21-1.93-0.21c-5.183,0-9.4,4.219-9.4,9.4     c0,5.184,4.218,9.398,9.4,9.398c1.762,0,3.483-0.498,4.987-1.443c0.229-0.146,0.489-0.216,0.746-0.216     c0.402,0,0.799,0.173,1.073,0.496c1.402,1.658,3.448,2.607,5.608,2.607c4.05,0,7.344-3.294,7.344-7.344     C87.255,47.166,85.83,44.724,83.537,43.416z" fill="#9AE0FF"/><path d="M55.283,46.295c0-6.732,5.479-12.211,12.212-12.211c0.354,0,0.709,0.015,1.063,0.047     c0.271-1.377,0.822-2.642,1.59-3.744c-0.521-2.382-1.694-4.117-3.775-5.556c-2.32-1.566-5.83-2.467-9.627-2.467     c-0.036,0-0.075,0-0.114,0c-2.387,0-4.909,0.375-7.002,1.015l3.83,2.031c0.685,0.366,0.946,1.216,0.583,1.9     c-0.253,0.478-0.739,0.748-1.243,0.748c-0.224,0-0.448-0.053-0.658-0.164l-6.485-3.44l-0.897-0.397     c-1.78-0.81-4.271-1.394-6.856-1.61l-4.729,0.063c-2.8,0.324-5.218,1.13-6.994,2.336c-0.103,0.067-0.188,0.144-0.286,0.213     c1.588,1.533,2.583,3.677,2.583,6.052c0,1.729-0.518,3.374-1.479,4.763c0.264,0.229,0.516,0.476,0.754,0.735     c0.764,0.84,1.342,1.824,1.722,2.885c1.319,0.042,2.628,0.375,3.804,0.994c4.278,2.255,5.927,7.573,3.673,11.854     c-0.853,1.616-2.151,2.896-3.744,3.71c0.969,2.417,0.851,5.173-0.381,7.514c-0.853,1.616-2.159,2.88-3.705,3.709     c0.806,3.704,1.857,6.83,3.134,9.28c1.246,2.392,1.534,2.392,2.741,2.392c1.084,0,1.229-1.616,1.229-1.636     c0.104-1.059,0.123-2.28,0.146-3.696c0.054-3.448,0.121-7.74,1.466-12.287c0.002-0.003,0.029-0.097,0.032-0.101     c0.546-1.781,1.227-3.994,2.6-6.065c1.129-1.706,3.443-3.407,6.086-3.407c0.032,0,0.063,0,0.094,0     c1.541,0.025,3.742,0.641,5.479,3.44c1.266,2.047,1.997,4.151,2.598,6.122c1.354,4.545,1.913,9.621,1.54,13.938     c-0.136,1.551,0.068,2.72,0.577,3.299c0.322,0.367,0.694,0.392,0.736,0.394c0.966,0,1.294,0,2.768-2.464     c1.087-1.82,2.91-6.313,2.905-15.908c-0.006-0.962,0.036-1.896,0.098-2.81C58.65,56.059,55.283,51.568,55.283,46.295z" fill="#F4F2E8"/></g><path d="M22.894,12.052c1.275,0,2.313,1.039,2.313,2.314s-1.038,2.315-2.313,2.315    c-1.276,0-2.315-1.04-2.315-2.315C20.578,13.09,21.617,12.052,22.894,12.052z" fill="#9AE0FF"/><path d="M75.911,72.747c-1.454,0-2.638-1.184-2.638-2.64c0-1.454,1.184-2.635,2.638-2.635s2.639,1.181,2.639,2.635    C78.55,71.563,77.365,72.747,75.911,72.747z" fill="#9AE0FF"/></g><g><g><path d="M87.26,41.813c1.096-1.697,1.682-3.669,1.682-5.741c0-5.871-4.774-10.646-10.643-10.646     c-2.053,0-3.965,0.583-5.589,1.586c-0.924-2.017-2.357-3.7-4.358-5.085c-2.943-1.984-7.066-3.075-11.606-3.075     c-0.037,0-0.072,0-0.106,0c-3.655,0-7.492,0.746-10.258,1.992l-0.104,0.045l-0.075-0.032c-2.16-0.987-5.031-1.669-8.081-1.92     c-0.067-0.005-0.135-0.005-0.201-0.005l-4.869,0.065c-0.067,0-0.138,0.005-0.206,0.013c-3.395,0.384-6.382,1.395-8.649,2.935     c-0.311,0.212-0.599,0.438-0.883,0.665c-1.009-0.387-2.101-0.608-3.244-0.608c-4.137,0-7.623,2.73-8.732,6.527     c-0.044,0-0.088,0-0.132,0C5.153,28.528,0.23,33.449,0.23,39.5c0,3.97,2.141,7.562,5.486,9.493     c-1.222,4.981,1.028,10.353,5.766,12.848c1.411,0.743,2.921,1.174,4.498,1.281c0.86,2.055,2.406,3.763,4.407,4.818     c1.386,0.727,2.939,1.111,4.496,1.111c0.341,0,0.677-0.034,1.011-0.069c0.845,3.599,1.931,6.689,3.238,9.199     c1.729,3.319,3.043,4.279,5.858,4.279c2.846,0,4.536-2.445,4.729-4.826c0.117-1.183,0.138-2.535,0.159-3.966     c0.05-3.233,0.112-7.259,1.337-11.393c0.507-1.65,1.08-3.521,2.175-5.175c0.606-0.916,1.881-1.831,3.158-1.831     c0.014,0,0.026,0,0.039,0c0.967,0.014,1.824,0.612,2.546,1.774c1.05,1.698,1.69,3.551,2.218,5.284     c1.214,4.066,1.737,8.784,1.407,12.618c-0.232,2.638,0.274,4.655,1.503,5.999c1.285,1.403,2.852,1.513,3.303,1.513     c2.818,0,4.064-1.287,5.793-4.172c1.555-2.607,3.408-7.794,3.402-17.724c-0.003-0.473,0.012-0.932,0.026-1.391     c0.236,0.013,0.471,0.036,0.71,0.036c1.852,0,3.675-0.399,5.353-1.169c1.958,1.676,4.452,2.614,7.063,2.614     c5.987,0,10.858-4.871,10.858-10.859C90.77,46.735,89.466,43.845,87.26,41.813z M11.202,32.745c0.479,0,0.961,0.053,1.433,0.153     c0.607,0.133,1.245-0.013,1.737-0.393c0.493-0.384,0.791-0.964,0.816-1.586c0.101-2.638,2.243-4.701,4.878-4.701     c2.697,0,4.893,2.195,4.893,4.893c0,1.331-0.53,2.578-1.491,3.509c-0.477,0.463-0.708,1.122-0.624,1.782     c0.085,0.657,0.474,1.239,1.052,1.566c0.464,0.265,0.885,0.601,1.25,1.003c0.153,0.169,0.294,0.348,0.422,0.534     c-1.209,0.503-2.311,1.248-3.223,2.199c-0.065-0.035-0.132-0.071-0.198-0.104c-1.642-0.864-3.483-1.322-5.327-1.322     c-3.759,0-7.215,1.822-9.342,4.836c-1.854-1.23-3.031-3.313-3.031-5.615C4.446,35.776,7.478,32.745,11.202,32.745z      M24.883,64.835c-0.887,0-1.738-0.212-2.528-0.627c-1.417-0.748-2.431-2.079-2.78-3.653c-0.217-0.971-1.077-1.651-2.058-1.651     c-0.055,0-0.109,0.003-0.163,0.008c-1.368,0.102-2.699-0.168-3.904-0.802c-3.524-1.856-4.88-6.233-3.025-9.758     c1.253-2.379,3.704-3.855,6.396-3.855c1.178,0,2.309,0.28,3.368,0.839c0.435,0.227,0.861,0.513,1.269,0.855     c0.479,0.4,1.107,0.567,1.721,0.46s1.148-0.483,1.459-1.022c0.77-1.332,2.084-2.24,3.564-2.528     c0.209,0.024,0.424,0.028,0.641-0.015c0.103-0.02,0.198-0.055,0.294-0.089c0.021,0,0.041-0.004,0.062-0.004     c0.854,0,1.675,0.203,2.438,0.604c2.564,1.354,3.552,4.543,2.2,7.107c-0.668,1.268-1.796,2.19-3.177,2.594     c-0.636,0.188-1.148,0.663-1.38,1.283c-0.233,0.621-0.16,1.316,0.196,1.875c1.054,1.65,1.144,3.746,0.236,5.471     c-0.617,1.169-1.62,2.042-2.804,2.514c-0.034,0.01-0.066,0.023-0.1,0.035C26.202,64.703,25.555,64.835,24.883,64.835     L24.883,64.835z M62.542,60.576c0.004,9.428-1.758,13.788-2.805,15.545c-1.271,2.123-1.461,2.123-2.115,2.125     c-0.353-0.044-0.844-0.876-0.663-2.931c0.381-4.402-0.189-9.573-1.568-14.201c-0.616-2.021-1.366-4.184-2.673-6.288     c-1.484-2.397-3.64-3.735-6.065-3.771c-0.035-0.002-0.068-0.002-0.104-0.002c-2.906,0-5.44,1.858-6.675,3.721     c-1.431,2.164-2.129,4.438-2.688,6.268c-0.002,0.005-0.026,0.084-0.028,0.09c-1.373,4.637-1.438,8.981-1.494,12.473     c-0.022,1.4-0.041,2.609-0.144,3.653c-0.008,0.116-0.174,0.986-0.527,0.986c-0.969,0-1.07,0-2.118-2.012     c-0.836-1.605-1.991-4.37-2.956-8.59c1.464-0.891,2.692-2.17,3.524-3.748c1.23-2.339,1.431-5.06,0.627-7.516     c1.472-0.881,2.678-2.148,3.5-3.709c2.433-4.621,0.654-10.364-3.969-12.805c-1.133-0.597-2.383-0.942-3.652-1.045     c-0.407-0.977-0.96-1.89-1.679-2.682c-0.119-0.132-0.24-0.258-0.364-0.38c0.83-1.391,1.271-2.981,1.271-4.647     c0-2.265-0.836-4.335-2.209-5.93c1.633-0.999,3.775-1.677,6.248-1.968l4.658-0.063c2.503,0.213,4.896,0.775,6.598,1.552     l0.893,0.396l6.45,3.418c0.313,0.167,0.651,0.246,0.985,0.246c0.756,0,1.486-0.408,1.865-1.121     c0.546-1.03,0.154-2.307-0.876-2.852l-2.219-1.176c1.616-0.345,3.377-0.544,5.076-0.544c0.031,0,0.063,0,0.09,0     c3.665,0,7.037,0.856,9.236,2.343c1.834,1.266,2.913,2.778,3.426,4.821c-0.624,0.956-1.1,2.019-1.393,3.16     c-7.327-0.288-13.425,5.611-13.425,12.903c0,5.39,3.321,10.013,8.021,11.945C62.562,59.005,62.536,59.783,62.542,60.576z      M79.91,56.438c-1.951,0-3.8-0.861-5.07-2.359c-0.413-0.489-1.007-0.748-1.609-0.748c-0.386,0-0.774,0.106-1.121,0.327     c-1.391,0.873-2.985,1.336-4.612,1.336c-4.796,0-8.698-3.903-8.698-8.697c0-4.796,3.902-8.696,8.698-8.696     c0.608,0,1.227,0.068,1.839,0.201c0.605,0.136,1.246-0.011,1.74-0.393c0.493-0.381,0.791-0.961,0.815-1.585     c0.055-1.425,0.568-2.719,1.389-3.753c0.041-0.05,0.083-0.099,0.119-0.153c1.176-1.394,2.933-2.272,4.899-2.272     c3.543,0,6.424,2.883,6.424,6.428c0,1.749-0.693,3.387-1.956,4.607c-0.477,0.464-0.709,1.121-0.625,1.781     c0.083,0.657,0.473,1.238,1.05,1.566c2.071,1.181,3.359,3.391,3.359,5.768C86.551,53.457,83.572,56.438,79.91,56.438z" fill="#3B6A75"/><path d="M22.896,20.196c3.212,0,5.824-2.616,5.824-5.83c0-3.213-2.612-5.827-5.824-5.827     c-3.217,0-5.831,2.614-5.831,5.827C17.065,17.58,19.68,20.196,22.896,20.196z M22.896,12.756c0.886,0,1.607,0.723,1.607,1.61     c0,0.889-0.722,1.613-1.607,1.613c-0.891,0-1.614-0.725-1.614-1.613C21.282,13.479,22.006,12.756,22.896,12.756z" fill="#3B6A75"/><path d="M75.913,63.958c-3.392,0-6.153,2.758-6.153,6.15c0,3.395,2.76,6.153,6.153,6.153s6.151-2.76,6.151-6.153     C82.064,66.716,79.307,63.958,75.913,63.958z M75.913,72.045c-1.068,0-1.937-0.87-1.937-1.937c0-1.065,0.869-1.934,1.937-1.934     c1.065,0,1.936,0.867,1.936,1.934S76.979,72.045,75.913,72.045z" fill="#3B6A75"/></g><path d="M74.251,41.633c-0.872,0-1.685-0.543-1.988-1.404c-0.05-0.124-0.727-1.726-3.111-2.477    c-1.109-0.35-1.728-1.535-1.378-2.646c0.351-1.11,1.535-1.728,2.646-1.376c4.477,1.411,5.706,4.75,5.832,5.128    c0.368,1.104-0.229,2.3-1.333,2.668C74.696,41.599,74.472,41.633,74.251,41.633z" fill="#445976"/></g><path d="M41.193,32.596c-0.484,0-0.97-0.166-1.367-0.504c-1.032-0.878-2.115-1.133-4.499-1.06   c-0.024,0.001-0.048,0.001-0.07,0.001c-1.134,0-2.07-0.899-2.105-2.041c-0.038-1.164,0.874-2.138,2.038-2.176   c2.305-0.077,4.966,0.016,7.37,2.063c0.888,0.754,0.994,2.086,0.24,2.975C42.383,32.344,41.789,32.596,41.193,32.596z" fill="#FFFFFF"/><path d="M15.888,56.026c-0.611,0-1.218-0.267-1.635-0.776c-0.968-1.188-1.401-3.063-1.13-4.894   c0.246-1.662,1.032-3.018,2.213-3.812c0.967-0.649,2.277-0.395,2.927,0.571c0.65,0.965,0.396,2.276-0.571,2.927   c-0.139,0.094-0.321,0.424-0.396,0.932c-0.116,0.787,0.094,1.447,0.227,1.61c0.737,0.903,0.602,2.23-0.302,2.968   C16.829,55.871,16.357,56.026,15.888,56.026z" fill="#FFFFFF"/><path d="M64.934,49.151c-1.068,0-1.985-0.813-2.096-1.898c-0.56-5.594,2.467-6.938,3.794-7.257   c1.128-0.27,2.271,0.424,2.543,1.557c0.271,1.133-0.425,2.271-1.56,2.545c-0.658,0.158-0.675,1.793-0.58,2.734   c0.116,1.159-0.73,2.194-1.891,2.31C65.075,49.148,65.004,49.151,64.934,49.151z" fill="#FFFFFF"/><path d="M79.234,36.346c-0.799,0-1.552-0.269-2.188-0.78c-0.907-0.73-1.05-2.058-0.318-2.964   c0.676-0.842,1.863-1.024,2.756-0.47c1.037,0.086,1.878,0.932,1.931,1.998c0.058,1.165-0.84,2.153-2.003,2.212   C79.354,36.343,79.293,36.346,79.234,36.346z" fill="#FFFFFF"/></g></svg>