<?xml version="1.0" ?><!DOCTYPE svg  PUBLIC '-//W3C//DTD SVG 1.1//EN'  'http://www.w3.org/Graphics/SVG/1.1/DTD/svg11.dtd'><svg enable-background="new 0 0 512 512" height="512px" id="Dental_x5F_tools" version="1.1" viewBox="0 0 512 512" width="512px" xml:space="preserve" xmlns="http://www.w3.org/2000/svg" xmlns:xlink="http://www.w3.org/1999/xlink"><g><path d="M410.02,275.895l-5.31-78.57l-8.51-125.98l-0.101-1c-0.199-2.15-1.14-4.19-2.64-5.74l-45.89-47.5   c-2.57-2.65-6.61-2.84-9.4-0.42c-2.8,2.41-3.199,6.44-0.949,9.36l37.569,48.7c0.12,0.15,0.181,0.34,0.17,0.49l-1.54,22.71   l-3.449-26.44l-0.16-0.99c-0.34-2.14-1.4-4.11-2.99-5.57l-48.771-44.54c-2.729-2.49-6.77-2.42-9.409,0.16   c-2.631,2.59-2.791,6.63-0.36,9.4l40.53,46.271c0.129,0.14,0.199,0.33,0.199,0.479l-1.05,201.101   c-0.03,5.67,0.22,11.399,0.74,17.039l17.09,184.881c0.95,9.91,9.181,17.279,18.99,17.279c0.29,0,0.579-0.01,0.87-0.02h0.05   c0.1,0,0.21,0,0.31-0.01c10.221-0.15,18.44-8.21,18.79-18.49l2.921-97.83h0.01l2.609-87.73v-0.01   C410.51,287.273,410.4,281.534,410.02,275.895z M398.2,249.324h-5.021H383.1H373.2l0.489-7.33h8.451h10.09h5.47L398.2,249.324z    M399.35,266.334l0.021,0.33h-3.92h-10.091h-13.34l0.5-7.34H384.4h10.09h4.38L399.35,266.334z M398.53,353.324h-8.65h-17.021   l-0.219-7.33h17h9.109L398.53,353.324z M399.05,335.994h-9.729h-16.98l-0.22-7.33h16.96h10.01h0.18l-0.09,2.9L399.05,335.994z    M398.76,318.664h-10.01h-16.93l-0.221-7.34h16.92h10.011h1.26l-0.22,7.34H398.76z M398.2,301.324h-10.011h-16.879l-0.221-7.33   h16.86h10.01h2.34l-0.21,7.33H398.2z M400.359,283.994h-2.909H387.43h-16.41c0.021-0.609,0.03-1.23,0.051-1.84   c0.02-0.381,0.029-0.75,0.039-1.131c0.021-0.369,0.031-0.729,0.051-1.09c0.02-0.479,0.04-0.959,0.08-1.439   c0.029-0.609,0.07-1.221,0.109-1.83h15.311h10.08h3.31c0.06,0.88,0.11,1.76,0.15,2.65c0.03,0.66,0.06,1.32,0.09,1.99   c0.01,0.279,0.021,0.569,0.03,0.85C400.34,282.773,400.35,283.385,400.359,283.994z M390.92,231.994h-10.09h-6.46l0.08-1.16   l0.42-6.17h5.01h10.091h6.56l0.5,7.33H390.92z M388.66,214.664h-10.09h-3.03l0.5-7.34h1.569H387.7h7.659l0.5,7.34H388.66z    M373.16,363.324h17.05h8.021l-0.211,7.34h-7.569h-17.07L373.16,363.324z M382.71,68.634l-2.95-3.82l6.4,6.62l0.061,0.65   l8.469,125.24H386.4h-9.69l3.31-48.84l4.92-72.6C385.1,73.274,384.3,70.704,382.71,68.634z M358.65,293.934   c-0.49-5.31-0.721-10.72-0.69-16.069l1.05-201.13c0-2.61-0.949-5.13-2.67-7.09l-3.18-3.63l6.8,6.21l0.101,0.64l9.92,75.96   l-3.291,48.5l-0.42,6.22l-4.899,72.341c-0.33,4.909-0.46,9.899-0.37,14.829c0.01,0.74,0.03,1.48,0.05,2.22l1.181,39.75   L358.65,293.934z M385.7,486.994h-0.17c-4.87-0.09-8.78-3.93-8.94-8.79l-2.92-97.54h17.1h6.951l-2.91,97.52   C394.641,483.124,390.641,486.994,385.7,486.994z"/><path d="M193.582,60.99c0-25.364-20.636-46-46-46s-46,20.636-46,46c0,23.674,17.979,43.223,41,45.724v98.242h-5.561   c-2.437,0-4.519,1.756-4.929,4.159l-5.439,31.895c-0.043,0.254-0.06,0.509-0.063,0.763c0,0.026-0.008,0.051-0.008,0.078V464.99   v10.859c0,11.579,9.42,21,21,21s21-9.421,21-21V464.99V241.849c0-0.026-0.007-0.051-0.008-0.078   c-0.004-0.254-0.02-0.509-0.063-0.763l-5.439-31.895c-0.41-2.402-2.492-4.159-4.929-4.159h-5.561v-98.242   C175.603,104.213,193.582,84.664,193.582,60.99z M158.582,459.99h-22V246.849h22V459.99z M158.582,475.85c0,6.065-4.935,11-11,11   s-11-4.935-11-11v-5.859h22V475.85z M157.657,236.849h-20.15l3.734-21.894h12.683L157.657,236.849z M111.582,60.99   c0-19.851,16.149-36,36-36s36,16.149,36,36s-16.149,36-36,36S111.582,80.84,111.582,60.99z"/><path d="M291.641,60.99c0-25.364-20.637-46-46-46c-10.729,0-21.172,3.773-29.407,10.626c-2.123,1.766-2.412,4.919-0.645,7.042   c1.766,2.122,4.918,2.412,7.042,0.645c6.442-5.36,14.614-8.313,23.01-8.313c19.85,0,36,16.149,36,36s-16.15,36-36,36   c-2.761,0-5,2.239-5,5v102.965h-5.561c-2.437,0-4.519,1.756-4.929,4.159l-5.439,31.895c-0.043,0.254-0.06,0.509-0.063,0.763   c0,0.026-0.008,0.051-0.008,0.078V464.99v10.859c0,11.579,9.42,21,21,21s21-9.421,21-21V464.99V241.849   c0-0.026-0.008-0.051-0.008-0.078c-0.004-0.254-0.021-0.509-0.064-0.763l-5.439-31.895c-0.409-2.402-2.491-4.159-4.928-4.159   h-5.561v-98.242C273.66,104.213,291.641,84.664,291.641,60.99z M256.641,459.99h-22V246.849h22V459.99z M256.641,475.85   c0,6.065-4.935,11-11,11s-11-4.935-11-11v-5.859h22V475.85z M255.715,236.849h-20.15l3.734-21.894h12.683L255.715,236.849z"/></g></svg>