<?xml version="1.0" ?><!DOCTYPE svg  PUBLIC '-//W3C//DTD SVG 1.1//EN'  'http://www.w3.org/Graphics/SVG/1.1/DTD/svg11.dtd'><svg enable-background="new 0 0 91 91" height="91px" id="Layer_1" version="1.1" viewBox="0 0 91 91" width="91px" xml:space="preserve" xmlns="http://www.w3.org/2000/svg" xmlns:xlink="http://www.w3.org/1999/xlink"><g><g><path d="M73.428,36.155c-0.188-4.981-2.133-7.844-5.111-9.907c-3.003-2.021-7.244-2.975-11.453-2.962    c-3.896-0.013-7.732,0.811-10.322,1.979l-1.046,0.46l-1.034-0.46c-2.076-0.944-4.979-1.643-8.059-1.893l-5.313,0.074    c-3.132,0.354-6.126,1.27-8.402,2.812c-2.983,2.054-4.933,4.921-5.117,9.891c-0.011,0.398-0.015,0.767-0.015,1.102    c0.053,7.025,1.666,9.561,3.619,13.104c2.015,3.484,4.319,7.938,4.257,16.186c0,9.576,1.618,15.194,3.387,18.165    c1.798,2.987,2.397,3.436,4.354,3.436c2.066,0,2.78-2.088,2.873-3.193c0.396-4.049-0.299-10.384,1.7-17.145    c0.578-1.874,1.279-4.208,2.677-6.322c1.894-2.852,6.996-5.08,10.152,0c1.337,2.157,2.104,4.448,2.671,6.322    c1.537,5.146,1.979,10.531,1.619,14.643c-0.502,5.711,2.848,5.695,2.958,5.695c1.783,0,2.559-0.448,4.346-3.436    c1.773-2.971,3.397-8.589,3.396-18.165c-0.061-8.265,2.249-12.702,4.265-16.19c1.954-3.543,3.545-6.074,3.612-13.1    C73.442,36.904,73.43,36.541,73.428,36.155z" fill="#F4F2E8"/><g><path d="M57.639,5.705c0,5.138-5.424,9.303-12.108,9.303c-6.688,0-12.111-4.165-12.111-9.303     c0-5.14,5.423-1.751,12.111-1.751C52.215,3.954,57.639,0.565,57.639,5.705z" fill="#F4F2E8"/><g><path d="M75.564,36.65l-0.009-0.578c-0.194-5.184-2.11-8.863-6.05-11.593c-3.188-2.143-7.646-3.324-12.634-3.322      c-0.004,0-0.095-0.002-0.097-0.002c-3.949,0-8.102,0.812-11.091,2.159l-0.186,0.082l-0.156-0.07      c-2.355-1.071-5.47-1.809-8.769-2.077c-0.066-0.005-0.138-0.007-0.203-0.005l-5.313,0.074c-0.068,0-0.14,0.006-0.208,0.013      c-3.681,0.415-6.915,1.51-9.369,3.172c-3.926,2.702-5.843,6.376-6.037,11.585c-0.011,0.42-0.015,0.809-0.015,1.177      c0.053,7.204,1.688,10.156,3.585,13.577l0.318,0.576c2.039,3.529,4.027,7.604,3.972,15.12c0,10.795,2.002,16.43,3.689,19.264      c1.869,3.103,3.019,4.464,6.18,4.464c2.998,0,4.78-2.588,4.989-5.113c0.125-1.283,0.149-2.754,0.173-4.313      c0.056-3.541,0.125-7.952,1.442-12.41l0.045-0.144c0.554-1.794,1.183-3.828,2.372-5.631c0.688-1.033,2.143-2.079,3.6-2.079      c1.138,0,2.139,0.682,2.972,2.024c1.166,1.88,1.862,3.908,2.44,5.809c1.333,4.461,1.907,9.641,1.539,13.849      c-0.248,2.825,0.288,4.982,1.598,6.41c1.357,1.483,3.006,1.6,3.479,1.6h0.002c2.992,0,4.322-1.379,6.176-4.477      c1.688-2.828,3.698-8.463,3.694-19.269c-0.053-7.495,1.937-11.575,4-15.149l0.271-0.488c1.898-3.427,3.538-6.383,3.605-13.639      C75.57,37.053,75.568,36.855,75.564,36.65z M43.596,27.209l1.035,0.461c0.549,0.242,1.175,0.244,1.722,0.002l1.063-0.469      c2.054-0.926,4.908-1.551,7.738-1.73c-1.152,3.048-5.025,5.3-9.623,5.3c-4.583,0-8.446-2.235-9.614-5.266l0.411-0.006      C39.074,25.733,41.713,26.353,43.596,27.209z M68.242,48.824l-0.256,0.46c-2.232,3.866-4.611,8.709-4.549,17.255      c0.002,10.342-1.938,15.137-3.092,17.074c-1.418,2.367-1.681,2.398-2.489,2.4c-0.56-0.069-1.067-1.151-0.87-3.382      c0.419-4.789-0.201-10.416-1.703-15.448c-0.665-2.188-1.475-4.53-2.9-6.826c-1.615-2.603-3.957-4.037-6.588-4.037      c-3.109,0-5.828,2.001-7.146,3.986c-1.53,2.313-2.286,4.759-2.892,6.724l-0.053,0.169c-1.488,5.042-1.563,9.773-1.624,13.574      c-0.022,1.534-0.045,2.857-0.155,3.997c-0.002,0.013-0.15,1.243-0.752,1.243c-1.005,0-1.087,0-2.528-2.396      c-1.152-1.937-3.086-6.731-3.086-17.061c0.063-8.57-2.313-13.405-4.521-17.229l-0.303-0.547      c-1.745-3.149-3.007-5.425-3.052-11.531c0-0.316,0.004-0.664,0.013-1.021c0.144-3.834,1.397-6.291,4.185-8.209      c1.853-1.256,4.391-2.101,7.345-2.447l0.293-0.004c1.169,5.365,6.999,9.458,14.012,9.458c7.016,0,12.847-4.099,14.011-9.469      c2.989,0.316,5.668,1.166,7.563,2.44c2.799,1.94,4.054,4.402,4.198,8.169l0.013,1.064      C71.258,43.386,69.991,45.668,68.242,48.824z" fill="#3B6A75"/><path d="M45.53,17.136c7.851,0,14.235-5.128,14.235-11.431c0-3.16-1.758-4.974-4.82-4.974      c-1.145,0-2.398,0.218-3.848,0.47c-1.686,0.294-3.596,0.627-5.567,0.627s-3.884-0.334-5.57-0.627      c-1.452-0.252-2.704-0.47-3.85-0.47c-3.063,0-4.819,1.813-4.819,4.974C31.291,12.009,37.678,17.136,45.53,17.136z M35.613,5.025      c0.086-0.018,0.241-0.04,0.497-0.04c0.779,0,1.863,0.189,3.119,0.408c1.766,0.307,3.96,0.689,6.301,0.689      c2.338,0,4.534-0.383,6.298-0.689c1.256-0.22,2.34-0.408,3.117-0.408c0.256,0,0.412,0.022,0.499,0.04      c0.029,0.105,0.067,0.316,0.067,0.68c0,3.957-4.479,7.177-9.981,7.177c-5.506,0-9.985-3.22-9.985-7.177      C35.545,5.341,35.585,5.131,35.613,5.025z" fill="#3B6A75"/></g></g></g><path d="M26.652,44.536c-0.896,0-1.731-0.57-2.023-1.47c-1.392-4.285,0.101-8.718,3.711-11.036   c0.991-0.633,2.306-0.346,2.939,0.643c0.635,0.989,0.348,2.306-0.642,2.939c-1.958,1.256-2.746,3.726-1.961,6.142   c0.361,1.116-0.25,2.315-1.367,2.681C27.092,44.504,26.87,44.536,26.652,44.536z" fill="#FFFFFF"/></g></svg>