<svg height="464pt" viewBox="-64 0 464 464" width="464pt" xmlns="http://www.w3.org/2000/svg"><path d="m16 48h304c8.835938 0 16 7.164062 16 16v384c0 8.835938-7.164062 16-16 16h-304c-8.835938 0-16-7.164062-16-16v-384c0-8.835938 7.164062-16 16-16zm0 0" fill="#8d7761"/><path d="m32 80h272v352h-272zm0 0" fill="#ebebeb"/><path d="m192 112h-48c-8.835938 0-16-7.164062-16-16v-56h80v56c0 8.835938-7.164062 16-16 16zm0 0" fill="#ea9d2d"/><path d="m128 8h80v72h-80zm0 0" fill="#f7ba61"/><path d="m232 240c0 35.347656-28.652344 64-64 64s-64-28.652344-64-64 28.652344-64 64-64 64 28.652344 64 64zm0 0" fill="#e4e4e2"/><path d="m168 312c-39.765625 0-72-32.234375-72-72s32.234375-72 72-72 72 32.234375 72 72c-.042969 39.746094-32.253906 71.957031-72 72zm0-128c-30.929688 0-56 25.070312-56 56s25.070312 56 56 56 56-25.070312 56-56c-.035156-30.914062-25.085938-55.964844-56-56zm0 0" fill="#85bc94"/><path d="m160 272c-.265625.003906-.535156-.011719-.800781-.039062-2.382813-.238282-4.535157-1.527344-5.863281-3.519532l-16-24c-2.453126-3.675781-1.460938-8.644531 2.214843-11.097656s8.644531-1.460938 11.097657 2.214844l10.582031 15.882812 33.105469-33.097656c3.140624-3.03125 8.128906-2.988281 11.214843.097656 3.085938 3.085938 3.128907 8.074219.097657 11.214844l-40 40c-1.5 1.5-3.53125 2.339844-5.648438 2.34375zm0 0" fill="#8dc79d"/><g fill="#cbcbcb"><path d="m240 360h-144c-4.417969 0-8-3.582031-8-8s3.582031-8 8-8h144c4.417969 0 8 3.582031 8 8s-3.582031 8-8 8zm0 0"/><path d="m216 392h-96c-4.417969 0-8-3.582031-8-8s3.582031-8 8-8h96c4.417969 0 8 3.582031 8 8s-3.582031 8-8 8zm0 0"/><path d="m232 104h16v16h-16zm0 0"/><path d="m264 104h16v16h-16zm0 0"/><path d="m56 104h16v16h-16zm0 0"/><path d="m88 104h16v16h-16zm0 0"/></g><path d="m224 48h-112v-16c0-17.671875 14.328125-32 32-32h48c17.671875 0 32 14.328125 32 32zm0 0" fill="#a8a8a8"/></svg>