<?xml version="1.0" ?><svg viewBox="0 0 32 32" xmlns="http://www.w3.org/2000/svg"><title/><g id="Hospital"><rect height="1.664" style="fill:#444" width="27.3" x="2.35" y="28.0565"/><rect height="1.716" style="fill:#444" width="5.915" x="4.95" y="2.4205"/><rect height="1.716" style="fill:#444" width="5.915" x="21.135" y="2.4205"/><polygon points="10.8 21.049 9.942 21.049 9.942 19.749 22.058 19.749 22.058 21.049 21.2 21.049 21.2 26.756 27.44 26.756 27.44 17.994 4.56 17.994 4.56 26.756 10.8 26.756 10.8 21.049" style="fill:#444"/><path d="M10.865,5.4365H6.627v11.258H25.373V5.4365H21.135v1.898H10.865Zm1.43,10.517H9.227v-3.068h3.068Zm7.41-7.306h3.068v3.068H19.705Zm0,4.238h3.068v3.068H19.705Zm-5.239-4.238h3.068v3.068H14.466Zm0,4.238h3.068v3.068H14.466Zm-2.171-4.238v3.068H9.227V8.6475Z" style="fill:#444"/><path d="M19.835,1.81h-7.67v4.225h7.67ZM17.521,4.54H16.65v.871h-1.3V4.54h-.871V3.24h.871v-.871h1.3V3.24h.871Z" style="fill:#444"/><rect height="2.925" style="fill:#444" width="1.508" x="15.246" y="23.8315"/><polygon points="19.9 26.756 19.9 21.049 12.1 21.049 12.1 26.756 13.946 26.756 13.946 22.531 18.054 22.531 18.054 26.756 19.9 26.756" style="fill:#444"/><rect height="0.468" style="fill:#444" width="0.468" x="10.527" y="9.9475"/><rect height="0.468" style="fill:#444" width="0.468" x="10.527" y="14.1855"/><rect height="0.468" style="fill:#444" width="0.468" x="15.766" y="9.9475"/><rect height="0.468" style="fill:#444" width="0.468" x="15.766" y="14.1855"/><rect height="0.468" style="fill:#444" width="0.468" x="21.005" y="9.9475"/><rect height="0.468" style="fill:#444" width="0.468" x="21.005" y="14.1855"/></g></svg>