<?xml version="1.0" ?><!DOCTYPE svg  PUBLIC '-//W3C//DTD SVG 1.1//EN'  'http://www.w3.org/Graphics/SVG/1.1/DTD/svg11.dtd'><svg enable-background="new 0 0 91 91" height="91px" id="Layer_1" version="1.1" viewBox="0 0 91 91" width="91px" xml:space="preserve" xmlns="http://www.w3.org/2000/svg" xmlns:xlink="http://www.w3.org/1999/xlink"><g><g><path d="M44.135,46.122c-5.42-6.288-4.719-15.815,1.563-21.233c2.733-2.358,6.229-3.661,9.835-3.661    c3.523,0,6.893,1.249,9.57,3.457c0.002-0.045,0.002-0.085,0.004-0.131c0-0.272-0.008-0.568-0.016-0.872l-0.007-0.344    c-0.177-4.783-1.839-8.019-5.393-10.47c-3.009-2.03-7.521-3.195-12.376-3.195c-0.042,0-0.084,0-0.124,0    c-3.8,0-7.705,0.71-10.645,1.908l6.339,3.358c0.461,0.246,0.639,0.821,0.394,1.283c-0.172,0.322-0.499,0.506-0.84,0.506    c-0.151,0-0.302-0.036-0.444-0.11l-8.063-4.273l-1.141-0.508c-2.307-1.049-5.521-1.799-8.828-2.063l-5.89,0.078    c-3.623,0.419-6.754,1.464-9.06,3.026c-3.545,2.445-5.21,5.678-5.391,10.474l-0.009,0.593c-0.003,0.216-0.005,0.424-0.005,0.618    c0.058,7.313,1.644,10.173,3.647,13.793l0.337,0.612c2.428,4.191,5.023,9.465,4.957,18.821c-0.011,12.069,2.314,17.784,3.7,20.116    c1.995,3.31,2.425,3.426,4.129,3.426c2.072,0,2.302-2.714,2.304-2.74c0.131-1.338,0.155-2.866,0.184-4.635    c0.069-4.225,0.151-9.483,1.788-15.009l0.055-0.175c0.659-2.142,1.479-4.808,3.101-7.254c1.281-1.932,3.897-3.862,6.878-3.862    c0.032,0,0.064,0,0.102,0.002c1.712,0.024,4.166,0.719,6.132,3.887c1.506,2.428,2.396,4.988,3.135,7.394    c1.646,5.542,2.327,11.721,1.87,16.964c-0.192,2.194,0.134,3.825,0.943,4.706c0.653,0.714,1.433,0.723,1.465,0.723    c1.537,0,2.165-0.166,4.118-3.43c1.39-2.323,3.714-8.033,3.707-20.118c-0.02-2.257,0.122-4.417,0.415-6.407    c0.004-0.029,0.021-0.051,0.026-0.078c-0.352,0.024-0.705,0.047-1.063,0.047C51.156,51.345,46.998,49.44,44.135,46.122z" fill="#F4F2E8"/></g><g><path d="M67.824,59.191L82.82,77.181l3.337-2.882c2.621-2.267,2.905-6.244,0.655-8.854L75.917,52.21L67.824,59.191    z" fill="#68C1E0"/><path d="M66.22,27.069c5.087,5.898,4.437,14.816-1.471,19.899c-5.896,5.09-14.803,4.433-19.896-1.469    c-5.088-5.899-4.434-14.806,1.466-19.895C52.225,20.511,61.128,21.167,66.22,27.069z" fill="#9AE0FF"/><path d="M88.462,64.085L77.567,50.852c-0.365-0.443-0.896-0.721-1.468-0.77c-0.58-0.054-1.141,0.135-1.578,0.51    l-2.372,2.046l-4.515-5.533c2.388-2.657,3.836-5.999,4.104-9.622c0.306-4.156-0.975-8.177-3.581-11.4    c0.019-0.485,0.032-0.986,0.036-1.524c0-0.314-0.005-0.642-0.014-0.982l-0.007-0.339c-0.215-5.789-2.352-9.893-6.743-12.928    c-3.567-2.402-8.578-3.725-14.104-3.725c-0.021,0-0.044,0-0.065,0c-4.501,0.007-9.212,0.9-12.588,2.43l-0.311,0.139l-0.295-0.131    c-2.656-1.207-6.154-2.033-9.854-2.328c-0.064-0.006-0.133-0.008-0.198-0.006l-6.025,0.078c-0.071,0-0.143,0.006-0.213,0.014    c-4.135,0.47-7.762,1.693-10.505,3.55c-4.373,3.018-6.512,7.12-6.728,12.968l-0.009,0.557c-0.004,0.248-0.007,0.485-0.007,0.724    C0.593,32.68,2.43,35.999,4.559,39.844l0.359,0.65c2.334,4.035,4.61,8.689,4.551,17.285C9.458,69.953,11.71,76.3,13.609,79.491    c2.107,3.499,3.312,4.925,6.773,4.925c3.258,0,5.172-2.814,5.376-5.547c0.142-1.444,0.169-3.108,0.196-4.868    c0.066-4.035,0.146-9.056,1.657-14.157l0.055-0.177c0.628-2.05,1.342-4.373,2.718-6.443c0.824-1.238,2.561-2.48,4.309-2.48    c0.018,0,0.036,0,0.055,0c1.37,0.02,2.567,0.838,3.554,2.425c1.323,2.137,2.13,4.471,2.798,6.658    c1.518,5.097,2.173,11.009,1.758,15.808c-0.275,3.124,0.311,5.498,1.74,7.061c1.463,1.598,3.232,1.722,3.742,1.722    c3.265,0,4.727-1.521,6.772-4.934c1.893-3.177,4.146-9.519,4.14-21.719c-0.016-2.044,0.108-3.979,0.359-5.76    c1.693-0.439,3.304-1.157,4.775-2.117l4.524,5.544l-2.484,2.143c-0.883,0.763-0.991,2.092-0.245,2.987L81.177,78.55    c0.368,0.441,0.896,0.714,1.469,0.761c0.058,0.005,0.115,0.007,0.175,0.007c0.51,0,1.007-0.184,1.396-0.519l3.337-2.884    C91.064,72.882,91.457,67.559,88.462,64.085z M55.544,48.257c-3.487,0-6.794-1.513-9.071-4.153    c-4.312-4.999-3.753-12.57,1.241-16.88c2.177-1.877,4.954-2.911,7.819-2.911c3.281,0,6.392,1.354,8.645,3.71    c0.141,0.222,0.318,0.418,0.529,0.576c2.014,2.402,3,5.434,2.77,8.568c-0.236,3.191-1.698,6.098-4.123,8.184    C61.182,47.224,58.408,48.257,55.544,48.257z M54.979,57.782c0.007,11.801-2.214,17.29-3.536,19.507    c-1.708,2.853-2.03,2.853-3.069,2.853c-0.06-0.004-0.371-0.042-0.653-0.372c-0.539-0.63-0.759-2.003-0.604-3.767    c0.468-5.388-0.232-11.729-1.921-17.414c-0.759-2.478-1.677-5.122-3.259-7.676c-1.756-2.826-4.286-4.404-7.124-4.446    c-3.435-0.057-6.513,2.17-7.985,4.392c-1.717,2.584-2.564,5.338-3.243,7.55l-0.062,0.197c-1.683,5.683-1.769,11.028-1.837,15.324    c-0.027,1.742-0.052,3.248-0.181,4.568c-0.002,0.017-0.166,1.642-1.12,1.642c-1.233,0-1.393,0-3.107-2.847    c-1.324-2.226-3.543-7.721-3.534-19.5c0.067-9.654-2.61-15.098-5.103-19.402l-0.343-0.619c-1.997-3.607-3.44-6.215-3.497-13.213    c0-0.196,0.003-0.407,0.008-0.63l0.007-0.536c0.167-4.443,1.627-7.298,4.868-9.536c2.135-1.444,5.063-2.42,8.469-2.819    l5.817-0.075c3.138,0.259,6.17,0.969,8.343,1.957l1.073,0.477l8.054,4.27c0.319,0.17,0.661,0.25,0.999,0.25    c0.767,0,1.508-0.414,1.89-1.138c0.553-1.043,0.157-2.336-0.887-2.889l-3.878-2.056c2.35-0.617,5.049-0.978,7.637-0.978    c0.038,0,0.075,0,0.113,0c4.628,0,8.897,1.091,11.706,2.982c2.986,2.064,4.449,4.658,4.8,8.473    c-2.481-1.471-5.336-2.271-8.287-2.271c-3.891,0-7.659,1.401-10.61,3.949c-6.778,5.847-7.536,16.122-1.688,22.905    c3.024,3.504,7.388,5.535,12.006,5.621C55.055,54.187,54.964,55.952,54.979,57.782z M84.76,72.682l-1.69,1.46L70.809,59.437    l4.85-4.181l9.536,11.584C86.684,68.566,86.488,71.187,84.76,72.682z" fill="#3B6A75"/></g><path d="M14.434,35.759c-0.872,0-1.691-0.537-2.009-1.405c-4.923-13.503,5.043-17.747,5.146-17.789   c1.093-0.443,2.34,0.08,2.786,1.173c0.441,1.087-0.073,2.326-1.154,2.777c-0.657,0.286-6.173,3.011-2.762,12.375   c0.403,1.109-0.166,2.336-1.274,2.74C14.923,35.717,14.676,35.759,14.434,35.759z" fill="#FFFFFF"/><path d="M49.336,42.499c-0.736,0-1.456-0.382-1.852-1.068c-3.583-6.21,0.537-11.481,3.217-13.4   c0.96-0.688,2.294-0.467,2.982,0.492c0.685,0.956,0.468,2.287-0.484,2.976c-0.475,0.348-4.502,3.484-2.014,7.798   c0.59,1.021,0.237,2.329-0.783,2.918C50.066,42.406,49.698,42.499,49.336,42.499z" fill="#FFFFFF"/></g></svg>