<?xml version="1.0" ?><!DOCTYPE svg  PUBLIC '-//W3C//DTD SVG 1.1//EN'  'http://www.w3.org/Graphics/SVG/1.1/DTD/svg11.dtd'><svg enable-background="new 0 0 91 91" height="91px" id="Layer_1" version="1.1" viewBox="0 0 91 91" width="91px" xml:space="preserve" xmlns="http://www.w3.org/2000/svg" xmlns:xlink="http://www.w3.org/1999/xlink"><g><path d="M81.808,39.982c0,21.799-17.672,39.473-39.473,39.473c-21.797,0-39.471-17.674-39.471-39.473   c0-21.797,17.674-39.471,39.471-39.471C64.136,0.512,81.808,18.186,81.808,39.982z" fill="#9AE0FF"/><g><g><path d="M26.647,31.373c-1.581-0.494-3.438-0.852-5.342-1.005l-4.78,0.069c-2.812,0.317-5.324,1.154-7.175,2.406     c-2.495,1.722-3.806,3.943-4.168,7.091C11.519,43.534,20.92,39.815,26.647,31.373z" fill="#99B3B7"/><path d="M54.375,41.504l-0.006-0.377c-0.142-3.787-1.459-6.351-4.271-8.294c-2.395-1.612-5.996-2.545-9.871-2.545     h-0.154c-3.236,0-6.596,0.646-8.988,1.731l-0.964,0.427c-0.251,0.109-0.538,0.111-0.791-0.001l-0.793-0.354     c-4.628,7.057-11.693,11.172-18.019,11.172c-1.913,0-3.755-0.381-5.444-1.163c0,0.007,0,0.015,0,0.021     c0.051,5.868,1.26,8.052,2.937,11.068l0.261,0.475c1.975,3.413,4.089,7.711,4.033,15.332c-0.007,9.697,1.854,14.287,2.964,16.156     c1.604,2.665,1.902,2.665,3.155,2.665c1.479,0,1.654-2.003,1.656-2.023c0.106-1.076,0.125-2.311,0.15-3.735     c0.054-3.429,0.124-7.694,1.456-12.19l0.032-0.114c0.535-1.751,1.203-3.934,2.542-5.95c1.061-1.603,3.248-3.219,5.74-3.219     c1.461,0,3.552,0.563,5.216,3.243c1.237,1.999,1.959,4.081,2.555,6.033c1.341,4.497,1.896,9.523,1.523,13.795     c-0.148,1.716,0.097,2.979,0.712,3.647c0.462,0.508,1.006,0.514,1.028,0.514c1.095,0,1.549,0,3.151-2.67     c1.108-1.864,2.972-6.452,2.965-16.157c-0.051-7.606,1.971-11.751,4.049-15.346l0.25-0.456c1.674-3.017,2.882-5.197,2.934-11.076     C54.384,41.922,54.38,41.718,54.375,41.504z" fill="#F4F2E8"/></g><path d="M45.032,48.839c0,4.125-3.34,7.472-7.471,7.472c-4.127,0-7.471-3.346-7.471-7.472    c0-4.128,3.344-7.472,7.471-7.472C41.692,41.367,45.032,44.711,45.032,48.839z" fill="#FFFFFF"/><path d="M35.741,12.175c0,2.952-2.394,5.345-5.347,5.345c-2.948,0-5.342-2.394-5.342-5.345    c0-2.952,2.394-5.344,5.342-5.344C33.349,6.831,35.741,9.224,35.741,12.175z" fill="#FFFFFF"/><circle cx="59.369" cy="67.708" fill="#FFFFFF" r="4.552"/><g><path d="M59.369,60.955c-1.592,0-3.053,0.557-4.208,1.479l-3.243-3.094c0.664-1.724,1.425-3.048,2.056-4.142     l0.257-0.463c1.756-3.169,3.271-5.907,3.331-12.612c0-0.28-0.004-0.571-0.013-0.88l-0.004-0.209     c-0.178-4.845-1.971-8.281-5.66-10.829c-2.961-1.995-7.099-3.094-11.659-3.094h-0.15c-3.668,0-7.52,0.754-10.282,2.005     l-0.065,0.03l-0.041-0.019c-1.661-0.757-3.729-1.334-5.971-1.678l4.859-7.961c0.583,0.146,1.19,0.231,1.818,0.231     c4.162,0,7.548-3.386,7.548-7.546s-3.387-7.543-7.548-7.543c-4.157,0-7.541,3.383-7.541,7.543c0,1.941,0.743,3.707,1.95,5.046     l-6.109,10.007l-2.211,0.031c-0.072,0-0.144,0.006-0.214,0.013c-3.413,0.381-6.422,1.398-8.716,2.95     c-3.323,2.295-5.094,5.34-5.534,9.518C1.9,40.09,1.873,40.455,1.932,40.807c-0.004,0.091-0.018,0.174-0.021,0.266l-0.005,0.285     c-0.006,0.271-0.011,0.527-0.011,0.786c0.058,6.682,1.576,9.422,3.336,12.593l0.28,0.506c1.857,3.209,3.667,6.911,3.616,13.745     c-0.009,9.938,1.85,15.159,3.417,17.8C14.265,89.651,15.407,91,18.425,91c2.912,0,4.633-2.492,4.823-4.911     c0.118-1.186,0.138-2.539,0.162-3.973c0.051-3.235,0.116-7.264,1.345-11.407c0.503-1.646,1.071-3.508,2.157-5.148     c0.591-0.89,1.842-1.794,3.089-1.794c0.968,0,1.791,0.57,2.518,1.74c1.049,1.69,1.682,3.539,2.209,5.271     c1.212,4.061,1.733,8.774,1.402,12.606c-0.232,2.664,0.283,4.705,1.532,6.067c1.313,1.435,2.916,1.547,3.375,1.547h0.002     c2.862,0,4.126-1.3,5.878-4.221c1.561-2.629,3.419-7.848,3.412-17.803c-0.012-1.785,0.11-3.358,0.32-4.76l2.13,2.032     c-0.104,0.471-0.163,0.958-0.163,1.46c0,3.726,3.027,6.753,6.753,6.753c3.723,0,6.753-3.027,6.753-6.753     C66.122,63.984,63.092,60.955,59.369,60.955z M30.394,9.033c1.735,0,3.146,1.408,3.146,3.142s-1.411,3.145-3.146,3.145     c-1.73,0-3.14-1.411-3.14-3.145S28.663,9.033,30.394,9.033z M10.039,33.856c1.667-1.129,3.951-1.888,6.614-2.198l4.653-0.063     c1.146,0.098,2.265,0.271,3.31,0.503c-5.16,6.61-12.694,9.608-18.091,7.171C6.959,36.908,8.06,35.222,10.039,33.856z      M45.93,68.991c0.008,9.41-1.748,13.774-2.789,15.528c-1.215,2.021-1.42,2.076-2.05,2.078c-0.341-0.075-0.737-0.987-0.575-2.832     c0.382-4.422-0.189-9.614-1.573-14.258c-0.618-2.029-1.367-4.199-2.684-6.324c-1.531-2.462-3.753-3.82-6.259-3.82     c-2.592,0-5.243,1.479-6.759,3.766c-1.44,2.174-2.165,4.556-2.696,6.295c-0.002,0.006-0.028,0.094-0.03,0.1     c-1.38,4.656-1.448,9.018-1.506,12.521c-0.021,1.399-0.042,2.606-0.144,3.655c-0.031,0.393-0.243,0.825-0.438,0.898     c-0.811,0-0.859,0-2.103-2.068c-1.046-1.765-2.802-6.128-2.794-15.521c0.058-7.929-2.143-12.399-4.187-15.931l-0.263-0.476     c-1.408-2.538-2.468-4.457-2.725-8.716c1.328,0.395,2.717,0.591,4.141,0.591c6.47,0,13.6-3.971,18.46-10.844l6.277,3.327     c0.327,0.175,0.68,0.258,1.028,0.258c0.787,0,1.551-0.426,1.947-1.171c0.568-1.075,0.16-2.406-0.915-2.977l-2.014-1.067     c1.537-0.311,3.195-0.488,4.795-0.488h0.15c3.64,0,6.991,0.854,9.179,2.328c2.496,1.725,3.616,3.923,3.741,7.313l0.003,0.17     c0.006,0.279,0.012,0.542,0.012,0.778c-0.049,5.567-1.195,7.635-2.779,10.497l-0.241,0.433c-0.545,0.944-1.098,1.954-1.617,3.07     l-2.579-2.46c0.816-1.417,1.29-3.056,1.29-4.805c0-5.333-4.339-9.671-9.673-9.671c-5.332,0-9.671,4.338-9.671,9.671     s4.339,9.673,9.671,9.673c1.993,0,3.846-0.606,5.387-1.644l3.941,3.76C46.288,62.935,45.906,65.655,45.93,68.991z M37.562,54.11     c-2.905,0-5.271-2.365-5.271-5.271c0-2.905,2.366-5.271,5.271-5.271c2.905,0,5.271,2.365,5.271,5.271     C42.832,51.745,40.466,54.11,37.562,54.11z M59.369,70.061c-1.296,0-2.353-1.057-2.353-2.353s1.057-2.352,2.353-2.352     s2.353,1.056,2.353,2.352S60.665,70.061,59.369,70.061z" fill="#3B6A75"/><rect fill="#3B6A75" height="4.402" width="24.977" x="42.335" y="7.656"/><rect fill="#3B6A75" height="4.4" width="16.42" x="42.335" y="14.975"/><rect fill="#3B6A75" height="4.401" width="19.324" x="69.676" y="63.063"/><rect fill="#3B6A75" height="4.402" width="12.948" x="69.676" y="70.377"/></g></g></g></svg>