<?xml version="1.0" ?><!DOCTYPE svg  PUBLIC '-//W3C//DTD SVG 1.1//EN'  'http://www.w3.org/Graphics/SVG/1.1/DTD/svg11.dtd'><svg enable-background="new 0 0 91 91" height="91px" id="Layer_1" version="1.1" viewBox="0 0 91 91" width="91px" xml:space="preserve" xmlns="http://www.w3.org/2000/svg" xmlns:xlink="http://www.w3.org/1999/xlink"><g><g><g><path d="M45.188,1.359L5.891,12.984l-0.153,0.948C5.637,14.544,3.342,29.128,6.934,45.82     c4.799,22.291,17.944,37.418,38.016,43.748l0.225,0.069h0.329V1.359H45.188z" fill="#9AE0FF"/><path d="M85.265,13.934l-0.153-0.948L46.028,1.422l-0.211-0.063h-0.314v88.278h0.328l0.224-0.069     c20.07-6.33,33.215-21.457,38.015-43.748C87.663,29.129,85.365,14.545,85.265,13.934z" fill="#68C1E0"/></g><g><path d="M65.599,30.607c-0.136-3.587-1.535-5.646-3.68-7.13c-2.159-1.457-5.213-2.143-8.238-2.131     c-2.807-0.012-5.563,0.58-7.431,1.424l-0.75,0.332l-0.744-0.332c-1.497-0.68-3.586-1.182-5.799-1.362l-3.825,0.053     c-2.255,0.252-4.407,0.914-6.046,2.023c-2.147,1.479-3.548,3.543-3.682,7.118c-0.009,0.287-0.011,0.552-0.011,0.796     c0.039,5.055,1.197,6.875,2.604,9.424c1.448,2.508,3.11,5.717,3.066,11.649c-0.005,6.888,1.16,10.935,2.435,13.07     c1.294,2.15,1.728,2.471,3.136,2.471c1.483,0,2-1.502,2.065-2.297c0.284-2.914-0.214-7.473,1.225-12.336     c0.414-1.35,0.92-3.029,1.928-4.551c1.359-2.051,5.033-3.654,7.303,0c0.96,1.553,1.513,3.201,1.92,4.551     c1.107,3.705,1.424,7.576,1.172,10.535c-0.365,4.109,2.047,4.098,2.123,4.098c1.281,0,1.843-0.319,3.132-2.471     c1.273-2.137,2.44-6.184,2.438-13.07c-0.039-5.946,1.62-9.143,3.07-11.649c1.407-2.552,2.554-4.369,2.601-9.424     C65.608,31.148,65.603,30.887,65.599,30.607z" fill="#F4F2E8"/><path d="M54.367,70.306h-0.002c-0.418,0-1.875-0.101-3.063-1.396c-1.091-1.192-1.542-2.94-1.342-5.195     c0.251-2.941-0.153-6.563-1.084-9.676c-0.397-1.313-0.877-2.713-1.674-4.002c-0.68-1.093-1.289-1.093-1.49-1.093     c-0.742,0-1.575,0.587-1.951,1.153c-0.808,1.22-1.242,2.638-1.626,3.889c-0.938,3.173-0.986,6.156-1.027,8.791     c-0.019,1.137-0.034,2.211-0.129,3.165c-0.177,2.15-1.729,4.364-4.347,4.364c-2.747,0-3.759-1.353-5.1-3.581     c-1.267-2.123-2.769-6.313-2.763-14.254c0.038-5.222-1.284-7.945-2.76-10.501l-0.234-0.422     c-1.354-2.443-2.635-4.752-2.676-10.132c0-0.283,0.002-0.57,0.012-0.883c0.146-3.955,1.676-6.873,4.673-8.938     c1.881-1.273,4.327-2.104,7.091-2.414c0.073-0.008,0.147-0.013,0.224-0.014l3.825-0.053c0.065-0.002,0.146,0.001,0.219,0.007     c2.365,0.194,4.612,0.716,6.358,1.472c2.224-0.963,5.236-1.54,8.096-1.54h0.158c3.679,0,7.033,0.896,9.443,2.523     c3.014,2.085,4.539,5.006,4.688,8.941l0.011,0.879c-0.05,5.416-1.331,7.728-2.688,10.174l-0.198,0.356     c-1.498,2.593-2.819,5.313-2.785,10.528c0.005,7.954-1.499,12.144-2.761,14.259C58.041,69.099,56.861,70.306,54.367,70.306z      M36.367,65.714c0.002,0,0.005,0,0.007,0c0.02-0.063,0.036-0.13,0.04-0.186c0.078-0.803,0.094-1.74,0.109-2.825     c0.045-2.782,0.1-6.245,1.201-9.972c0.455-1.485,1.041-3.396,2.215-5.167c1.291-1.948,3.559-3.207,5.773-3.207     c2.168,0,4.081,1.159,5.388,3.264c1.079,1.745,1.701,3.555,2.167,5.096c1.105,3.698,1.563,7.85,1.261,11.396     c-0.081,0.906,0.023,1.37,0.099,1.573c0.126-0.133,0.396-0.471,0.906-1.32c0.788-1.322,2.115-4.632,2.111-11.892     c-0.042-6.346,1.723-9.935,3.378-12.799l0.181-0.324c1.248-2.254,2.072-3.741,2.112-7.974l-0.01-0.737     c-0.117-3.073-1.363-4.355-2.692-5.275c-1.615-1.09-4.123-1.725-6.856-1.725h-0.158c-2.284,0-4.738,0.469-6.404,1.222     L46.428,25.2c-0.592,0.263-1.271,0.263-1.861-0.002l-0.744-0.332c-1.274-0.579-3.067-0.999-4.945-1.163l-3.598,0.05     c-1.955,0.231-3.693,0.811-4.908,1.631c-1.802,1.24-2.58,2.78-2.675,5.307c-0.008,0.247-0.01,0.486-0.01,0.71     c0.033,4.194,0.856,5.68,2.102,7.927l0.218,0.391c1.635,2.828,3.398,6.42,3.352,12.773c-0.005,7.245,1.32,10.554,2.11,11.88     C35.97,65.205,36.232,65.565,36.367,65.714z" fill="#3B6A75"/></g><path d="M50.622,28.115c-0.362,0-0.73-0.086-1.072-0.269l-5.124-2.719c-1.118-0.594-1.544-1.98-0.951-3.1    c0.594-1.118,1.982-1.545,3.1-0.951l5.125,2.719c1.117,0.594,1.543,1.981,0.95,3.101C52.238,27.673,51.443,28.115,50.622,28.115z" fill="#3B6A75"/><path d="M45.595,90.403h-0.188c-0.233,0-0.467-0.035-0.688-0.105C24.37,83.881,11.046,68.557,6.186,45.983    C2.562,29.152,4.881,14.429,4.981,13.81c0.143-0.868,0.769-1.579,1.612-1.829L44.757,0.691c0.211-0.063,0.431-0.095,0.649-0.095    h0.188c0.22,0,0.439,0.031,0.65,0.095L84.406,11.98c0.846,0.25,1.472,0.961,1.612,1.831c0.102,0.617,2.419,15.341-1.205,32.172    c-4.86,22.573-18.185,37.897-38.529,44.314C46.062,90.368,45.828,90.403,45.595,90.403z M9.321,15.954    c-0.469,4.019-1.471,16.087,1.375,29.192c4.531,20.872,16.24,34.523,34.806,40.587c18.563-6.063,30.271-19.716,34.803-40.587    c2.846-13.105,1.845-25.175,1.376-29.192L45.502,5.252L9.321,15.954z" fill="#3B6A75"/><path d="M45.408,16.142c-1.267,0-2.293-1.025-2.293-2.292V2.889c0-1.266,1.026-2.292,2.293-2.292    c1.266,0,2.291,1.026,2.291,2.292V13.85C47.699,15.115,46.673,16.142,45.408,16.142z" fill="#3B6A75"/><path d="M45.408,90.403c-1.267,0-2.293-1.026-2.293-2.292V72.406c0-1.267,1.026-2.292,2.293-2.292    c1.266,0,2.291,1.025,2.291,2.292v15.705C47.699,89.377,46.673,90.403,45.408,90.403z" fill="#3B6A75"/></g><path d="M35.242,40.246c-0.975,0-1.878-0.625-2.187-1.604c-1.299-4.118-1.34-7.22-0.124-9.479   c0.813-1.514,2.188-2.583,3.973-3.093c1.222-0.353,2.486,0.356,2.834,1.573c0.349,1.219-0.356,2.486-1.573,2.834   c-0.771,0.221-1.043,0.573-1.195,0.856c-0.332,0.617-0.714,2.208,0.46,5.928c0.381,1.207-0.29,2.495-1.497,2.876   C35.701,40.212,35.47,40.246,35.242,40.246z" fill="#FFFFFF"/></g></svg>