<?xml version="1.0" ?><!DOCTYPE svg  PUBLIC '-//W3C//DTD SVG 1.1//EN'  'http://www.w3.org/Graphics/SVG/1.1/DTD/svg11.dtd'><svg enable-background="new 0 0 91 91" height="91px" id="Layer_1" version="1.1" viewBox="0 0 91 91" width="91px" xml:space="preserve" xmlns="http://www.w3.org/2000/svg" xmlns:xlink="http://www.w3.org/1999/xlink"><g><g><g><path d="M43.62,10.265c-1.377-1.752-3.455-2.81-5.729-2.81c-2.8,0-5.317,1.58-6.574,4.122l-0.28,0.564h-6.265     v9.685h13.845C39.209,17.484,40.986,13.519,43.62,10.265z" fill="#FF889C"/></g><path d="M61.876,48.48c-12.945,0-23.479-10.53-23.479-23.475c0-0.388,0.01-0.77,0.026-1.151H22.741v-7.027H9.458    v70.611h56.084c3.101,0,5.625-2.523,5.625-5.627v-35.25C68.316,47.795,65.176,48.48,61.876,48.48z" fill="#F4F2E8"/></g><g><g><path d="M84.34,25.007c0,12.404-10.059,22.461-22.464,22.461c-12.4,0-22.465-10.057-22.465-22.461     c0-12.406,10.063-22.461,22.465-22.461C74.281,2.545,84.34,12.601,84.34,25.007z" fill="#9AE0FF"/><g><polygon fill="#3B6A75" points="22.105,47.645 21.003,46.046 17.245,48.639 21.794,55.234 30.901,44.108 27.367,41.217     "/><polygon fill="#3B6A75" points="22.105,60.534 21.003,58.934 17.243,61.526 21.794,68.126 30.901,56.992 27.367,54.103     "/><polygon fill="#3B6A75" points="22.105,73.425 21.003,71.825 17.245,74.419 21.796,81.017 30.901,69.881 27.367,66.99     "/><rect fill="#3B6A75" height="4.565" width="18.128" x="35.159" y="49.158"/><rect fill="#3B6A75" height="4.564" width="26.958" x="35.159" y="60.879"/><rect fill="#3B6A75" height="4.564" width="26.958" x="35.159" y="72.592"/><path d="M86.621,25.006c0-13.645-11.1-24.743-24.745-24.743c-6.517,0-12.449,2.535-16.874,6.666      c-1.917-1.748-4.417-2.768-7.111-2.768c-3.569,0-6.823,1.764-8.793,4.685h-7.625v4.685H6.162v77.207h59.381      c4.919,0,8.922-4.005,8.922-8.926V46.297C81.735,41.982,86.621,34.055,86.621,25.006z M26.038,13.41h5.785l0.628-1.27      c1.044-2.105,3.129-3.414,5.44-3.414c1.542,0,2.975,0.592,4.073,1.606c-2.197,2.972-3.74,6.451-4.428,10.226H26.038V13.41z       M69.899,81.812c0,2.404-1.955,4.361-4.356,4.361H10.728V18.096h10.746v7.028h15.658c0.064,13.59,11.139,24.627,24.744,24.627      c2.808,0,5.506-0.477,8.023-1.343V81.812z M61.876,45.187c-11.128,0-20.182-9.053-20.182-20.18      c0-11.126,9.054-20.179,20.182-20.179s20.179,9.053,20.181,20.179C82.057,36.135,73.004,45.187,61.876,45.187z" fill="#3B6A75"/></g></g><g><path d="M73.274,17.609c-0.074-2.031-0.87-3.198-2.083-4.038c-1.223-0.825-2.955-1.216-4.671-1.21     c-1.589-0.006-3.152,0.331-4.213,0.81l-0.425,0.188l-0.42-0.188c-0.849-0.386-2.031-0.676-3.287-0.772l-2.162,0.027     c-1.279,0.146-2.502,0.521-3.43,1.146c-1.218,0.84-2.014,2.014-2.089,4.038c0,0.159-0.004,0.312-0.004,0.447     c0.024,2.867,0.681,3.897,1.472,5.347c0.821,1.414,1.768,3.233,1.741,6.599c-0.002,3.905,0.655,6.198,1.383,7.411     c0.729,1.216,0.976,1.395,1.773,1.395c0.849,0,1.135-0.852,1.172-1.302c0.161-1.653-0.123-4.236,0.694-6.99     c0.234-0.761,0.519-1.716,1.091-2.579c0.771-1.163,2.854-2.071,4.143,0c0.543,0.881,0.854,1.818,1.084,2.579     c0.628,2.097,0.806,4.297,0.659,5.969c-0.198,2.33,1.167,2.323,1.212,2.323c0.722,0,1.04-0.179,1.773-1.395     c0.718-1.212,1.381-3.506,1.375-7.411c-0.021-3.371,0.922-5.185,1.743-6.604c0.796-1.445,1.448-2.474,1.475-5.341     C73.282,17.915,73.28,17.767,73.274,17.609z" fill="#F4F2E8"/><path d="M66.916,41.09h-0.002c-0.902,0-1.822-0.414-2.459-1.108c-0.813-0.885-1.159-2.126-1.023-3.689     c0.134-1.561-0.08-3.475-0.572-5.122c-0.206-0.684-0.451-1.404-0.84-2.034c-0.033-0.053-0.062-0.092-0.084-0.121     c-0.074,0.042-0.169,0.117-0.215,0.183c-0.369,0.559-0.592,1.278-0.787,1.91c-0.504,1.696-0.529,3.314-0.551,4.742     c-0.012,0.667-0.021,1.297-0.078,1.879c-0.133,1.649-1.358,3.361-3.442,3.361c-2.065,0-2.913-1.134-3.732-2.505     c-1.134-1.892-1.706-4.779-1.704-8.583c0.021-2.945-0.819-4.395-1.435-5.452l-0.154-0.278c-0.784-1.43-1.599-2.908-1.626-6.195     l0.004-0.467c0.097-2.646,1.103-4.554,3.073-5.917c1.208-0.813,2.744-1.338,4.468-1.535c0.076-0.008,0.152-0.014,0.229-0.014     l2.163-0.027c0.068-0.002,0.138,0,0.206,0.007c1.271,0.099,2.502,0.361,3.532,0.753c1.338-0.509,2.98-0.797,4.595-0.797     c2.358,0.002,4.458,0.569,5.987,1.601c1.992,1.381,2.993,3.289,3.088,5.849c0.006,0.195,0.008,0.366,0.008,0.529     c-0.027,3.322-0.849,4.8-1.641,6.232l-0.117,0.212c-0.636,1.101-1.476,2.554-1.457,5.486c0.006,3.739-0.58,6.705-1.694,8.588     C69.883,39.854,68.967,41.09,66.916,41.09z M56.163,14.706c-0.938,0.121-1.752,0.388-2.305,0.76     c-0.624,0.432-1.034,0.963-1.081,2.229l-0.002,0.362c0.018,2.116,0.389,2.789,1.062,4.013l0.132,0.241     c0.697,1.2,2.052,3.532,2.021,7.708c0,0.765,0.025,1.443,0.072,2.044c0.103-0.706,0.255-1.445,0.479-2.198     c0.002-0.008,0.029-0.096,0.033-0.104c0.257-0.834,0.61-1.979,1.344-3.084c0.908-1.372,2.516-2.258,4.093-2.258     c1.582,0,2.963,0.82,3.891,2.313c0.671,1.087,1.051,2.19,1.332,3.126c0.201,0.669,0.364,1.363,0.49,2.063     c0.041-0.57,0.063-1.206,0.063-1.914c-0.023-3.839,1.045-6.015,2.048-7.749l0.101-0.182c0.677-1.222,1.05-1.895,1.066-4.038     c0-0.099-0.002-0.224-0.006-0.357c-0.044-1.256-0.438-1.772-1.101-2.231c-0.737-0.498-1.991-0.803-3.332-0.803     c-1.47,0-2.662,0.313-3.314,0.607l-0.432,0.191c-0.591,0.268-1.269,0.266-1.863-0.002l-0.42-0.188     c-0.62-0.28-1.521-0.49-2.434-0.57L56.163,14.706z" fill="#3B6A75"/></g><path d="M64.788,17.182c-0.36,0-0.726-0.085-1.065-0.264l-2.905-1.539c-1.115-0.592-1.539-1.974-0.949-3.087    c0.589-1.115,1.97-1.541,3.085-0.949l2.905,1.539c1.115,0.589,1.541,1.972,0.951,3.085C66.398,16.739,65.606,17.182,64.788,17.182    z" fill="#3B6A75"/></g></g></svg>