<svg width="171" height="171" viewBox="0 0 171 171" fill="none" xmlns="http://www.w3.org/2000/svg">
<circle cx="85.5" cy="85.5" r="85.5" fill="#213548"/>
<path d="M89.6918 122C87.8998 122 86.4278 121.456 85.2758 120.368C84.1238 119.216 83.5478 117.808 83.5478 116.144V67.76L84.8918 69.872L77.8838 75.056C76.9878 75.76 75.8678 76.112 74.5238 76.112C72.9878 76.112 71.6438 75.536 70.4918 74.384C69.3398 73.232 68.7638 71.856 68.7638 70.256C68.7638 68.208 69.7558 66.544 71.7398 65.264L85.5638 56.048C86.2038 55.6 86.9078 55.28 87.6758 55.088C88.5078 54.896 89.2758 54.8 89.9798 54.8C91.8358 54.8 93.3078 55.376 94.3958 56.528C95.4838 57.616 96.0278 58.992 96.0278 60.656V116.144C96.0278 117.808 95.4198 119.216 94.2038 120.368C93.0518 121.456 91.5478 122 89.6918 122Z" fill="white"/>
</svg>
