<svg width="171" height="171" viewBox="0 0 171 171" fill="none" xmlns="http://www.w3.org/2000/svg">
<circle cx="85.5" cy="85.5" r="85.5" fill="#213548"/>
<path d="M102.14 111.44C103.676 111.44 104.956 111.952 105.98 112.976C107.004 114 107.516 115.28 107.516 116.816C107.516 118.288 107.004 119.536 105.98 120.56C104.956 121.52 103.676 122 102.14 122H69.4999C67.8359 122 66.5239 121.488 65.5639 120.464C64.6039 119.44 64.1239 118.128 64.1239 116.528C64.1239 114.928 64.6999 113.52 65.8519 112.304L86.7799 89.936C89.1479 87.376 91.0039 84.752 92.3479 82.064C93.7559 79.376 94.4599 77.04 94.4599 75.056C94.4599 71.856 93.5319 69.296 91.6759 67.376C89.8199 65.392 87.3559 64.4 84.2839 64.4C83.0679 64.4 81.8199 64.688 80.5399 65.264C79.2599 65.84 78.0119 66.64 76.7959 67.664C75.6439 68.688 74.5559 69.872 73.5319 71.216C72.7639 72.24 71.9959 72.88 71.2279 73.136C70.4599 73.392 69.7559 73.52 69.1159 73.52C67.7079 73.52 66.3959 73.008 65.1799 71.984C64.0279 70.896 63.4519 69.648 63.4519 68.24C63.4519 67.152 63.8039 66.096 64.5079 65.072C65.2759 64.048 66.2039 62.992 67.2919 61.904C68.8919 60.304 70.6839 58.896 72.6679 57.68C74.6519 56.464 76.6999 55.536 78.8119 54.896C80.9239 54.192 82.9719 53.84 84.9559 53.84C89.2439 53.84 92.9559 54.704 96.0919 56.432C99.2919 58.096 101.756 60.496 103.484 63.632C105.212 66.704 106.076 70.352 106.076 74.576C106.076 78.096 105.02 82.032 102.908 86.384C100.86 90.672 98.0759 94.704 94.5559 98.48L81.5959 112.304L80.5399 111.44H102.14Z" fill="white"/>
</svg>
