<svg width="171" height="171" viewBox="0 0 171 171" fill="none" xmlns="http://www.w3.org/2000/svg">
<circle cx="85.5" cy="85.5" r="85.5" fill="#213548"/>
<path d="M70.4708 109.464C71.0468 109.464 71.6548 109.56 72.2948 109.752C72.9988 109.944 73.7668 110.328 74.5988 110.904C75.6868 111.736 76.9668 112.472 78.4388 113.112C79.9748 113.752 81.7348 114.072 83.7188 114.072C85.7028 114.072 87.5588 113.592 89.2868 112.632C91.0788 111.608 92.5508 110.2 93.7028 108.408C94.8548 106.552 95.4308 104.344 95.4308 101.784C95.4308 99.352 94.9188 97.336 93.8948 95.736C92.9348 94.136 91.6228 92.92 89.9588 92.088C88.3588 91.256 86.6308 90.84 84.7748 90.84C83.3668 90.84 82.1828 90.968 81.2228 91.224C80.3268 91.48 79.4308 91.768 78.5348 92.088C77.7028 92.344 76.7108 92.472 75.5588 92.472C74.0868 92.472 72.9348 91.96 72.1028 90.936C71.3348 89.912 70.9508 88.696 70.9508 87.288C70.9508 86.392 71.1108 85.592 71.4308 84.888C71.8148 84.184 72.3588 83.416 73.0628 82.584L89.9588 64.632L92.5508 66.84H68.9348C67.3988 66.84 66.1188 66.328 65.0948 65.304C64.0708 64.28 63.5588 63 63.5588 61.464C63.5588 59.992 64.0708 58.776 65.0948 57.816C66.1188 56.792 67.3988 56.28 68.9348 56.28H98.3108C100.295 56.28 101.767 56.824 102.727 57.912C103.751 59 104.263 60.376 104.263 62.04C104.263 62.872 104.039 63.704 103.591 64.536C103.143 65.304 102.599 66.008 101.959 66.648L84.9668 84.888L82.3748 81.624C83.0788 81.304 84.0388 81.016 85.2548 80.76C86.5348 80.504 87.5908 80.376 88.4228 80.376C92.1988 80.376 95.4628 81.368 98.2148 83.352C101.031 85.272 103.175 87.8 104.647 90.936C106.183 94.008 106.951 97.336 106.951 100.92C106.951 105.656 105.895 109.752 103.783 113.208C101.671 116.664 98.6948 119.32 94.8548 121.176C91.0148 123.032 86.5348 123.96 81.4148 123.96C79.0468 123.96 76.7108 123.672 74.4068 123.096C72.1028 122.52 70.1188 121.752 68.4548 120.792C67.0468 120.024 66.0868 119.192 65.5748 118.296C65.1268 117.336 64.9028 116.44 64.9028 115.608C64.9028 114.136 65.4148 112.76 66.4388 111.48C67.5268 110.136 68.8708 109.464 70.4708 109.464Z" fill="white"/>
</svg>
