<?xml version="1.0" ?><svg id="Layer_1" style="enable-background:new 0 0 152 152;" version="1.1" viewBox="0 0 152 152" xml:space="preserve" xmlns="http://www.w3.org/2000/svg" xmlns:xlink="http://www.w3.org/1999/xlink"><style type="text/css">
	.st0{fill:#3FA0D9;}
	.st1{opacity:0.2;fill:#FFFFFF;}
	.st2{opacity:0.2;fill:#2D3079;}
	.st3{opacity:0.1;fill:#FFFFFF;}
	.st4{fill:#FFFFFF;}
	.st5{opacity:0.2;}
	.st6{fill:#202020;}
</style><g id="XMLID_514_"><path class="st0" d="M140,150.8H13.2c-6.6,0-12-5.4-12-12V12.1c0-6.6,5.4-12,12-12H140c6.6,0,12,5.4,12,12v126.8   C152,145.4,146.6,150.8,140,150.8z" id="XMLID_513_"/><path class="st1" d="M140.1,0.1h-127C6.6,0.1,1.2,5.4,1.2,12v1c0-6.5,5.4-11.9,11.9-11.9h127   c6.5,0,11.9,5.4,11.9,11.9v-1C152,5.4,146.6,0.1,140.1,0.1z" id="XMLID_510_"/><path class="st2" d="M140.1,150.8h-127c-6.5,0-11.9-5.4-11.9-11.9v1c0,6.5,5.4,11.9,11.9,11.9h127   c6.5,0,11.9-5.4,11.9-11.9v-1C152,145.5,146.6,150.8,140.1,150.8z" id="XMLID_509_"/><path class="st3" d="M140,150.8H76.6V0.1l63.4,0c6.6,0,12,5.4,12,12v126.8C152,145.4,146.6,150.8,140,150.8z" id="XMLID_506_"/><path class="st4" d="M39.2,75.8c0.2-2.2,0.5-4.4,0.7-6.7c0-0.4,0-0.9-0.2-1.3C33.2,55.6,39.6,40.7,52.9,37   c5.6-1.5,11-0.8,16.1,2c0.6,0.3,1.1,0.4,1.8,0.3c12.2-1.5,22.8,1.9,31.6,10.7c6,6,9.4,13.4,10.4,21.9c0.4,3.8,0.2,7.5-0.5,11.3   c-0.1,0.3,0,0.8,0.1,1.1c5.6,12.6-1.4,26.7-14.8,29.8c-4.8,1.1-9.4,0.5-13.8-1.6c-0.6-0.3-1.1-0.4-1.8-0.3   c-14.7,2.4-29.8-4.7-37.4-17.5C41.1,88.9,39.3,82.6,39.2,75.8z M75.8,49.8c-1.8,0.2-3.6,0.2-5.4,0.5c-3.6,0.5-7,1.6-10,3.9   c-6.4,4.8-6.8,15,0.1,19.8c2,1.4,4.2,2.5,6.5,3.1c3.8,1.1,7.7,2,11.6,3c1.9,0.5,3.7,1,5.3,2.2c2.4,1.8,2.8,5.1,0.7,7.3   c-0.8,0.9-2,1.6-3.1,2.2c-2.6,1.2-5.4,1.3-8.3,0.9c-3.1-0.4-5.4-1.9-6.9-4.6c-0.5-0.8-0.8-1.7-1.3-2.6c-0.5-0.9-1-1.7-1.6-2.5   c-1.4-1.6-3.9-2.1-6-1.2c-2,0.8-3.2,2.7-3,4.9c0.1,1.2,0.4,2.4,0.8,3.5c1.9,4.4,5.3,7.4,9.8,9.1c5.8,2.1,11.8,2.2,17.8,1.1   c4-0.7,7.6-2.4,10.6-5.3c5.6-5.5,6.4-17.4-3.5-22c-1.9-0.9-3.9-1.7-5.9-2.2c-3.9-1.1-7.9-2-11.8-3c-1.7-0.5-3.4-1.1-4.8-2.4   c-1.4-1.4-1.6-3.4-0.2-4.8c0.8-0.8,1.9-1.5,2.9-2c1.8-0.8,3.8-0.8,5.8-0.8c4,0,6.6,1.9,8.4,5.3c0.4,0.8,0.9,1.5,1.4,2.2   c1.4,1.8,3.7,2.4,5.9,1.6c2.1-0.8,3.6-2.9,3.3-5.2c-0.1-1.1-0.4-2.3-0.9-3.3c-1.3-2.9-3.7-4.8-6.5-6.2C84.1,50.5,80,49.9,75.8,49.8   z" id="XMLID_503_"/><g class="st5" id="XMLID_494_"><path class="st4" d="M91.9,67.2c-2.2,0.8-4.5,0.2-5.9-1.6c-0.5-0.7-1-1.4-1.4-2.2C82.8,60,80.1,58,76.2,58    c-2,0-4,0-5.8,0.8c-1.1,0.5-2.1,1.2-2.9,2c-0.8,0.8-1.1,1.8-0.9,2.7c0.1-0.6,0.4-1.2,0.9-1.7c0.8-0.8,1.9-1.5,2.9-2    c1.8-0.8,3.8-0.8,5.8-0.8c4,0,6.6,1.9,8.4,5.3c0.4,0.8,0.9,1.5,1.4,2.2c1.4,1.8,3.7,2.4,5.9,1.6c2.1-0.8,3.6-2.9,3.3-5.2    c0,0,0,0,0-0.1C95,64.8,93.7,66.5,91.9,67.2z" id="XMLID_502_"/><path class="st4" d="M60.5,75c2,1.4,4.2,2.5,6.5,3.1c3.8,1.1,7.7,2,11.6,3c1.9,0.5,3.7,1,5.3,2.2    c1.2,0.9,1.9,2.2,2,3.5c0.2-1.6-0.5-3.3-2-4.5c-1.6-1.2-3.4-1.8-5.3-2.2c-3.9-1-7.8-1.9-11.6-3c-2.3-0.6-4.5-1.7-6.5-3.1    c-3.3-2.3-4.9-5.8-5-9.4C55.3,68.5,56.9,72.5,60.5,75z" id="XMLID_501_"/><path class="st4" d="M39.9,69.4c-0.2,2.1-0.5,4.3-0.7,6.4c0,0.2,0,0.5,0,0.7c0.2-2.1,0.5-4.2,0.7-6.3    C39.9,69.9,39.9,69.7,39.9,69.4z" id="XMLID_498_"/><path class="st4" d="M52.9,38c5.6-1.5,11-0.8,16.1,2c0.6,0.3,1.1,0.4,1.8,0.3c12.2-1.5,22.8,1.9,31.6,10.7    c6,6,9.4,13.4,10.4,21.9c0.1,1.2,0.2,2.3,0.2,3.5c0-1.5,0-3-0.2-4.5c-1-8.5-4.3-15.9-10.4-21.9C93.6,41.3,83,37.9,70.8,39.4    c-0.7,0.1-1.2,0-1.8-0.3c-5.1-2.9-10.5-3.6-16.1-2C43,39.7,37,48.7,37.1,58.1C37.4,49,43.4,40.6,52.9,38z" id="XMLID_497_"/><path class="st4" d="M112.4,84.3c0-0.1-0.1-0.2-0.1-0.3c0,0.1,0,0.2,0,0.2c-0.1,0.3,0,0.8,0.1,1.1    c1.3,2.8,1.9,5.8,1.9,8.6C114.4,90.7,113.8,87.5,112.4,84.3z" id="XMLID_496_"/><path class="st4" d="M54.5,87.8c0.1,1.2,0.4,2.4,0.8,3.5c1.9,4.4,5.3,7.4,9.8,9.1c5.8,2.1,11.8,2.2,17.8,1.1    c4-0.7,7.6-2.4,10.6-5.3c2.7-2.6,4.2-6.6,4.1-10.7c-0.1,3.7-1.7,7.3-4.1,9.7c-3,2.9-6.6,4.5-10.6,5.3c-6,1.1-12,1-17.8-1.1    c-4.5-1.6-7.9-4.6-9.8-9.1c-0.5-1.1-0.7-2.3-0.8-3.5C54.5,87.2,54.5,87.5,54.5,87.8z" id="XMLID_495_"/></g><g class="st5" id="XMLID_482_"><path class="st6" d="M57.5,82.9c2.1-0.9,4.6-0.5,6,1.2c0.6,0.7,1.1,1.6,1.6,2.5c0.5,0.8,0.8,1.7,1.3,2.6    c1.5,2.7,3.8,4.2,6.9,4.6c2.8,0.4,5.6,0.3,8.3-0.9c1.1-0.5,2.2-1.3,3.1-2.2c1-1.1,1.4-2.5,1.3-3.8c-0.1,1-0.5,2-1.3,2.8    c-0.8,0.9-2,1.6-3.1,2.2c-2.6,1.2-5.4,1.3-8.3,0.9c-3.1-0.4-5.4-1.9-6.9-4.6c-0.5-0.8-0.8-1.7-1.3-2.6c-0.5-0.9-1-1.7-1.6-2.5    c-1.4-1.6-3.9-2.1-6-1.2c-2,0.8-3.2,2.7-3,4.9c0,0,0,0,0,0.1C54.7,85,55.8,83.6,57.5,82.9z" id="XMLID_493_"/><path class="st6" d="M95.2,62c-0.1-1.1-0.4-2.3-0.9-3.3c-1.3-2.9-3.7-4.8-6.5-6.2c-3.8-1.9-7.9-2.5-12.1-2.6    c-1.8,0.2-3.6,0.2-5.4,0.5c-3.6,0.5-7,1.6-10,3.9c-3.4,2.5-5,6.5-4.9,10.5c0.1-3.6,1.8-7.1,4.9-9.5c3-2.2,6.4-3.3,10-3.9    c1.8-0.3,3.6-0.3,5.4-0.5c4.2,0.1,8.3,0.7,12.1,2.6c2.8,1.4,5.1,3.3,6.5,6.2c0.5,1,0.8,2.2,0.9,3.3C95.3,62.6,95.3,62.3,95.2,62z" id="XMLID_492_"/><path class="st6" d="M90.1,73.3c-1.9-0.9-3.9-1.7-5.9-2.2c-3.9-1.1-7.9-2-11.8-3c-1.7-0.5-3.4-1.1-4.8-2.4    c-0.6-0.6-1-1.3-1.1-2.1c-0.2,1.1,0.2,2.2,1.1,3.1c1.3,1.3,3,2,4.8,2.4c3.9,1,7.9,1.9,11.8,3c2,0.6,4,1.4,5.9,2.2    c5.2,2.4,7.4,6.8,7.6,11.3C97.8,80.8,95.6,75.9,90.1,73.3z" id="XMLID_489_"/><path class="st6" d="M97.6,114.1c-4.8,1.1-9.4,0.5-13.8-1.6c-0.6-0.3-1.1-0.4-1.8-0.3    c-14.7,2.4-29.8-4.7-37.4-17.5c-3.3-5.7-5.1-11.8-5.3-18.3c0,0.1,0,0.2,0,0.3c0.2,6.8,1.9,13.1,5.3,19    c7.6,12.8,22.7,19.9,37.4,17.5c0.7-0.1,1.2,0,1.8,0.3c4.4,2.1,9,2.7,13.8,1.6c10.4-2.4,16.9-11.4,16.7-21.2    C114,103.3,107.6,111.8,97.6,114.1z" id="XMLID_487_"/><path class="st6" d="M112.3,84c0.5-2.5,0.7-5,0.7-7.5c0,2.3-0.3,4.5-0.7,6.8C112.2,83.5,112.2,83.7,112.3,84z" id="XMLID_485_"/><path class="st6" d="M39.9,69.4c0-0.1,0-0.2,0-0.3c0-0.4,0-0.9-0.2-1.3c-1.7-3.2-2.5-6.5-2.6-9.8    c-0.1,3.6,0.7,7.3,2.6,10.8C39.8,69,39.9,69.2,39.9,69.4z" id="XMLID_483_"/></g></g></svg>