<?xml version="1.0" encoding="UTF-8"?>
<!DOCTYPE svg PUBLIC "-//W3C//DTD SVG 1.1//EN" "http://www.w3.org/Graphics/SVG/1.1/DTD/svg11.dtd">
<!-- Creator: CorelDRAW -->
<svg xmlns="http://www.w3.org/2000/svg" xml:space="preserve" width="125px" height="125px" style="shape-rendering:geometricPrecision; text-rendering:geometricPrecision; image-rendering:optimizeQuality; fill-rule:evenodd; clip-rule:evenodd"
viewBox="0 0 125 125">
 <defs>
  <style type="text/css">
   <![CDATA[
    .str0 {stroke:#000000;stroke-width:4.0}
    .fil0 {fill:none}
    .fil2 {fill:#000000}
    .fil1 {fill:#000000;fill-rule:nonzero}
   ]]>
  </style>
 </defs>
 <g id="Layer_x0020_1">
  <metadata id="CorelCorpID_0Corel-Layer"/>
  <path class="fil0 str0" d="M28.0058 72.9067c13.9465,0 25.2568,11.1532 25.2568,24.906 0,13.7528 -11.3103,24.906 -25.2568,24.906 -13.9465,0 -25.2568,-11.1532 -25.2568,-24.906 0,-13.7528 11.3103,-24.906 25.2568,-24.906z"/>
  <path class="fil1" d="M50.924 107.412c0,0.113977 -0.0460631,0.220276 -0.126969,0.295867 -0.0933074,0.0838585 -0.243898,0.151772 -0.440553,0.212599 -0.208465,0.060827 -0.487206,0.1063 -0.857483,0.136418 -0.359647,0.0301182 -0.810829,0.0454726 -1.35591,0.0454726 -0.567521,0 -1.0317,-0.0153544 -1.39075,-0.0454726 -0.359056,-0.0301182 -0.648427,-0.0755908 -0.868704,-0.136418 -0.209646,-0.060827 -0.360237,-0.128741 -0.452364,-0.212599 -0.0927168,-0.0755908 -0.13878,-0.18189 -0.13878,-0.295867l0 -12.1571c0,-0.842129 -0.116339,-1.61575 -0.336615,-2.30552 -0.232087,-0.698034 -0.591144,-1.29745 -1.08898,-1.80532 -0.498427,-0.500789 -1.13622,-0.887601 -1.9004,-1.15276 -0.765357,-0.265749 -1.68012,-0.402167 -2.71123,-0.402167 -1.29863,0 -2.59607,0.325985 -3.8947,0.978546 -1.29745,0.651971 -2.73426,1.60808 -4.28682,2.86654l0 13.9778c0,0.113977 -0.0472442,0.220276 -0.139371,0.295867 -0.0927168,0.0838585 -0.243308,0.151772 -0.463584,0.212599 -0.208465,0.060827 -0.497836,0.1063 -0.857483,0.136418 -0.370867,0.0301182 -0.82264,0.0454726 -1.36772,0.0454726 -0.521458,0 -0.962011,-0.0153544 -1.33288,-0.0454726 -0.382678,-0.0301182 -0.672049,-0.0755908 -0.892326,-0.136418 -0.208465,-0.060827 -0.359056,-0.128741 -0.439962,-0.212599 -0.0696853,-0.0755908 -0.115748,-0.18189 -0.115748,-0.295867l0 -12.1571c0,-0.842129 -0.126969,-1.61575 -0.370867,-2.30552 -0.255119,-0.698034 -0.625986,-1.29745 -1.12441,-1.80532 -0.497836,-0.500789 -1.12441,-0.887601 -1.87678,-1.15276 -0.765357,-0.265749 -1.65768,-0.402167 -2.7006,-0.402167 -1.29745,0 -2.59489,0.325985 -3.90533,0.978546 -1.30926,0.651971 -2.74607,1.60808 -4.27619,2.86654l0 13.9778c0,0.113977 -0.0460631,0.220276 -0.13878,0.295867 -0.0921263,0.0838585 -0.242717,0.151772 -0.440553,0.212599 -0.208465,0.060827 -0.486616,0.1063 -0.845672,0.136418 -0.370867,0.0301182 -0.834451,0.0454726 -1.40197,0.0454726 -0.533269,0 -0.985633,-0.0153544 -1.3565,-0.0454726 -0.359056,-0.0301182 -0.648427,-0.0755908 -0.856892,-0.136418 -0.220276,-0.060827 -0.370867,-0.128741 -0.440553,-0.212599 -0.0809058,-0.0755908 -0.126969,-0.18189 -0.126969,-0.295867l0 -19.9997c0,-0.121063 0.0342521,-0.219686 0.103937,-0.302954 0.0690947,-0.0761813 0.207875,-0.151772 0.40571,-0.220276 0.208465,-0.0679136 0.462994,-0.1063 0.787798,-0.128741 0.312993,-0.0230316 0.729924,-0.0377954 1.25138,-0.0377954 0.498427,0 0.915357,0.0147638 1.24016,0.0377954 0.324804,0.022441 0.579333,0.060827 0.764766,0.128741 0.173623,0.0685042 0.312403,0.144095 0.393899,0.220276 0.0690947,0.083268 0.116339,0.18189 0.116339,0.302954l0 2.64686c1.71438,-1.25847 3.38328,-2.18387 5.00612,-2.76792 1.62225,-0.584057 3.25631,-0.879924 4.901,-0.879924 1.275,0 2.41123,0.0986224 3.4193,0.28819 1.00807,0.197245 1.88859,0.462994 2.66517,0.81142 0.764766,0.349017 1.425,0.765947 1.97008,1.2443 0.533269,0.484844 0.996263,1.02343 1.35532,1.61516 1.02048,-0.728152 1.98249,-1.34233 2.89725,-1.84312 0.915948,-0.507876 1.80827,-0.917719 2.65395,-1.22835 0.846263,-0.311221 1.66831,-0.530907 2.47973,-0.675002 0.800199,-0.144095 1.61162,-0.212599 2.42245,-0.212599 1.97008,0 3.62659,0.227363 4.95946,0.682679 1.33288,0.447639 2.41064,1.05414 3.2445,1.80532 0.823231,0.75827 1.41437,1.64528 1.76162,2.65395 0.348426,1.01634 0.521458,2.08583 0.521458,3.21615l0 12.6426z"/>
  <path class="fil2" d="M17.8329 94.5971c1.80768,0 3.27403,1.43977 3.27403,3.21556 0,1.77579 -1.46634,3.21556 -3.27403,3.21556 -1.80768,0 -3.27403,-1.43977 -3.27403,-3.21556 0,-1.77579 1.46634,-3.21556 3.27403,-3.21556z"/>
  <path class="fil2" d="M38.2956 94.5971c1.80768,0 3.27403,1.43977 3.27403,3.21556 0,1.77579 -1.46634,3.21556 -3.27403,3.21556 -1.80768,0 -3.27403,-1.43977 -3.27403,-3.21556 0,-1.77579 1.46634,-3.21556 3.27403,-3.21556z"/>
  <polygon class="fil2" points="49.9549,109.591 61.2846,116.834 58.3242,121.464 46.9944,114.221 "/>
 </g>
</svg>
