<?xml version="1.0" encoding="UTF-8"?>
<!DOCTYPE svg PUBLIC "-//W3C//DTD SVG 1.1//EN" "http://www.w3.org/Graphics/SVG/1.1/DTD/svg11.dtd">
<!-- Creator: CorelDRAW -->
<svg xmlns="http://www.w3.org/2000/svg" xml:space="preserve" width="125px" height="140px" style="shape-rendering:geometricPrecision; text-rendering:geometricPrecision; image-rendering:optimizeQuality; fill-rule:evenodd; clip-rule:evenodd"
viewBox="0 0 125 140">
 <defs>
  <style type="text/css">
   <![CDATA[
    .str0 {stroke:#1F1A17;stroke-width:8.33388}
    .fil1 {fill:none}
    .fil2 {fill:#1F1A17}
    .fil4 {fill:#838281}
    .fil3 {fill:#E77817}
    .fil0 {fill:#0093DD;fill-rule:nonzero}
   ]]>
  </style>
 </defs>
 <g id="Layer_x0020_1">
  <metadata id="CorelCorpID_0Corel-Layer"/>
  <path class="fil0" d="M101.142 73.8097c0,0.227953 -0.0921263,0.440553 -0.253938,0.591734 -0.186615,0.167717 -0.487797,0.303544 -0.881105,0.425198 -0.41693,0.121654 -0.974413,0.212599 -1.71497,0.272836 -0.719294,0.0602364 -1.62166,0.0909452 -2.71182,0.0909452 -1.13504,0 -2.06339,-0.0307088 -2.7815,-0.0909452 -0.718112,-0.0602364 -1.29685,-0.151182 -1.73741,-0.272836 -0.419293,-0.121654 -0.720475,-0.257481 -0.904727,-0.425198 -0.185434,-0.151182 -0.27756,-0.363781 -0.27756,-0.591734l0 -24.3142c0,-1.68426 -0.232678,-3.23151 -0.67323,-4.61104 -0.464175,-1.39607 -1.18229,-2.59489 -2.17796,-3.61064 -0.996854,-1.00158 -2.27245,-1.7752 -3.8008,-2.30552 -1.53071,-0.531498 -3.36025,-0.804333 -5.42246,-0.804333 -2.59725,0 -5.19214,0.651971 -7.78939,1.95709 -2.59489,1.30394 -5.46852,3.21615 -8.57365,5.73309l0 27.9556c0,0.227953 -0.0944885,0.440553 -0.278741,0.591734 -0.185434,0.167717 -0.486616,0.303544 -0.927168,0.425198 -0.41693,0.121654 -0.995672,0.212599 -1.71497,0.272836 -0.741735,0.0602364 -1.64528,0.0909452 -2.73544,0.0909452 -1.04292,0 -1.92402,-0.0307088 -2.66576,-0.0909452 -0.765357,-0.0602364 -1.3441,-0.151182 -1.78465,-0.272836 -0.41693,-0.121654 -0.718112,-0.257481 -0.879924,-0.425198 -0.139371,-0.151182 -0.231497,-0.363781 -0.231497,-0.591734l0 -24.3142c0,-1.68426 -0.253938,-3.23151 -0.741735,-4.61104 -0.510238,-1.39607 -1.25197,-2.59489 -2.24883,-3.61064 -0.995672,-1.00158 -2.24883,-1.7752 -3.75356,-2.30552 -1.53071,-0.531498 -3.31536,-0.804333 -5.4012,-0.804333 -2.59489,0 -5.18978,0.651971 -7.81065,1.95709 -2.61851,1.30394 -5.49214,3.21615 -8.55239,5.73309l0 27.9556c0,0.227953 -0.0921263,0.440553 -0.27756,0.591734 -0.184253,0.167717 -0.485435,0.303544 -0.881105,0.425198 -0.41693,0.121654 -0.973231,0.212599 -1.69134,0.272836 -0.741735,0.0602364 -1.6689,0.0909452 -2.80395,0.0909452 -1.06654,0 -1.97127,-0.0307088 -2.713,-0.0909452 -0.718112,-0.0602364 -1.29685,-0.151182 -1.71378,-0.272836 -0.440553,-0.121654 -0.741735,-0.257481 -0.881105,-0.425198 -0.161812,-0.151182 -0.253938,-0.363781 -0.253938,-0.591734l0 -39.9993c0,-0.242127 0.0685042,-0.439371 0.207875,-0.605907 0.138189,-0.152363 0.415749,-0.303544 0.81142,-0.440553 0.41693,-0.135827 0.925987,-0.212599 1.5756,-0.257481 0.625986,-0.0460631 1.45985,-0.0755908 2.50276,-0.0755908 0.996854,0 1.83071,0.0295277 2.48032,0.0755908 0.649608,0.044882 1.15867,0.121654 1.52953,0.257481 0.347245,0.137008 0.624805,0.28819 0.787798,0.440553 0.138189,0.166536 0.232678,0.363781 0.232678,0.605907l0 5.29372c3.42875,-2.51694 6.76656,-4.36773 10.0122,-5.53584 3.2445,-1.16811 6.51262,-1.75985 9.802,-1.75985 2.55001,0 4.82246,0.197245 6.8386,0.57638 2.01615,0.394489 3.77718,0.925987 5.33033,1.62284 1.52953,0.698034 2.85001,1.53189 3.94017,2.48859 1.06654,0.969688 1.99253,2.04686 2.71064,3.23033 2.04095,-1.4563 3.96497,-2.68465 5.79451,-3.68623 1.8319,-1.01575 3.61655,-1.83544 5.30789,-2.4567 1.69253,-0.622443 3.33662,-1.06181 4.95946,-1.35 1.6004,-0.28819 3.22324,-0.425198 4.8449,-0.425198 3.94017,0 7.25317,0.454726 9.91893,1.36536 2.66576,0.895278 4.82128,2.10827 6.489,3.61064 1.64646,1.51654 2.82875,3.29056 3.52324,5.30789 0.696853,2.03268 1.04292,4.17167 1.04292,6.4323l0 25.2851z"/>
  <path class="fil1 str0" d="M55.3053 4.80002c27.893,0 50.5135,22.3064 50.5135,49.812 0,27.5056 -22.6205,49.812 -50.5135,49.812 -27.893,0 -50.5135,-22.3064 -50.5135,-49.812 0,-27.5056 22.6205,-49.812 50.5135,-49.812z"/>
  <path class="fil2" d="M34.9596 48.1809c3.61537,0 6.54805,2.87954 6.54805,6.43112 0,3.55159 -2.93269,6.43112 -6.54805,6.43112 -3.61537,0 -6.54805,-2.87954 -6.54805,-6.43112 0,-3.55159 2.93269,-6.43112 6.54805,-6.43112z"/>
  <path class="fil2" d="M75.8849 48.1809c3.61537,0 6.54805,2.87954 6.54805,6.43112 0,3.55159 -2.93269,6.43112 -6.54805,6.43112 -3.61537,0 -6.54805,-2.87954 -6.54805,-6.43112 0,-3.55159 2.93269,-6.43112 6.54805,-6.43112z"/>
  <polygon class="fil2" points="99.2035,78.168 121.863,92.6542 115.942,101.915 93.2826,87.429 "/>
  <g id="_223481264">
   <polygon id="_223481336" class="fil3" points="60.5955,113.691 60.6297,128.162 49.6844,128.193 49.6513,113.722 "/>
   <polygon id="_223481552" class="fil3" points="50.7285,117.603 31.8851,109.102 35.1922,106.224 54.0356,114.726 "/>
   <polygon id="_223481288" class="fil3" points="56.1829,114.009 65.0376,110.829 76.3455,106.77 79.2321,109.817 59.0695,117.057 "/>
  </g>
  <path class="fil4" d="M54.4726 111.956c5.26065,0 9.5268,4.18938 9.5268,9.35672 0,5.16734 -4.26616,9.35672 -9.5268,9.35672 -5.25947,0 -9.5268,-4.18938 -9.5268,-9.35672 0,-5.16734 4.26734,-9.35672 9.5268,-9.35672z"/>
  <path class="fil2" d="M54.3214 114.791c3.61537,0 6.54805,2.87954 6.54805,6.43112 0,3.55159 -2.93269,6.43112 -6.54805,6.43112 -3.61537,0 -6.54805,-2.87954 -6.54805,-6.43112 0,-3.55159 2.93269,-6.43112 6.54805,-6.43112z"/>
 </g>
</svg>
