<svg width="285" height="265" viewBox="0 0 285 265" fill="none" xmlns="http://www.w3.org/2000/svg">
<rect width="285" height="265" fill="white"/>
<circle cx="138" cy="131" r="122" fill="#DFE5E7"/>
<path d="M103.528 97.0033H109.531C111.74 97.0033 113.534 95.5799 113.534 93.8374V68.1658C113.534 66.4147 111.74 65 109.531 65H103.528C101.328 65 99.5336 66.4147 99.5336 68.1658V93.8374C99.525 95.5799 101.319 97.0033 103.528 97.0033Z" fill="#6C7881" fill-opacity="0.57"/>
<path d="M166.335 97.0033H172.339C174.547 97.0033 176.341 95.5799 176.341 93.8374V68.1658C176.341 66.4147 174.547 65 172.339 65H166.335C164.127 65 162.341 66.4147 162.341 68.1658V93.8374C162.341 95.5799 164.127 97.0033 166.335 97.0033Z" fill="#6C7881" fill-opacity="0.57"/>
<path d="M197.062 77.2493H181.138V96.8998C181.138 101.291 177.187 104.862 172.33 104.862H166.326C161.47 104.862 157.519 101.291 157.519 96.8998V77.2493H118.321V96.8998C118.321 101.291 114.371 104.862 109.514 104.862H103.528C98.6796 104.862 94.7288 101.291 94.7288 96.8998V77.2493H78.8048C76.1566 77.2493 74 79.4058 74 82.0541V192.323C74 194.971 76.1566 197.111 78.8048 197.111H197.062C199.718 197.111 201.866 194.971 201.866 192.323V82.0541C201.866 79.4058 199.718 77.2493 197.062 77.2493ZM195.371 146.863V184.378C195.371 185.206 194.698 185.896 193.861 185.896H136.204H82.0051C81.1684 185.896 80.4955 185.206 80.4955 184.378V153.936V116.421C80.4955 115.593 81.1684 114.903 82.0051 114.903H139.654H193.861C194.698 114.903 195.371 115.593 195.371 116.421V146.863Z" fill="#6C7881" fill-opacity="0.57"/>
<path d="M106.918 142.032H91.9512V157.007H106.918V142.032Z" fill="#6C7881" fill-opacity="0.57"/>
<path d="M132.391 142.032H117.424V157.007H132.391V142.032Z" fill="#6C7881" fill-opacity="0.57"/>
<path d="M157.605 142.032H142.647V157.007H157.605V142.032Z" fill="#6C7881" fill-opacity="0.57"/>
<path d="M183.087 142.032H168.112V157.007H183.087V142.032Z" fill="#6C7881" fill-opacity="0.57"/>
<path d="M107.237 163.615H92.2617V178.59H107.237V163.615Z" fill="#6C7881" fill-opacity="0.57"/>
<path d="M132.71 163.615H117.744V178.59H132.71V163.615Z" fill="#6C7881" fill-opacity="0.57"/>
<path d="M157.925 163.615H142.967V178.59H157.925V163.615Z" fill="#6C7881" fill-opacity="0.57"/>
<path d="M183.406 163.615H168.44V178.59H183.406V163.615Z" fill="#6C7881" fill-opacity="0.57"/>
<path d="M157.709 120.812H142.742V135.778H157.709V120.812Z" fill="#6C7881" fill-opacity="0.57"/>
<path d="M183.191 120.812H168.233V135.778H183.191V120.812Z" fill="#6C7881" fill-opacity="0.57"/>
</svg>
